<svg xmlns="http://www.w3.org/2000/svg" width="20" height="20" viewBox="0 0 20 20" fill="none"><path d="M2.93743 0.615556C2.97789 0.615379 3.01836 0.615202 3.06004 0.615019C3.19583 0.614524 3.3316 0.614589 3.46738 0.614653C3.56466 0.614419 3.66193 0.614154 3.7592 0.613858C3.99613 0.613239 4.23305 0.612994 4.46998 0.612951C4.66261 0.612914 4.85523 0.612753 5.04785 0.612506C5.59417 0.611818 6.14048 0.611457 6.6868 0.611516C6.73096 0.61152 6.73096 0.61152 6.77602 0.611525C6.82024 0.61153 6.82024 0.61153 6.86536 0.611535C7.34305 0.611567 7.82074 0.610819 8.29844 0.609717C8.78912 0.608595 9.2798 0.608056 9.77048 0.608123C10.0459 0.608149 10.3213 0.607935 10.5967 0.607094C10.8557 0.606307 11.1147 0.606331 11.3738 0.6069C11.4688 0.606981 11.5639 0.606796 11.6589 0.606325C11.7887 0.605722 11.9185 0.606084 12.0483 0.606686C12.0859 0.606285 12.1234 0.605883 12.1621 0.605469C12.4418 0.608335 12.6492 0.673089 12.8613 0.859004C12.8824 0.884432 12.9034 0.909861 12.9251 0.936061C12.9468 0.961389 12.9684 0.986717 12.9907 1.01281C13.1059 1.18002 13.1351 1.32428 13.1347 1.52562C13.1349 1.59652 13.1349 1.59652 13.135 1.66886C13.1347 1.72039 13.1345 1.77192 13.1342 1.82501C13.1342 1.88007 13.1342 1.93513 13.1342 1.99019C13.1342 2.13941 13.1338 2.28862 13.1332 2.43783C13.1327 2.59387 13.1327 2.7499 13.1326 2.90594C13.1324 3.2013 13.1317 3.49665 13.1309 3.79201C13.1301 4.12831 13.1296 4.46462 13.1292 4.80092C13.1284 5.49262 13.1271 6.18431 13.1253 6.876C13.1504 6.8757 13.1756 6.87539 13.2015 6.87507C13.3175 6.87384 13.4336 6.87309 13.5497 6.87234C13.6089 6.8716 13.6089 6.8716 13.6694 6.87085C14.8106 6.86536 15.8505 7.3675 16.68 8.126C16.7112 8.154 16.7424 8.182 16.7746 8.21084C17.2171 8.6282 17.5284 9.13664 17.7737 9.6885C17.7926 9.73014 17.8114 9.77179 17.8308 9.81469C18.2924 10.9182 18.2524 12.2267 17.825 13.3311C17.594 13.893 17.2842 14.3586 16.8753 14.8057C16.8473 14.8369 16.8193 14.8681 16.7905 14.9003C16.3729 15.343 15.8646 15.6536 15.3128 15.8994C15.251 15.9277 15.251 15.9277 15.188 15.9565C14.6619 16.1785 14.1166 16.2631 13.5486 16.2551C13.4871 16.2547 13.4871 16.2547 13.4244 16.2542C13.3247 16.2535 13.225 16.2524 13.1253 16.251C13.1257 16.2811 13.126 16.3113 13.1264 16.3423C13.1295 16.6274 13.1319 16.9124 13.1334 17.1974C13.1342 17.3439 13.1353 17.4904 13.1371 17.6369C13.1388 17.7785 13.1397 17.9201 13.1401 18.0617C13.1404 18.1155 13.141 18.1693 13.1418 18.2231C13.1472 18.5797 13.1353 18.8348 12.8923 19.112C12.8669 19.1331 12.8415 19.1541 12.8153 19.1758C12.7899 19.1975 12.7646 19.2191 12.7385 19.2414C12.5204 19.3917 12.3196 19.3873 12.0632 19.3864C12.0227 19.3866 11.9823 19.3868 11.9406 19.387C11.8048 19.3875 11.669 19.3874 11.5332 19.3874C11.436 19.3876 11.3387 19.3878 11.2414 19.3881C11.0045 19.3888 10.7676 19.389 10.5306 19.3891C10.338 19.3891 10.1454 19.3892 9.95277 19.3895C9.40645 19.3902 8.86014 19.3905 8.31382 19.3905C8.26966 19.3905 8.26966 19.3905 8.2246 19.3905C8.19512 19.3905 8.16564 19.3905 8.13526 19.3905C7.65757 19.3904 7.17988 19.3912 6.70218 19.3923C6.2115 19.3934 5.72082 19.3939 5.23014 19.3939C4.95474 19.3939 4.67934 19.3941 4.40393 19.3949C4.1449 19.3957 3.88588 19.3957 3.62685 19.3951C3.5318 19.395 3.43675 19.3952 3.3417 19.3957C3.21189 19.3963 3.08212 19.3959 2.95231 19.3953C2.91475 19.3957 2.87719 19.3961 2.83849 19.3965C2.55879 19.3937 2.35144 19.3289 2.13929 19.143C2.11824 19.1176 2.09719 19.0921 2.0755 19.0659C2.05385 19.0406 2.0322 19.0153 2.00989 18.9892C1.88277 18.8047 1.86397 18.6362 1.86526 18.4167C1.86505 18.3724 1.86505 18.3724 1.86484 18.3272C1.86448 18.2278 1.86467 18.1285 1.86486 18.0292C1.86472 17.9573 1.86454 17.8855 1.86433 17.8137C1.86385 17.6161 1.86386 17.4185 1.86395 17.221C1.86397 17.008 1.86354 16.795 1.86317 16.582C1.86252 16.1646 1.8623 15.7472 1.86226 15.3298C1.86222 14.9905 1.86206 14.6513 1.86181 14.3121C1.86112 13.3507 1.86076 12.3894 1.86082 11.4281C1.86082 11.4021 1.86083 11.3762 1.86083 11.3495C1.86083 11.2971 1.86083 11.2447 1.86084 11.1923C1.86089 10.377 1.8603 9.56166 1.85923 8.74634C1.85803 7.83042 1.85736 6.9145 1.85743 5.99858C1.85746 5.51359 1.85724 5.02859 1.8564 4.5436C1.85569 4.13068 1.85552 3.71777 1.85605 3.30486C1.85631 3.09414 1.85631 2.88343 1.85563 2.67271C1.85502 2.47983 1.85513 2.28695 1.85581 2.09407C1.85593 2.02428 1.85579 1.95448 1.85535 1.88469C1.85128 1.18329 1.85128 1.18329 2.10831 0.889979C2.13374 0.868931 2.15917 0.847883 2.18537 0.826197C2.2107 0.804545 2.23602 0.782893 2.26212 0.760584C2.48026 0.610283 2.68099 0.614735 2.93743 0.615556ZM5.62531 1.876C5.62531 2.08225 5.62531 2.2885 5.62531 2.501C6.45031 2.501 7.27531 2.501 8.12531 2.501C8.12531 2.29475 8.12531 2.0885 8.12531 1.876C7.30031 1.876 6.47531 1.876 5.62531 1.876ZM8.75031 1.876C8.75031 2.08225 8.75031 2.2885 8.75031 2.501C8.95656 2.501 9.16281 2.501 9.37531 2.501C9.37531 2.29475 9.37531 2.0885 9.37531 1.876C9.16906 1.876 8.96281 1.876 8.75031 1.876ZM2.659 3.35061C2.47545 3.63984 2.48909 3.92254 2.49013 4.25607C2.48998 4.3071 2.48983 4.35813 2.48967 4.4107C2.48927 4.55193 2.48936 4.69315 2.48952 4.83437C2.48962 4.98685 2.48927 5.13932 2.48898 5.29179C2.48848 5.59034 2.48841 5.88889 2.4885 6.18744C2.48857 6.43014 2.4885 6.67283 2.48833 6.91553C2.48831 6.95008 2.48829 6.98464 2.48826 7.02024C2.48822 7.09044 2.48817 7.16063 2.48812 7.23083C2.4877 7.88903 2.48778 8.54723 2.48802 9.20543C2.48822 9.80737 2.48778 10.4093 2.48704 11.0112C2.48628 11.6295 2.48596 12.2478 2.48611 12.8661C2.48618 13.2132 2.48608 13.5602 2.48553 13.9072C2.48507 14.2027 2.48501 14.4981 2.48548 14.7936C2.48571 14.9442 2.48576 15.0949 2.48529 15.2456C2.48479 15.4091 2.4852 15.5725 2.48569 15.736C2.4854 15.7834 2.48512 15.8309 2.48482 15.8797C2.48655 16.1503 2.48934 16.4436 2.6673 16.6643C2.90161 16.8798 3.18808 16.8875 3.48801 16.8862C3.52373 16.8863 3.55944 16.8865 3.59624 16.8866C3.7155 16.887 3.83474 16.8869 3.954 16.8867C4.03967 16.8869 4.12535 16.8871 4.21102 16.8873C4.44346 16.8879 4.6759 16.8879 4.90834 16.8878C5.10248 16.8877 5.29663 16.8879 5.49078 16.8881C5.97504 16.8886 6.45931 16.8885 6.94358 16.8883C7.36365 16.8881 7.78372 16.8885 8.20379 16.8893C8.63563 16.89 9.06747 16.8903 9.49931 16.8902C9.74156 16.8901 9.98379 16.8902 10.226 16.8908C10.4539 16.8913 10.6817 16.8912 10.9095 16.8907C10.993 16.8906 11.0765 16.8907 11.16 16.891C11.2743 16.8914 11.3885 16.8911 11.5027 16.8906C11.5355 16.8909 11.5684 16.8912 11.6022 16.8915C11.8799 16.889 12.1304 16.845 12.3416 16.6563C12.4384 16.4978 12.4732 16.3548 12.5003 16.1729C12.4393 16.1565 12.4393 16.1565 12.377 16.1398C11.1506 15.801 10.0615 15.1051 9.40711 13.9841C9.30962 13.8062 9.22332 13.6238 9.14094 13.4385C9.11269 13.376 9.11269 13.376 9.08387 13.3123C8.64331 12.259 8.64031 10.9521 9.05549 9.89114C9.17577 9.60874 9.31285 9.33623 9.45344 9.0635C9.11828 9.0635 8.78312 9.0635 8.43781 9.0635C8.43781 9.476 8.43781 9.8885 8.43781 10.3135C8.23156 10.3135 8.02531 10.3135 7.81281 10.3135C7.8155 10.0709 7.81893 9.82824 7.82306 9.58561C7.82436 9.50305 7.82546 9.42049 7.82634 9.33792C7.82765 9.21932 7.82969 9.10076 7.83188 8.98217C7.83213 8.94518 7.83238 8.90819 7.83264 8.87008C7.8338 8.81848 7.8338 8.81848 7.83498 8.76583C7.83563 8.72042 7.83563 8.72042 7.8363 8.6741C7.8564 8.5717 7.88391 8.53735 7.96906 8.47756C8.05493 8.46435 8.05493 8.46435 8.15608 8.46625C8.19404 8.46662 8.23199 8.46698 8.2711 8.46735C8.31212 8.4682 8.35313 8.46906 8.39539 8.46993C8.48242 8.47021 8.56944 8.47041 8.65647 8.47055C8.79356 8.47135 8.93057 8.47267 9.06764 8.47528C9.57935 8.50433 9.57935 8.50433 10.0563 8.36278C10.1427 8.27528 10.2057 8.18881 10.2737 8.08694C10.3658 8.01063 10.3658 8.01063 10.452 7.95022C10.4973 7.91843 10.5422 7.88613 10.5862 7.85256C10.5862 7.83967 10.5862 7.82678 10.5862 7.8135C10.5375 7.81316 10.5375 7.81316 10.4877 7.81281C10.1813 7.81055 9.87496 7.80773 9.5686 7.80429C9.4111 7.80255 9.2536 7.80101 9.09608 7.79997C8.94411 7.79895 8.79215 7.79738 8.64019 7.79541C8.58217 7.79476 8.52416 7.79431 8.46614 7.79406C8.38495 7.79369 8.3038 7.79259 8.22261 7.79133C8.17638 7.7909 8.13015 7.79046 8.08251 7.79001C7.96906 7.77444 7.96906 7.77444 7.89557 7.73164C7.8285 7.61746 7.83696 7.51925 7.83671 7.38763C7.8364 7.34674 7.8364 7.34674 7.83609 7.30502C7.83557 7.2149 7.83591 7.12481 7.83631 7.03469C7.83623 6.97208 7.83612 6.90948 7.83597 6.84687C7.8358 6.71565 7.83605 6.58444 7.8366 6.45322C7.83726 6.28494 7.83688 6.11669 7.83618 5.94842C7.83575 5.81913 7.83589 5.68985 7.83619 5.56057C7.83627 5.49852 7.83617 5.43647 7.8359 5.37442C7.8356 5.28773 7.83606 5.20107 7.83671 5.11437C7.8368 5.06502 7.8369 5.01567 7.83699 4.96483C7.85187 4.84475 7.85187 4.84475 7.89456 4.77025C8.00899 4.70468 8.10755 4.71265 8.23868 4.7124C8.26594 4.7122 8.2932 4.71199 8.32129 4.71178C8.41141 4.71126 8.5015 4.7116 8.59162 4.712C8.65423 4.71192 8.71684 4.71181 8.77945 4.71166C8.91066 4.71149 9.04187 4.71174 9.17309 4.71229C9.34137 4.71295 9.50962 4.71257 9.67789 4.71187C9.80718 4.71144 9.93646 4.71158 10.0657 4.71188C10.1278 4.71196 10.1898 4.71186 10.2519 4.71159C10.3386 4.71129 10.4252 4.71175 10.5119 4.7124C10.5613 4.71249 10.6106 4.71259 10.6615 4.71268C10.7816 4.72756 10.7816 4.72756 10.856 4.77059C10.921 4.88328 10.9145 4.9796 10.9156 5.10906C10.9162 5.14909 10.9162 5.14909 10.9168 5.18993C10.918 5.27807 10.9184 5.36619 10.9187 5.45434C10.9194 5.51548 10.9201 5.57662 10.9209 5.63775C10.9227 5.79862 10.9239 5.95948 10.9249 6.12035C10.9261 6.28453 10.9279 6.44869 10.9296 6.61286C10.933 6.93495 10.9356 7.25703 10.9378 7.57913C10.9798 7.55784 11.0219 7.53656 11.0652 7.51463C11.1213 7.48633 11.1775 7.45803 11.2337 7.42974C11.2613 7.41576 11.2888 7.40177 11.3173 7.38737C11.6328 7.22875 11.9523 7.10236 12.2937 7.01002C12.3324 6.99954 12.3711 6.98905 12.4109 6.97824C12.4404 6.97028 12.4699 6.96233 12.5003 6.95413C12.503 6.54256 12.5051 6.131 12.5064 5.71944C12.507 5.5283 12.5078 5.33718 12.5092 5.14605C12.5104 4.96141 12.5111 4.77677 12.5114 4.59213C12.5116 4.52188 12.5121 4.45163 12.5127 4.38138C12.5407 3.82984 12.5407 3.82984 12.3333 3.33854C12.1009 3.12129 11.8119 3.11448 11.5126 3.11582C11.4769 3.11567 11.4412 3.11552 11.4044 3.11537C11.2851 3.11496 11.1659 3.11512 11.0466 3.11527C10.9609 3.1151 10.8753 3.1149 10.7896 3.11467C10.5572 3.11415 10.3247 3.11412 10.0923 3.11422C9.89814 3.11426 9.70399 3.11407 9.50984 3.11389C9.02558 3.11343 8.54131 3.11346 8.05704 3.11371C7.63697 3.11391 7.2169 3.11347 6.79683 3.11273C6.36499 3.11197 5.93315 3.11166 5.50131 3.1118C5.25906 3.11187 5.01683 3.11177 4.77459 3.11122C4.54675 3.11073 4.31892 3.11081 4.09108 3.11132C4.00758 3.11141 3.92408 3.1113 3.84057 3.11098C3.72635 3.11057 3.61215 3.11089 3.49793 3.11138C3.4651 3.1111 3.43226 3.11081 3.39843 3.11051C3.13481 3.1129 2.84522 3.14596 2.659 3.35061ZM8.75031 5.626C8.75031 6.0385 8.75031 6.451 8.75031 6.876C9.16281 6.876 9.57531 6.876 10.0003 6.876C10.0003 6.4635 10.0003 6.051 10.0003 5.626C9.58781 5.626 9.17531 5.626 8.75031 5.626ZM15.1175 9.72756C15.0635 9.7866 15.0635 9.7866 15.0095 9.8652C14.9878 9.89508 14.9662 9.92496 14.944 9.95575C14.9207 9.98841 14.8974 10.0211 14.8734 10.0547C14.6816 10.3195 14.4867 10.5811 14.285 10.8384C14.1115 11.06 13.9401 11.2827 13.7721 11.5084C13.688 11.6211 13.6027 11.7328 13.5173 11.8444C13.4894 11.8809 13.4615 11.9174 13.4328 11.955C13.377 12.0279 13.3211 12.1007 13.2653 12.1735C13.1345 12.3444 13.0072 12.5152 12.8909 12.6963C12.7642 12.6389 12.6642 12.5669 12.5565 12.479C12.5223 12.4513 12.4882 12.4236 12.453 12.3951C12.3795 12.3348 12.306 12.2743 12.2327 12.2138C12.0397 12.0549 11.8469 11.9007 11.6409 11.7588C11.5249 11.8877 11.4089 12.0166 11.2894 12.1494C11.4322 12.2957 11.5807 12.4318 11.7362 12.5645C11.7715 12.5947 11.7715 12.5947 11.8075 12.6255C12.0202 12.8062 12.2384 12.9794 12.459 13.1504C12.5356 13.2099 12.6116 13.2701 12.6869 13.3312C12.7967 13.4176 12.7967 13.4176 12.93 13.4385C13.1354 13.3465 13.2452 13.1837 13.3768 13.0088C13.4006 12.9777 13.4244 12.9466 13.4489 12.9146C13.6402 12.6635 13.8271 12.4091 14.0135 12.1543C14.196 11.9054 14.3842 11.6613 14.5744 11.4183C14.7588 11.1826 14.9388 10.9441 15.1175 10.7041C15.2029 10.5901 15.2884 10.4762 15.3738 10.3623C15.4146 10.308 15.4553 10.2537 15.4961 10.1994C15.5258 10.1597 15.5556 10.12 15.5862 10.0791C15.4614 9.95303 15.3392 9.83237 15.1956 9.72756C15.1698 9.72756 15.1441 9.72756 15.1175 9.72756ZM6.56281 17.501C6.56281 17.7073 6.56281 17.9135 6.56281 18.126C7.18156 18.126 7.80031 18.126 8.43781 18.126C8.43781 17.9198 8.43781 17.7135 8.43781 17.501C7.81906 17.501 7.20031 17.501 6.56281 17.501Z" fill="#4B5563"></path><path d="M4.49212 8.41917C4.51933 8.4189 4.54653 8.41862 4.57456 8.41834C4.66428 8.41766 4.75396 8.41811 4.84369 8.41864C4.90615 8.41853 4.9686 8.41838 5.03106 8.41818C5.16189 8.41795 5.2927 8.41829 5.42352 8.41902C5.59114 8.41991 5.75872 8.4194 5.92634 8.41846C6.05529 8.4179 6.18423 8.41808 6.31318 8.41848C6.37498 8.41858 6.43678 8.41846 6.49858 8.41809C6.58499 8.4177 6.67134 8.4183 6.75775 8.41917C6.83147 8.41936 6.83147 8.41936 6.90667 8.41955C7.03119 8.43939 7.03119 8.43939 7.12514 8.50169C7.20966 8.62915 7.20727 8.71658 7.20765 8.86908C7.20793 8.89628 7.2082 8.92348 7.20848 8.95151C7.20917 9.04124 7.20872 9.13091 7.20819 9.22064C7.20829 9.2831 7.20844 9.34556 7.20864 9.40802C7.20887 9.53884 7.20854 9.66965 7.20781 9.80047C7.20692 9.96809 7.20743 10.1357 7.20836 10.3033C7.20893 10.4322 7.20875 10.5612 7.20834 10.6901C7.20824 10.7519 7.20837 10.8137 7.20873 10.8755C7.20913 10.9619 7.20852 11.0483 7.20765 11.1347C7.20753 11.1838 7.20741 11.233 7.20728 11.2836C7.18744 11.4081 7.18744 11.4081 7.12514 11.5021C6.99768 11.5866 6.91025 11.5842 6.75775 11.5846C6.73054 11.5849 6.70334 11.5852 6.67531 11.5854C6.58559 11.5861 6.49591 11.5857 6.40619 11.5851C6.34373 11.5852 6.28127 11.5854 6.21881 11.5856C6.08798 11.5858 5.95718 11.5855 5.82635 11.5848C5.65873 11.5839 5.49115 11.5844 5.32354 11.5853C5.19458 11.5859 5.06564 11.5857 4.93669 11.5853C4.87489 11.5852 4.81309 11.5853 4.75129 11.5857C4.66488 11.5861 4.57853 11.5855 4.49212 11.5846C4.44298 11.5845 4.39383 11.5844 4.3432 11.5842C4.21869 11.5644 4.21869 11.5644 4.12474 11.5021C4.04022 11.3746 4.0426 11.2872 4.04222 11.1347C4.04194 11.1075 4.04167 11.0803 4.04139 11.0523C4.0407 10.9625 4.04116 10.8729 4.04168 10.7831C4.04158 10.7207 4.04143 10.6582 4.04123 10.5958C4.041 10.4649 4.04134 10.3341 4.04207 10.2033C4.04296 10.0357 4.04244 9.86811 4.04151 9.70049C4.04094 9.57154 4.04112 9.44259 4.04153 9.31364C4.04163 9.25184 4.0415 9.19004 4.04114 9.12825C4.04074 9.04183 4.04135 8.95548 4.04222 8.86908C4.04234 8.81993 4.04247 8.77079 4.0426 8.72015C4.06244 8.59564 4.06244 8.59564 4.12474 8.50169C4.25219 8.41717 4.33962 8.41956 4.49212 8.41917Z" fill="#4B5563"></path><path d="M4.49212 4.66917C4.51933 4.6689 4.54653 4.66862 4.57456 4.66834C4.66428 4.66766 4.75396 4.66811 4.84369 4.66864C4.90615 4.66853 4.9686 4.66838 5.03106 4.66818C5.16189 4.66795 5.2927 4.66829 5.42352 4.66902C5.59114 4.66991 5.75872 4.6694 5.92634 4.66846C6.05529 4.6679 6.18423 4.66808 6.31318 4.66848C6.37498 4.66858 6.43678 4.66846 6.49858 4.66809C6.58499 4.6677 6.67134 4.6683 6.75775 4.66917C6.83147 4.66936 6.83147 4.66936 6.90667 4.66955C7.03119 4.68939 7.03119 4.68939 7.12514 4.75169C7.20966 4.87915 7.20727 4.96658 7.20765 5.11908C7.20793 5.14628 7.2082 5.17348 7.20848 5.20151C7.20917 5.29124 7.20872 5.38091 7.20819 5.47064C7.20829 5.5331 7.20844 5.59556 7.20864 5.65802C7.20887 5.78884 7.20854 5.91965 7.20781 6.05047C7.20692 6.21809 7.20743 6.38567 7.20836 6.55329C7.20893 6.68224 7.20875 6.81118 7.20834 6.94014C7.20824 7.00194 7.20837 7.06373 7.20873 7.12553C7.20913 7.21194 7.20852 7.29829 7.20765 7.3847C7.20753 7.43385 7.20741 7.48299 7.20728 7.53363C7.18744 7.65814 7.18744 7.65814 7.12514 7.75209C6.99768 7.83661 6.91025 7.83422 6.75775 7.83461C6.73054 7.83488 6.70334 7.83515 6.67531 7.83544C6.58559 7.83612 6.49591 7.83567 6.40619 7.83514C6.34373 7.83525 6.28127 7.8354 6.21881 7.83559C6.08798 7.83582 5.95718 7.83549 5.82635 7.83476C5.65873 7.83387 5.49115 7.83438 5.32354 7.83532C5.19458 7.83588 5.06564 7.8357 4.93669 7.8353C4.87489 7.83519 4.81309 7.83532 4.75129 7.83569C4.66488 7.83608 4.57853 7.83548 4.49212 7.83461C4.44298 7.83448 4.39383 7.83436 4.3432 7.83423C4.21869 7.81439 4.21869 7.81439 4.12474 7.75209C4.04022 7.62463 4.0426 7.5372 4.04222 7.3847C4.04194 7.3575 4.04167 7.33029 4.04139 7.30227C4.0407 7.21254 4.04116 7.12286 4.04168 7.03314C4.04158 6.97068 4.04143 6.90822 4.04123 6.84576C4.041 6.71494 4.04134 6.58413 4.04207 6.45331C4.04296 6.28569 4.04244 6.11811 4.04151 5.95049C4.04094 5.82154 4.04112 5.69259 4.04153 5.56364C4.04163 5.50184 4.0415 5.44004 4.04114 5.37825C4.04074 5.29183 4.04135 5.20548 4.04222 5.11908C4.04234 5.06993 4.04247 5.02079 4.0426 4.97015C4.06244 4.84564 4.06244 4.84564 4.12474 4.75169C4.25219 4.66717 4.33962 4.66956 4.49212 4.66917ZM4.99994 5.62689C4.99994 6.03939 4.99994 6.45189 4.99994 6.87689C5.41244 6.87689 5.82494 6.87689 6.24994 6.87689C6.24994 6.46439 6.24994 6.05189 6.24994 5.62689C5.83744 5.62689 5.42494 5.62689 4.99994 5.62689Z" fill="#4B5563"></path><path d="M3.12455 10.3125C3.3308 10.3125 3.53705 10.3125 3.74955 10.3125C3.74955 10.8281 3.74955 11.3438 3.74955 11.875C4.26517 11.875 4.7808 11.875 5.31205 11.875C5.31205 12.0812 5.31205 12.2875 5.31205 12.5C5.02563 12.5039 4.73923 12.5067 4.45279 12.5086C4.35533 12.5094 4.25788 12.5104 4.16043 12.5118C4.02041 12.5137 3.88042 12.5146 3.74039 12.5153C3.69677 12.5161 3.65314 12.5169 3.6082 12.5177C3.54721 12.5177 3.54721 12.5177 3.485 12.5177C3.44926 12.5181 3.41352 12.5184 3.3767 12.5188C3.24753 12.4935 3.20228 12.4487 3.12455 12.3438C3.10576 12.2478 3.10576 12.2478 3.10681 12.1395C3.10682 12.0989 3.10683 12.0582 3.10684 12.0164C3.10765 11.9727 3.10846 11.9291 3.10929 11.8842C3.10951 11.8393 3.10973 11.7944 3.10996 11.7482C3.11083 11.6049 3.11279 11.4616 3.11478 11.3184C3.11557 11.2212 3.11628 11.1241 3.11692 11.0269C3.11864 10.7888 3.12134 10.5506 3.12455 10.3125Z" fill="#4B5563"></path><path d="M9.6875 3.74926C9.97392 3.7454 10.2603 3.74256 10.5468 3.74068C10.6442 3.73989 10.7417 3.73882 10.8391 3.73747C10.9791 3.73558 11.1191 3.73469 11.2592 3.734C11.3028 3.73319 11.3464 3.73239 11.3914 3.73156C11.432 3.73154 11.4727 3.73153 11.5145 3.73152C11.5503 3.73117 11.586 3.73083 11.6228 3.73047C11.752 3.75578 11.7973 3.80052 11.875 3.90551C11.8938 4.00141 11.8938 4.00141 11.8927 4.10971C11.8927 4.15036 11.8927 4.19102 11.8927 4.23291C11.8919 4.27653 11.8911 4.32016 11.8903 4.3651C11.89 4.40997 11.8898 4.45483 11.8896 4.50106C11.8887 4.64435 11.8868 4.78761 11.8848 4.9309C11.884 5.02805 11.8833 5.12519 11.8826 5.22234C11.8809 5.4605 11.8782 5.69862 11.875 5.93676C11.6688 5.93676 11.4625 5.93676 11.25 5.93676C11.25 5.42113 11.25 4.90551 11.25 4.37426C10.7344 4.37426 10.2188 4.37426 9.6875 4.37426C9.6875 4.16801 9.6875 3.96176 9.6875 3.74926Z" fill="#4B5563"></path><path d="M3.48569 3.73052C3.54667 3.73053 3.54667 3.73053 3.60888 3.73055C3.67432 3.73176 3.67432 3.73176 3.74108 3.733C3.80838 3.73333 3.80838 3.73333 3.87703 3.73367C4.02033 3.73454 4.16359 3.7365 4.30688 3.73849C4.40402 3.73927 4.50117 3.73999 4.59832 3.74062C4.83647 3.74235 5.0746 3.74504 5.31274 3.74825C5.31274 3.9545 5.31274 4.16075 5.31274 4.37325C4.79711 4.37325 4.28149 4.37325 3.75024 4.37325C3.75024 4.88888 3.75024 5.4045 3.75024 5.93575C3.54399 5.93575 3.33774 5.93575 3.12524 5.93575C3.12137 5.64934 3.11854 5.36293 3.11665 5.07649C3.11587 4.97904 3.1148 4.88158 3.11345 4.78414C3.11155 4.64412 3.11067 4.50413 3.10998 4.3641C3.10917 4.32047 3.10836 4.27685 3.10753 4.2319C3.10752 4.19125 3.10751 4.15059 3.1075 4.10871C3.10715 4.07297 3.1068 4.03723 3.10645 4.00041C3.14819 3.78733 3.28339 3.72855 3.48569 3.73052Z" fill="#4B5563"></path><path d="M7.8125 10.9375C8.01875 10.9375 8.225 10.9375 8.4375 10.9375C8.4375 11.1438 8.4375 11.35 8.4375 11.5625C8.23125 11.5625 8.025 11.5625 7.8125 11.5625C7.8125 11.3562 7.8125 11.15 7.8125 10.9375Z" fill="#4B5563"></path><path d="M9.0625 5.9375C9.26875 5.9375 9.475 5.9375 9.6875 5.9375C9.6875 6.14375 9.6875 6.35 9.6875 6.5625C9.48125 6.5625 9.275 6.5625 9.0625 6.5625C9.0625 6.35625 9.0625 6.15 9.0625 5.9375Z" fill="#4B5563"></path><path d="M5.3125 5.9375C5.51875 5.9375 5.725 5.9375 5.9375 5.9375C5.9375 6.14375 5.9375 6.35 5.9375 6.5625C5.73125 6.5625 5.525 6.5625 5.3125 6.5625C5.3125 6.35625 5.3125 6.15 5.3125 5.9375Z" fill="#4B5563"></path></svg>