<svg xmlns="http://www.w3.org/2000/svg" width="40" height="40" viewBox="0 0 40 40" fill="none"><path d="M32.038 15.1298L20.2486 5.08124C20.186 5.0287 20.1077 5 20.0269 5C19.9461 5 19.8678 5.0287 19.8052 5.08124L8.01574 15.1298C7.77919 15.3319 7.92436 15.7144 8.23762 15.7144H31.8169C32.1302 15.7144 32.2749 15.3319 32.038 15.1298Z" fill="#3C83F6"></path><path d="M10.0078 15.7148H14.2266V17.8577H10.0078V15.7148Z" fill="#2463EB"></path><path d="M15.2812 15.7144H19.5V17.8572H15.2812V15.7144Z" fill="#2463EB"></path><path d="M20.5547 15.7148H24.7734V17.8577H20.5547V15.7148Z" fill="#2463EB"></path><path d="M25.8281 15.7144H30.0469V17.8572H25.8281V15.7144Z" fill="#2463EB"></path><path d="M10.0078 29.6431H14.2266V30.7145H10.0078V29.6431Z" fill="#2463EB"></path><path d="M15.2812 29.6431H19.5V30.7145H15.2812V29.6431Z" fill="#2463EB"></path><path d="M20.5547 29.6431H24.7734V30.7145H20.5547V29.6431Z" fill="#2463EB"></path><path d="M25.8281 29.6431H30.0469V30.7145H25.8281V29.6431Z" fill="#2463EB"></path><path d="M11.0625 17.8574H13.1719V29.6433H11.0625V17.8574Z" fill="#E5E7EB"></path><path d="M16.3359 17.8574H18.4453V29.6433H16.3359V17.8574Z" fill="#E5E7EB"></path><path d="M21.6094 17.8574H23.7188V29.6433H21.6094V17.8574Z" fill="#E5E7EB"></path><path d="M26.8828 17.8574H28.9922V29.6433H26.8828V17.8574Z" fill="#E5E7EB"></path><path d="M7.23617 32.8574H31.7638C31.8679 32.8574 31.9677 32.9099 32.0413 33.0034C32.1149 33.0968 32.1562 33.2236 32.1562 33.3558V35.0003H6.84375V33.3558C6.84375 33.2236 6.8851 33.0968 6.95869 33.0034C7.03228 32.9099 7.1321 32.8574 7.23617 32.8574Z" fill="#D1D5DB"></path><path d="M8.29519 30.7148H30.7048C30.81 30.7148 30.9109 30.7673 30.9854 30.8608C31.0598 30.9543 31.1016 31.081 31.1016 31.2132V32.8577H7.89844V31.2132C7.89844 31.081 7.94024 30.9543 8.01464 30.8608C8.08905 30.7673 8.18997 30.7148 8.29519 30.7148Z" fill="#E5E7EB"></path><path d="M22.7597 11.8662C23.2894 10.3332 22.4954 8.65421 20.9864 8.11613C19.4774 7.57805 17.8247 8.38459 17.295 9.9176C16.7653 11.4506 17.5593 13.1296 19.0683 13.6676C20.5773 14.2057 22.23 13.3992 22.7597 11.8662Z" fill="#FCD44F"></path><path d="M20.022 13.4634C18.6286 13.4634 17.4746 12.3132 17.4746 10.8755C17.4746 9.45989 18.6068 8.2876 20.022 8.2876C21.4155 8.2876 22.5694 9.43777 22.5694 10.8755C22.5694 12.3132 21.4155 13.4634 20.022 13.4634Z" fill="#F59F0A"></path><path d="M20.021 13.1093C18.8235 13.1093 17.8438 12.1139 17.8438 10.8974C17.8438 9.68089 18.8235 8.68555 20.021 8.68555C21.2185 8.68555 22.1983 9.68089 22.1983 10.8974C22.1983 12.1139 21.2185 13.1093 20.021 13.1093Z" fill="#FCD44F"></path><path d="M20.7411 11.2946C20.7411 11.3831 20.7193 11.4715 20.6976 11.56C20.654 11.6264 20.6105 11.6927 20.5452 11.7591C20.4798 11.8254 20.4145 11.8697 20.3274 11.8918C20.2403 11.936 20.1532 11.936 20.0444 11.9581L20.0008 12.312V12.3342L19.9791 12.3563C19.9791 12.3563 19.9573 12.3563 19.9355 12.3563C19.9137 12.3563 19.892 12.3563 19.8702 12.3563C19.8267 12.3563 19.8049 12.3563 19.7831 12.3563C19.7613 12.3563 19.7396 12.3563 19.7396 12.3342C19.7178 12.3342 19.7178 12.312 19.7178 12.312C19.7178 12.312 19.7178 12.2899 19.7178 12.2678L19.7613 11.936C19.7178 11.936 19.6742 11.9139 19.6307 11.9139C19.5872 11.9139 19.5436 11.8918 19.5218 11.8697C19.4783 11.8476 19.4565 11.8476 19.4347 11.8254C19.413 11.8033 19.3912 11.8033 19.3694 11.7812C19.3477 11.7591 19.3477 11.7591 19.3477 11.7148C19.3477 11.6927 19.3477 11.6485 19.3477 11.6042C19.3477 11.56 19.3477 11.5379 19.3477 11.5158C19.3477 11.4937 19.3477 11.4715 19.3694 11.4494C19.3694 11.4273 19.3912 11.4273 19.3912 11.4273H19.413C19.4347 11.4273 19.4565 11.4273 19.4783 11.4494C19.5001 11.4715 19.5436 11.4937 19.5872 11.4937C19.6307 11.4937 19.6742 11.5379 19.7396 11.5379C19.8049 11.56 19.8702 11.56 19.9573 11.56C20.0879 11.56 20.175 11.5379 20.2403 11.4937C20.3057 11.4494 20.3274 11.3831 20.3274 11.2946C20.3274 11.2503 20.3057 11.2061 20.2839 11.1619C20.2621 11.1176 20.2186 11.0955 20.175 11.0734C20.1315 11.0513 20.0879 11.0292 20.0226 11.007C19.9573 10.9849 19.9137 10.9628 19.8484 10.9407C19.7831 10.9186 19.7396 10.8964 19.6742 10.8522C19.6089 10.8301 19.5654 10.7859 19.5218 10.7416C19.4783 10.6974 19.4347 10.631 19.413 10.5647C19.3912 10.4983 19.3694 10.432 19.3694 10.3214C19.3694 10.2329 19.3912 10.1665 19.413 10.1002C19.4347 10.0338 19.4783 9.96747 19.5218 9.92323C19.5654 9.87899 19.6307 9.83475 19.7178 9.79052C19.8049 9.74628 19.8702 9.74628 19.9791 9.72416L20.0226 9.39238V9.37026L20.0444 9.34814C20.0444 9.34814 20.0662 9.34814 20.0879 9.34814C20.1097 9.34814 20.1315 9.34814 20.1532 9.34814C20.1968 9.34814 20.2186 9.34814 20.2403 9.34814C20.2621 9.34814 20.2839 9.34814 20.2839 9.37026C20.3057 9.37026 20.3057 9.39238 20.3057 9.39238C20.3057 9.39238 20.3057 9.4145 20.3057 9.43662L20.2621 9.74628C20.2839 9.74628 20.3274 9.74628 20.3492 9.7684C20.3927 9.7684 20.4145 9.79052 20.4363 9.79052C20.4581 9.79052 20.5016 9.81264 20.5234 9.83476C20.5452 9.85687 20.5669 9.85687 20.5669 9.85687L20.5887 9.87899C20.5887 9.87899 20.5887 9.90111 20.6105 9.92323C20.6105 9.94535 20.6105 9.94535 20.6105 9.96747C20.6105 9.98959 20.6105 10.0117 20.6105 10.0338C20.6105 10.0781 20.6105 10.1002 20.6105 10.1223C20.6105 10.1444 20.6105 10.1665 20.6105 10.1665C20.6105 10.1665 20.6105 10.1887 20.5887 10.1887H20.5669C20.5452 10.1887 20.5234 10.1887 20.5016 10.1665C20.4798 10.1444 20.4363 10.1444 20.3928 10.1223C20.3492 10.1002 20.3057 10.1002 20.2621 10.0781C20.2186 10.1223 20.1532 10.1223 20.0879 10.1223C20.0226 10.1223 19.9791 10.1223 19.9355 10.1444C19.892 10.1665 19.8702 10.1665 19.8267 10.1887C19.8049 10.2108 19.7831 10.2329 19.7613 10.255C19.7396 10.2771 19.7396 10.3214 19.7396 10.3435C19.7396 10.3877 19.7613 10.432 19.7831 10.4762C19.8049 10.5204 19.8484 10.5426 19.892 10.5647C19.9355 10.5868 19.9791 10.6089 20.0444 10.631C20.1097 10.6531 20.1532 10.6753 20.2186 10.6974C20.2839 10.7195 20.3274 10.7416 20.3928 10.7859C20.4581 10.808 20.5016 10.8522 20.5452 10.8965C20.5887 10.9407 20.6323 11.007 20.654 11.0513C20.7193 11.1398 20.7411 11.2061 20.7411 11.2946Z" fill="#F59F0A"></path></svg>