<svg xmlns="http://www.w3.org/2000/svg" width="20" height="20" viewBox="0 0 20 20" fill="none"><path d="M15.8333 3.33329H15V1.66663H13.3333V3.33329H6.66667V1.66663H5V3.33329H4.16667C3.24167 3.33329 2.50833 4.08329 2.50833 4.99996L2.5 16.6666C2.5 17.5833 3.24167 18.3333 4.16667 18.3333H15.8333C16.75 18.3333 17.5 17.5833 17.5 16.6666V4.99996C17.5 4.08329 16.75 3.33329 15.8333 3.33329ZM15.8333 16.6666H4.16667V8.33329H15.8333V16.6666ZM15.8333 6.66663H4.16667V4.99996H15.8333V6.66663ZM7.5 11.6666H5.83333V9.99996H7.5V11.6666ZM10.8333 11.6666H9.16667V9.99996H10.8333V11.6666ZM14.1667 11.6666H12.5V9.99996H14.1667V11.6666ZM7.5 15H5.83333V13.3333H7.5V15ZM10.8333 15H9.16667V13.3333H10.8333V15ZM14.1667 15H12.5V13.3333H14.1667V15Z" fill="#4B5563"></path></svg>