<svg width="41" height="37" viewBox="0 0 41 37" fill="none" xmlns="http://www.w3.org/2000/svg"><g filter="url(#filter0_ddd_26005_87828)"><path fill-rule="evenodd" clip-rule="evenodd" d="M29.5 4H11.5C9.846 4 8.5 5.346 8.5 7V34H10.803L13.5 32.202L16.428 34.154L20.5 32.118L24.572 34.154L27.5 32.202L30.197 34H32.5V7C32.5 5.346 31.154 4 29.5 4ZM22.8966 17.6656C23.4842 17.6656 23.9605 18.1419 23.9605 18.7294C23.9605 19.3169 23.4842 19.7932 22.8966 19.7932C22.3091 19.7932 21.8328 19.3169 21.8328 18.7294C21.8328 18.1419 22.3091 17.6656 22.8966 17.6656ZM27.4356 24.3323C26.8481 24.3323 26.3718 23.856 26.3718 23.2685C26.3718 22.681 26.8481 22.2047 27.4356 22.2047C28.0231 22.2047 28.4995 22.681 28.4995 23.2685C28.4995 23.856 28.0231 24.3323 27.4356 24.3323ZM22.8966 24.3321C23.1689 24.3321 23.4412 24.2283 23.6488 24.0206L25.9183 21.7511L28.1878 19.4817C28.6034 19.0662 28.6034 18.3926 28.1879 17.9772C27.7724 17.5618 27.0988 17.5618 26.6834 17.9772L22.1444 22.5162C21.729 22.9316 21.729 23.6051 22.1444 24.0206C22.3521 24.2283 22.6244 24.3321 22.8966 24.3321ZM13.5 12.3344C12.9477 12.3344 12.5 12.7821 12.5 13.3344C12.5 13.8867 12.9477 14.3344 13.5 14.3344H27.5C28.0523 14.3344 28.5 13.8867 28.5 13.3344C28.5 12.7821 28.0523 12.3344 27.5 12.3344H13.5ZM13.5 17.6656C12.9477 17.6656 12.5 18.1133 12.5 18.6656C12.5 19.2179 12.9477 19.6656 13.5 19.6656H19.5C20.0523 19.6656 20.5 19.2179 20.5 18.6656C20.5 18.1133 20.0523 17.6656 19.5 17.6656H13.5ZM12.5 24C12.5 23.4477 12.9477 23 13.5 23H19.5C20.0523 23 20.5 23.4477 20.5 24C20.5 24.5523 20.0523 25 19.5 25H13.5C12.9477 25 12.5 24.5523 12.5 24Z" fill="white"></path></g><defs><filter id="filter0_ddd_26005_87828" x="-3.5" y="-1" width="48" height="48" filterUnits="userSpaceOnUse" color-interpolation-filters="sRGB"><feFlood flood-opacity="0" result="BackgroundImageFix"></feFlood><feColorMatrix in="SourceAlpha" type="matrix" values="0 0 0 0 0 0 0 0 0 0 0 0 0 0 0 0 0 0 127 0" result="hardAlpha"></feColorMatrix><feOffset dy="4"></feOffset><feGaussianBlur stdDeviation="4"></feGaussianBlur><feComposite in2="hardAlpha" operator="out"></feComposite><feColorMatrix type="matrix" values="0 0 0 0 0 0 0 0 0 0 0 0 0 0 0 0 0 0 0.08 0"></feColorMatrix><feBlend mode="normal" in2="BackgroundImageFix" result="effect1_dropShadow_26005_87828"></feBlend><feColorMatrix in="SourceAlpha" type="matrix" values="0 0 0 0 0 0 0 0 0 0 0 0 0 0 0 0 0 0 127 0" result="hardAlpha"></feColorMatrix><feOffset dy="0.5"></feOffset><feGaussianBlur stdDeviation="0.5"></feGaussianBlur><feColorMatrix type="matrix" values="0 0 0 0 0 0 0 0 0 0 0 0 0 0 0 0 0 0 0.04 0"></feColorMatrix><feBlend mode="normal" in2="effect1_dropShadow_26005_87828" result="effect2_dropShadow_26005_87828"></feBlend><feColorMatrix in="SourceAlpha" type="matrix" values="0 0 0 0 0 0 0 0 0 0 0 0 0 0 0 0 0 0 127 0" result="hardAlpha"></feColorMatrix><feOffset dy="-1"></feOffset><feGaussianBlur stdDeviation="1"></feGaussianBlur><feComposite in2="hardAlpha" operator="out"></feComposite><feColorMatrix type="matrix" values="0 0 0 0 0 0 0 0 0 0 0 0 0 0 0 0 0 0 0.04 0"></feColorMatrix><feBlend mode="normal" in2="effect2_dropShadow_26005_87828" result="effect3_dropShadow_26005_87828"></feBlend><feBlend mode="normal" in="SourceGraphic" in2="effect3_dropShadow_26005_87828" result="shape"></feBlend></filter></defs></svg>