<svg width="90" height="57" viewBox="0 0 90 57" fill="none" xmlns="http://www.w3.org/2000/svg"><path d="M45 57C69.8528 57 90 52.5228 90 47C90 41.4772 69.8528 37 45 37C20.1472 37 0 41.4772 0 47C0 52.5228 20.1472 57 45 57Z" fill="#E0E7FF"></path><path d="M77.3438 18.7395L63.0759 2.74893C62.3911 1.65898 61.3913 1 60.338 1H29.662C28.6088 1 27.6089 1.65898 26.9241 2.74754L12.6562 18.7409V31.5854H77.3438V18.7395Z" fill="#E0E7FF" stroke="#2962FF"></path><path d="M58.5183 23.1471C58.5183 20.9157 59.9161 19.0737 61.65 19.0723H77.3438V44.2871C77.3438 47.2386 75.4875 49.6576 73.1953 49.6576H16.8047C14.5125 49.6576 12.6562 47.2372 12.6562 44.2871V19.0723H28.35C30.0839 19.0723 31.4817 20.9116 31.4817 23.1429V23.1735C31.4817 25.4048 32.895 27.2066 34.6275 27.2066H55.3725C57.105 27.2066 58.5183 25.3881 58.5183 23.1568V23.1471Z" fill="white" stroke="#2962FF"></path></svg>