<svg xmlns="http://www.w3.org/2000/svg" width="40" height="40" viewBox="0 0 40 40" fill="none"><path d="M35.3176 30.6139C35.3177 30.3123 35.3173 30.0107 35.3167 29.7092V29.707C35.3149 28.5751 35.3111 27.4432 35.3183 26.3115C35.3327 24.0873 35.3625 21.8633 35.3759 19.6391L35.3767 19.5113L35.3774 19.3865C35.3802 18.8827 35.3473 18.3777 35.3035 17.8738C35.2706 17.4948 35.1255 17.3942 34.5508 17.3293C34.298 17.3008 34.0425 17.2759 33.7868 17.2592C33.635 17.2491 33.483 17.2424 33.3309 17.2389H33.3296C33.1715 17.2355 33.0135 17.2322 32.8554 17.2291L32.7668 17.2273C32.6127 17.2243 32.4587 17.2214 32.3046 17.2186L32.2358 17.2174C30.8928 17.193 29.5497 17.1751 28.2068 17.1455C26.0186 17.0975 23.8307 17.0352 21.6425 16.9841C20.1835 16.95 18.7243 16.9228 17.2652 16.8961C16.7674 16.887 16.2693 16.8975 15.7719 16.8834C14.7225 16.8536 13.6733 16.8155 12.6243 16.7772C11.7531 16.7454 10.8825 16.6991 10.0111 16.6766C9.88039 16.6733 9.74965 16.6701 9.61891 16.6671H9.61868C9.42087 16.6625 9.22306 16.6583 9.02516 16.6548L9.00155 16.6543C8.90807 16.6526 8.81467 16.6511 8.72119 16.6497L8.68854 16.6492C8.5943 16.6479 8.49999 16.6466 8.40575 16.6455L8.39406 16.6454C8.30167 16.6443 8.20928 16.6434 8.11689 16.6428L8.09054 16.6425C8.00048 16.6419 7.91042 16.6414 7.82036 16.6411L7.77252 16.6409C7.6839 16.6407 7.59536 16.6406 7.50674 16.6406L7.46399 16.6407C7.3715 16.6409 7.27908 16.6412 7.18667 16.6418C7.01224 16.6428 6.83743 16.6592 6.66377 16.6823C6.4901 16.7055 6.31765 16.7356 6.14785 16.7643C6.03896 16.7828 5.94632 16.8111 5.87091 16.8493C5.86408 16.8528 5.85732 16.8564 5.85079 16.86C5.81363 16.8804 5.77916 16.9054 5.7482 16.9344C5.7293 16.9524 5.7123 16.9723 5.69747 16.9937C5.68663 17.0095 5.67708 17.0262 5.66892 17.0435C5.64942 17.0855 5.63776 17.1307 5.63452 17.1768C5.63073 17.2244 5.6263 17.2719 5.62123 17.3193C5.61113 17.4142 5.59883 17.5091 5.5863 17.6038C5.58 17.6512 5.5737 17.6986 5.56755 17.7461C5.5614 17.7934 5.5554 17.8408 5.54978 17.8883C5.533 18.0305 5.51986 18.1728 5.51682 18.3154C5.51549 18.3782 5.51435 18.441 5.5134 18.5037L5.5128 18.55C5.51211 18.5988 5.51143 18.6477 5.51097 18.6965L5.51059 18.7373C5.51006 18.7899 5.50968 18.8425 5.50938 18.8952L5.50923 18.919C5.50505 19.6478 5.51599 20.377 5.50072 21.1056C5.45281 23.3959 5.39806 25.686 5.34391 27.9761V27.9776C5.32759 28.667 5.31134 29.3564 5.29539 30.0458C5.29425 30.0948 5.29516 30.1408 5.29843 30.1837C5.29949 30.198 5.30086 30.212 5.30253 30.2257C5.30739 30.2667 5.31475 30.3048 5.32485 30.3403C5.33495 30.3757 5.34779 30.4085 5.36373 30.4388C5.37691 30.4639 5.39242 30.4876 5.41005 30.5098C5.43481 30.5406 5.46405 30.5684 5.49822 30.5934C5.51287 30.6041 5.52844 30.6143 5.54499 30.6241C5.56155 30.6338 5.57901 30.6431 5.59747 30.6519C5.63016 30.6675 5.66379 30.681 5.69816 30.6924C5.85109 30.7443 6.05544 30.7765 6.32387 30.7985C6.35038 30.8007 6.37703 30.8019 6.40368 30.8028C6.43041 30.8038 6.45714 30.8044 6.4838 30.8054L6.48737 30.8055L6.79126 30.8169L6.89712 30.8209L7.09759 30.8285L7.22714 30.8336L7.35995 30.8387C7.97511 30.8626 8.5902 30.8872 9.20536 30.9094H9.20551C9.66766 30.9261 10.1298 30.9414 10.592 30.954C13.67 31.0379 16.7484 31.1102 19.8267 31.1872L19.8268 31.1835C20.9123 31.2107 21.9979 31.2471 23.0834 31.2631C26.1973 31.309 29.3112 31.3499 32.4252 31.3857C32.6785 31.3887 32.9318 31.3893 33.1851 31.3877C33.6073 31.3852 34.0293 31.3769 34.4504 31.3645C34.4616 31.3642 34.4727 31.3637 34.4837 31.3633L34.4921 31.3629L34.5222 31.3615L34.5247 31.3613C34.5377 31.3606 34.5507 31.3597 34.5637 31.3588C34.5732 31.3581 34.5825 31.3574 34.5918 31.3566L34.595 31.3564C34.6053 31.3555 34.6155 31.3546 34.6256 31.3535L34.631 31.353L34.6583 31.3499L34.6612 31.3496L34.691 31.3458L34.6939 31.3455L34.7213 31.3414L34.7235 31.3411C34.7332 31.3396 34.743 31.3379 34.7525 31.3363L34.7529 31.3362C34.7623 31.3345 34.7716 31.3328 34.7808 31.3309L34.7822 31.3306C34.8008 31.3269 34.819 31.3228 34.8365 31.3185L34.8372 31.3183C34.8549 31.3139 34.8721 31.3092 34.8886 31.3041L34.8888 31.3041C35.1362 31.2287 35.2604 31.0819 35.3045 30.8488C35.3188 30.7714 35.3176 30.6923 35.3176 30.6139Z" fill="#16A249"></path><path d="M31.1732 29.0443C31.3513 28.723 31.59 28.4588 31.8938 28.2522C32.195 28.0474 32.5261 27.9151 32.8867 27.8778C33.1301 27.8526 33.3775 27.8531 33.6225 27.8616C33.6721 27.8634 33.7211 27.8674 33.7696 27.8734C33.7672 27.2307 33.7656 26.588 33.7688 25.9454C33.777 24.2687 33.7968 22.5922 33.8064 20.9156C33.6141 20.9148 33.4221 20.9014 33.2317 20.8646C32.7883 20.779 32.4103 20.5682 32.0761 20.2681C31.7247 19.9526 31.4607 19.5786 31.3089 19.1317C31.2278 18.8929 31.1826 18.6568 31.1742 18.4236C29.9133 18.3996 28.6522 18.3819 27.3914 18.3539C25.4338 18.3105 23.4764 18.2553 21.5189 18.2093C20.2136 18.1786 18.9083 18.1537 17.6029 18.1291C17.1576 18.1207 16.712 18.1286 16.267 18.1161C15.3282 18.0897 14.3895 18.0563 13.451 18.0229C12.6717 17.9952 11.8927 17.9554 11.1132 17.9354C10.6269 17.9228 10.1403 17.9127 9.65382 17.9067C9.64148 18.0386 9.61773 18.1691 9.58282 18.2968C9.54341 18.4419 9.49291 18.5841 9.4475 18.7276C9.26184 19.1204 9.04519 19.4887 8.70985 19.7733C8.37733 20.0555 7.9943 20.2209 7.5566 20.2429C7.40093 20.2507 7.24519 20.2541 7.08982 20.2475C7.09134 20.6951 7.09499 21.1426 7.0858 21.59C7.04737 23.4581 7.00295 25.3261 6.95898 27.1941C6.99141 27.1949 7.02376 27.1958 7.05611 27.197C7.38567 27.2084 7.69124 27.3198 7.98458 27.4645C8.09325 27.5181 8.19926 27.5773 8.30655 27.6336C8.49693 27.7335 8.66877 27.8578 8.80553 28.0251C8.85709 28.0882 8.90562 28.1555 8.94434 28.227C9.04724 28.4169 9.16448 28.6025 9.2389 28.8036C9.34135 29.0783 9.38339 29.3718 9.36215 29.6642C10.127 29.6933 10.8918 29.7216 11.6569 29.7424C14.4106 29.817 17.1645 29.8819 19.9184 29.9508L19.9185 29.9478C20.8896 29.9721 21.8608 30.0041 22.8319 30.0191C25.5138 30.0608 28.1958 30.0982 30.8776 30.1323C30.8801 29.7618 30.9769 29.3987 31.1732 29.0443Z" fill="#157F3C"></path><path d="M12.5122 24.2896C12.4189 24.4869 12.3101 24.672 12.1416 24.815C11.9745 24.9567 11.7821 25.0398 11.5622 25.0509C11.4125 25.0584 11.2626 25.058 11.1145 25.0293C10.8917 24.9864 10.7018 24.8804 10.534 24.7297C10.3575 24.5712 10.2249 24.3833 10.1486 24.1588C10.0374 23.8317 10.0598 23.5143 10.2287 23.2097C10.316 23.0501 10.4401 22.9137 10.5907 22.8117C10.7419 22.7088 10.9083 22.6424 11.0894 22.6236C11.2117 22.6109 11.336 22.6111 11.4591 22.6155C11.6246 22.6212 11.7782 22.6772 11.9256 22.7499C11.9802 22.7768 12.0334 22.8065 12.0873 22.8348C12.183 22.885 12.2692 22.9475 12.338 23.0315C12.3639 23.0632 12.3882 23.0971 12.4077 23.133C12.4594 23.2284 12.5182 23.3216 12.5557 23.4226C12.6344 23.635 12.6396 23.8542 12.5801 24.0734C12.5604 24.1461 12.535 24.2175 12.5122 24.2896ZM30.6755 24.744C30.5823 24.9413 30.4734 25.1263 30.3049 25.2693C30.1379 25.4111 29.9455 25.4941 29.7255 25.5052C29.5759 25.5128 29.4259 25.5123 29.2777 25.4837C29.055 25.4407 28.8651 25.3348 28.6973 25.184C28.5207 25.0255 28.3881 24.8377 28.3118 24.6131C28.2007 24.286 28.2231 23.9687 28.3919 23.664C28.4793 23.5045 28.6034 23.368 28.7539 23.266C28.9052 23.1631 29.0716 23.0967 29.2527 23.0779C29.3749 23.0652 29.4993 23.0655 29.6223 23.0698C29.7879 23.0756 29.9414 23.1315 30.0888 23.2042C30.1434 23.2312 30.1966 23.2609 30.2506 23.2892C30.3462 23.3394 30.4325 23.4018 30.5012 23.4859C30.5271 23.5175 30.5515 23.5514 30.5709 23.5873C30.6227 23.6827 30.6815 23.7759 30.7189 23.8769C30.7976 24.0893 30.8029 24.3085 30.7434 24.5277C30.7237 24.6004 30.6984 24.6718 30.6755 24.744Z" fill="#16A249"></path><path d="M25.0617 25.9374C24.7256 26.7445 24.1848 27.4701 23.4606 28.007C21.7035 29.3096 19.1372 29.311 17.3971 27.9756C17.347 27.937 17.2976 27.8975 17.2489 27.8572C14.6895 25.7301 14.7143 21.3587 17.8029 19.7313C19.8075 18.6751 22.6237 19.0453 24.2045 20.698C25.5632 22.1187 25.7794 24.2137 25.0617 25.9374Z" fill="#16A249"></path><path d="M20.7927 27.0113C20.7884 27.182 20.7846 27.3739 20.7785 27.5656C20.7734 27.7229 20.7525 27.7486 20.5924 27.7444C20.378 27.7389 20.1637 27.7243 19.9498 27.7083C19.8226 27.6988 19.7905 27.6598 19.792 27.527C19.7939 27.3517 19.8002 27.1763 19.8047 26.9914C19.7302 26.9712 19.6684 26.9529 19.6058 26.938C19.1116 26.8196 18.7506 26.527 18.4968 26.0931C18.3862 25.904 18.3539 25.6899 18.3039 25.4822C18.2786 25.3771 18.3218 25.3178 18.4289 25.2845C18.4813 25.2681 18.5358 25.2598 18.5907 25.2601C18.7997 25.263 19.0086 25.2721 19.2176 25.2767C19.3149 25.2789 19.3622 25.3296 19.3928 25.4193C19.4388 25.554 19.491 25.6876 19.5531 25.8156C19.667 26.0506 19.8771 26.1555 20.1216 26.1889C20.3943 26.2263 20.6706 26.1939 20.9106 26.0675C21.4847 25.7654 21.5554 25.2047 21.1203 24.7431C20.9335 24.545 20.679 24.4395 20.4271 24.3392C19.9725 24.1581 19.514 23.9825 19.1051 23.708C18.9548 23.6067 18.8164 23.4887 18.6926 23.3564C18.4129 23.0572 18.3526 22.6967 18.4612 22.3109C18.6345 21.6952 19.0417 21.316 19.6611 21.1632C19.7409 21.1436 19.822 21.1295 19.9197 21.1093C19.9249 21.0254 19.9316 20.9398 19.935 20.8539C19.9391 20.7495 19.9395 20.6449 19.9432 20.5405C19.9473 20.4253 19.9768 20.3806 20.0836 20.3789C20.3142 20.3752 20.5449 20.3828 20.7756 20.3887C20.8668 20.391 20.9161 20.4496 20.9287 20.5339C20.9423 20.6261 20.9505 20.7196 20.9529 20.8128C20.9555 20.9166 20.9489 21.0206 20.9461 21.1304C21.0246 21.1553 21.0858 21.1755 21.1475 21.194C21.8792 21.4137 22.1644 21.9552 22.3494 22.6423C22.3772 22.7456 22.3342 22.8127 22.2301 22.8429C22.1733 22.8594 22.111 22.8654 22.0515 22.8638C21.9086 22.8599 21.7659 22.8455 21.6229 22.8414C21.5049 22.838 21.434 22.7913 21.3894 22.6746C21.3469 22.5637 21.2774 22.4617 21.2109 22.3616C20.9004 21.894 20.1168 21.9467 19.78 22.3136C19.6131 22.4953 19.5971 22.7688 19.7504 22.9643C19.8524 23.0956 19.9896 23.1953 20.1461 23.2517C20.3214 23.3154 20.5013 23.3665 20.6781 23.4263C20.9174 23.5073 21.1603 23.5801 21.3935 23.6764C22.0659 23.9541 22.5345 24.6588 22.4955 25.3484C22.4782 25.6525 22.3879 25.9327 22.2014 26.1751C22.0108 26.4228 21.7785 26.6238 21.4866 26.7445C21.2694 26.8342 21.0476 26.9137 20.7927 27.0113Z" fill="white"></path><path d="M35.3048 25.0467C35.0183 21.932 35.6117 20.7327 35.0685 17.7231C35.0033 17.4553 34.2847 17.2254 33.7001 17.237C33.2898 17.2451 32.8735 17.2607 32.4633 17.2954C24.4841 17.9719 16.5076 18.6881 8.52191 19.2785C7.52995 19.3757 5.44261 17.4919 5.24282 16.5367C4.51869 13.0753 4.55043 19.7029 4.52734 20.8715C4.79722 23.1757 4.9696 25.4892 5.16658 27.8005C5.20827 28.2958 5.24996 28.791 5.29195 29.2862C5.29392 29.4934 5.43866 29.6563 5.64741 29.6894C6.0072 29.768 6.55341 29.7079 6.97121 29.6792C7.74903 29.6225 8.52692 29.5674 9.30466 29.5096C12.8812 29.2352 16.4552 28.9278 20.0305 28.6368L20.0302 28.6341C23.7801 28.339 27.5243 27.9804 31.2703 27.6426C32.4412 27.5359 33.6145 27.4338 34.7809 27.2883C35.1548 27.2609 35.5092 27.1626 35.3048 25.0467Z" fill="#166434"></path><path d="M35.1525 25.9668C35.1204 25.6669 35.0878 25.3671 35.0551 25.0673L35.0549 25.0651C34.9322 23.9399 34.8075 22.8149 34.6938 21.6889C34.4705 19.4759 34.2626 17.2615 34.0383 15.0486L34.0254 14.9214L34.0128 14.7973C33.9617 14.296 33.8751 13.7975 33.7778 13.3011C33.7045 12.9278 33.5496 12.8433 32.9712 12.8402C32.7167 12.8388 32.4601 12.8414 32.2041 12.8521C32.0519 12.8585 31.8999 12.8677 31.7486 12.8806L31.7474 12.8807C31.5898 12.8941 31.4323 12.9078 31.2749 12.9216L31.1865 12.9293C31.0331 12.9428 30.8796 12.9564 30.7261 12.97L30.6575 12.9761C29.3196 13.0953 27.9822 13.2209 26.6439 13.335C24.463 13.5209 22.281 13.6927 20.0999 13.8756C18.6455 13.9975 17.1918 14.1264 15.7382 14.2556C15.2423 14.2998 14.7482 14.3635 14.2521 14.4026C13.2055 14.4851 12.1583 14.5592 11.1111 14.6332C10.2416 14.6946 9.37096 14.7416 8.50225 14.8123C8.37194 14.823 8.24156 14.8337 8.11125 14.8447H8.11102C7.91381 14.8612 7.71668 14.8782 7.51955 14.8959L7.49601 14.898C7.40291 14.9063 7.30982 14.9148 7.21679 14.9233L7.18429 14.9264C7.09043 14.9351 6.99658 14.9439 6.90272 14.9529L6.8911 14.954C6.79914 14.9628 6.70718 14.9719 6.61522 14.9811L6.58895 14.9836C6.49935 14.9926 6.40974 15.0018 6.32014 15.0111L6.27252 15.016C6.18444 15.0252 6.09635 15.0345 6.00826 15.0441L5.96582 15.0487C5.87393 15.0587 5.78197 15.0689 5.69017 15.0794C5.51688 15.0991 5.34481 15.1339 5.17456 15.1755C5.00438 15.2171 4.83611 15.2654 4.67041 15.3121C4.5641 15.3421 4.47503 15.3802 4.40418 15.4262C4.3978 15.4303 4.39149 15.4346 4.38527 15.439C4.35051 15.4632 4.31893 15.4917 4.29126 15.5238C4.27403 15.5442 4.25937 15.5657 4.24714 15.5882C4.23803 15.6052 4.23029 15.6226 4.22406 15.6408C4.20918 15.6846 4.20242 15.7308 4.20409 15.7771C4.20545 15.8247 4.20606 15.8724 4.20606 15.9201C4.20614 16.0155 4.20409 16.1111 4.20173 16.2067C4.20059 16.2546 4.1993 16.3024 4.19824 16.3501C4.19718 16.3979 4.19627 16.4456 4.19573 16.4934C4.19422 16.6366 4.19642 16.7795 4.20857 16.9216C4.21942 17.0482 4.23103 17.1748 4.24342 17.3012L4.24737 17.3417C4.25246 17.3941 4.2577 17.4465 4.26301 17.4988L4.26544 17.5224C4.33918 18.2475 4.42787 18.9714 4.49052 19.6975C4.6875 21.9797 4.87772 24.2626 5.06847 26.5453L5.06863 26.5468C5.12603 27.234 5.18352 27.9212 5.2413 28.6084C5.24541 28.6573 5.25125 28.7029 5.25907 28.7452C5.26166 28.7594 5.26454 28.7731 5.26758 28.7865C5.27684 28.8268 5.28823 28.8639 5.30205 28.8981C5.31587 28.9323 5.3322 28.9635 5.35126 28.992C5.36072 29.0061 5.37096 29.0197 5.38194 29.0327C5.41568 29.0723 5.45614 29.1057 5.50146 29.1313C5.51718 29.1404 5.53374 29.1489 5.5512 29.1568C5.56867 29.1647 5.58704 29.1721 5.60633 29.1789C5.63207 29.188 5.65941 29.1961 5.68857 29.2033C5.69586 29.2051 5.70323 29.2068 5.71074 29.2085C5.86839 29.2438 6.07494 29.254 6.34421 29.2471C6.37078 29.2464 6.39744 29.2448 6.42409 29.2429C6.45075 29.241 6.4774 29.2388 6.50405 29.2369L6.50762 29.2367C6.60869 29.2296 6.70984 29.2225 6.81099 29.2155L6.91669 29.2082L7.11678 29.1944L7.2461 29.1855L7.37869 29.1765C7.99286 29.1346 8.60704 29.0933 9.22106 29.0497H9.22121C9.68245 29.0169 10.1436 28.9828 10.6045 28.9459C13.6739 28.7007 16.7424 28.4436 19.8113 28.1914L19.811 28.1878C20.8933 28.0989 21.9765 28.0192 23.0575 27.9192C25.6742 27.6771 28.2905 27.4311 30.9063 27.1819L30.9097 27.1816C31.3929 27.1356 31.8759 27.0895 32.359 27.0433C32.6112 27.0191 32.8631 26.9927 33.1148 26.9641C33.5449 26.9149 33.9745 26.8606 34.4033 26.8012L34.4115 26.8L34.4413 26.7953L34.4437 26.7949L34.475 26.7895L34.4821 26.7882L34.5097 26.783L34.5129 26.7824C34.5337 26.7785 34.5544 26.7741 34.5751 26.7692C34.5957 26.7644 34.6163 26.7593 34.6368 26.754L34.6388 26.7534C34.6484 26.7508 34.6579 26.7482 34.6672 26.7454L34.6676 26.7454C34.6768 26.7427 34.6858 26.74 34.6947 26.7372L34.6961 26.7367C34.7142 26.731 34.7319 26.725 34.7489 26.7188L34.7496 26.7186C34.7667 26.7123 34.7832 26.7057 34.7991 26.699L34.7994 26.6989C35.0373 26.5975 35.1451 26.4383 35.164 26.2019C35.1705 26.1232 35.1609 26.0448 35.1525 25.9668Z" fill="#16A249"></path><path d="M30.8638 24.8493C31.0065 24.5107 31.2156 24.2225 31.4956 23.9846C31.7732 23.7489 32.0883 23.5819 32.4429 23.5063C32.6821 23.4553 32.9282 23.4293 33.1728 23.4116C33.2218 23.4081 33.271 23.4068 33.3202 23.4076C33.2491 22.7688 33.179 22.13 33.1134 21.4907C32.9426 19.8227 32.7831 18.1537 32.6137 16.4856C32.4223 16.5053 32.2301 16.5125 32.0368 16.4963C31.5868 16.4586 31.1885 16.2892 30.8242 16.0266C30.4411 15.7505 30.1387 15.4068 29.94 14.9786C29.8338 14.7499 29.7637 14.5201 29.7304 14.2891C28.4741 14.3998 27.2183 14.517 25.9617 14.6238C24.0107 14.7896 22.0587 14.9439 20.1074 15.1072C18.8063 15.2161 17.5058 15.3308 16.2053 15.4457C15.7616 15.485 15.3195 15.5404 14.8756 15.5755C13.9393 15.6495 13.0026 15.7166 12.0658 15.7836C11.2879 15.8393 10.5093 15.883 9.73206 15.9463C9.24707 15.9855 8.76236 16.0279 8.27795 16.0737C8.27974 16.2061 8.27006 16.3384 8.24902 16.4691C8.22533 16.6177 8.19032 16.7644 8.16048 16.9119C8.01779 17.3223 7.84177 17.7117 7.53871 18.0305C7.23823 18.3466 6.8751 18.5519 6.44218 18.6206C6.28826 18.6449 6.13373 18.665 5.97852 18.675C6.0278 19.1198 6.07928 19.5644 6.11793 20.0102C6.27922 21.8718 6.43459 23.7338 6.59041 25.5958C6.62276 25.5931 6.65503 25.5906 6.68731 25.5883C7.01619 25.5645 7.33193 25.6426 7.6391 25.755C7.75292 25.7967 7.86455 25.8442 7.97732 25.8887C8.17726 25.9677 8.3614 26.0729 8.51525 26.2246C8.57327 26.2819 8.6287 26.3436 8.67487 26.4106C8.79743 26.5884 8.93389 26.7604 9.02934 26.9524C9.16053 27.2146 9.23367 27.502 9.24379 27.795C10.0073 27.7422 10.7708 27.6887 11.5337 27.6275C14.2796 27.4076 17.0248 27.1781 19.7702 26.9524L19.77 26.9494C20.7381 26.8698 21.7072 26.7979 22.6744 26.7092C25.3454 26.4642 28.016 26.2148 30.6861 25.9623C30.6489 25.5939 30.7063 25.2226 30.8638 24.8493Z" fill="#157F3C"></path><path d="M11.8009 22.1148C11.7292 22.3209 11.6408 22.5165 11.4885 22.6767C11.3376 22.8355 11.1552 22.9387 10.9377 22.9731C10.7897 22.9966 10.6406 23.0121 10.4902 22.9995C10.2641 22.9805 10.0641 22.8955 9.88105 22.7636C9.68862 22.6248 9.53668 22.4521 9.43682 22.2371C9.2914 21.9237 9.27978 21.6058 9.4151 21.2848C9.48488 21.1169 9.59369 20.968 9.73252 20.8505C9.87194 20.732 10.0303 20.6482 10.2083 20.6102C10.3285 20.5846 10.4522 20.5715 10.575 20.5627C10.7403 20.5508 10.8989 20.5899 11.0532 20.6464C11.1104 20.6674 11.1665 20.6912 11.2231 20.7137C11.3236 20.7533 11.4161 20.8061 11.4934 20.8824C11.5226 20.9112 11.5504 20.9421 11.5736 20.9758C11.6352 21.0651 11.7037 21.1516 11.7517 21.2479C11.8525 21.4507 11.8811 21.6681 11.8454 21.8923C11.8335 21.967 11.8158 22.0406 11.8009 22.1148ZM29.9088 20.6265C29.8371 20.8326 29.7487 21.0283 29.5964 21.1884C29.4455 21.3472 29.2631 21.4504 29.0456 21.4849C28.8976 21.5083 28.7485 21.5238 28.5981 21.5112C28.372 21.4922 28.172 21.4072 27.9889 21.2753C27.7965 21.1365 27.6446 20.9639 27.5447 20.7488C27.3992 20.4354 27.3877 20.1175 27.523 19.7966C27.5928 19.6286 27.7016 19.4797 27.8404 19.3622C27.9798 19.2437 28.1382 19.1599 28.3162 19.1219C28.4364 19.0963 28.5601 19.0832 28.6829 19.0744C28.8482 19.0625 29.0068 19.1017 29.1611 19.1582C29.2183 19.1791 29.2744 19.203 29.331 19.2254C29.4315 19.265 29.524 19.3179 29.6013 19.3941C29.6305 19.4229 29.6583 19.4539 29.6815 19.4875C29.7431 19.5768 29.8116 19.6633 29.8596 19.7597C29.9604 19.9624 29.989 20.1798 29.9534 20.4041C29.9414 20.4786 29.9238 20.5524 29.9088 20.6265Z" fill="#16A249"></path><path d="M24.4546 22.4126C24.2067 23.2509 23.7464 24.0302 23.0838 24.6413C21.4759 26.1242 18.9244 26.3996 17.0516 25.2578C16.9977 25.2247 16.9444 25.1907 16.8916 25.1559C14.1197 23.3144 13.6774 18.9653 16.5745 17.0173C18.4547 15.7531 21.2944 15.8204 23.0427 17.2947C24.5454 18.5621 24.9841 20.6221 24.4546 22.4126Z" fill="#16A249"></path><path d="M20.3244 23.9362C20.3383 24.1064 20.355 24.2976 20.3695 24.4888C20.3813 24.6458 20.3632 24.6735 20.2036 24.6865C19.9898 24.7039 19.7751 24.7122 19.5607 24.7192C19.4332 24.7233 19.3972 24.6879 19.3844 24.5559C19.3676 24.3813 19.3551 24.2064 19.3399 24.022C19.2636 24.0099 19.2003 23.9984 19.1365 23.9902C18.6324 23.9252 18.2423 23.6729 17.9435 23.2685C17.8134 23.0923 17.7584 22.8829 17.6865 22.6818C17.6501 22.58 17.6867 22.5164 17.7897 22.4719C17.84 22.4499 17.8934 22.4359 17.9479 22.4303C18.156 22.4108 18.3647 22.3975 18.573 22.3799C18.6699 22.3717 18.7225 22.417 18.7624 22.5029C18.8225 22.6319 18.8887 22.7592 18.9641 22.8797C19.1025 23.1012 19.3225 23.183 19.5693 23.1902C19.8444 23.1982 20.1156 23.1364 20.3408 22.9852C20.8792 22.6235 20.8898 22.0584 20.4079 21.646C20.201 21.469 19.9366 21.3913 19.6755 21.3184C19.2042 21.1869 18.7295 21.0612 18.2937 20.832C18.1334 20.7474 17.9832 20.6449 17.846 20.5265C17.5359 20.2589 17.4375 19.9069 17.5042 19.5117C17.6108 18.881 17.9752 18.4605 18.5747 18.2424C18.6519 18.2143 18.7311 18.1917 18.8261 18.1611C18.8222 18.0772 18.8198 17.9913 18.814 17.9056C18.8069 17.8013 18.7962 17.6973 18.7887 17.593C18.7805 17.4781 18.805 17.4305 18.911 17.4174C19.1399 17.3892 19.3702 17.372 19.6001 17.3532C19.6911 17.3458 19.7463 17.3988 19.7678 17.4813C19.7914 17.5717 19.8094 17.6634 19.8217 17.756C19.8354 17.8589 19.84 17.9631 19.8489 18.0726C19.9296 18.0888 19.9926 18.1024 20.0559 18.1143C20.8069 18.2546 21.1483 18.7625 21.4056 19.4259C21.4443 19.5256 21.4086 19.5969 21.3084 19.638C21.2536 19.6606 21.1924 19.6731 21.1331 19.6778C20.9906 19.6892 20.8472 19.6902 20.7046 19.7014C20.5868 19.7107 20.5114 19.6718 20.4545 19.5605C20.4005 19.4547 20.3204 19.3608 20.2436 19.2684C19.885 18.8367 19.1115 18.9727 18.8158 19.3735C18.6694 19.572 18.6826 19.8455 18.8558 20.0236C18.9713 20.1433 19.1184 20.2278 19.28 20.2671C19.4611 20.3116 19.6454 20.3432 19.8276 20.3839C20.0742 20.4388 20.3235 20.4852 20.5656 20.5561C21.2639 20.7604 21.8051 21.4111 21.8399 22.1009C21.8552 22.4051 21.7954 22.6933 21.6358 22.9542C21.4728 23.2208 21.2633 23.4455 20.986 23.5967C20.7795 23.7091 20.5674 23.8119 20.3244 23.9362Z" fill="white"></path><path d="M35.3784 21.6124C34.5807 18.6588 34.1006 15.6191 33.2034 12.6962C33.1071 12.4381 32.9499 12.3992 32.3835 12.4789C31.9859 12.5349 31.5836 12.5988 31.1894 12.6811C23.5226 14.2832 15.8633 15.9245 8.17962 17.4419C7.22806 17.6541 4.9694 16.0283 4.65799 15.1039C3.52949 11.7537 4.37444 18.3264 4.49548 19.4888C5.04055 21.7437 5.49215 24.0192 5.96743 26.2897C6.06873 26.7762 6.17011 27.2628 6.27171 27.7493C6.29913 27.9547 6.45966 28.0994 6.66643 28.1079C7.02553 28.1439 7.54866 28.0205 7.95097 27.9433C8.69948 27.7963 9.44829 27.651 10.1966 27.5029C13.6366 26.8133 17.0701 26.0914 20.5069 25.3855L20.5064 25.383C24.1122 24.6526 27.7048 23.8601 31.3017 23.0879C32.4258 22.8454 33.5528 22.6072 34.6679 22.3267C35.0276 22.2558 35.5465 22.0307 35.3784 21.6124Z" fill="#166434"></path><path d="M35.9591 20.7893C35.8908 20.4955 35.8223 20.2018 35.7535 19.9082L35.7529 19.906C35.4949 18.804 35.2349 17.7023 34.9857 16.5983C34.4961 14.4286 34.0216 12.2557 33.5312 10.0862L33.503 9.96148L33.4755 9.83983C33.3641 9.34844 33.2179 8.86404 33.0611 8.38313C32.9431 8.02145 32.7791 7.9563 32.2046 8.02327C31.9518 8.05274 31.6975 8.08637 31.4445 8.12799C31.2944 8.15253 31.1448 8.18035 30.9959 8.21144L30.9947 8.21167C30.84 8.2441 30.6853 8.27675 30.5306 8.30948L30.4439 8.32785C30.2932 8.35982 30.1424 8.39179 29.9918 8.42391L29.9244 8.43827C28.6108 8.71862 27.2985 9.00513 25.9838 9.28048C23.8415 9.72903 21.6963 10.1638 19.5534 10.6094C18.1246 10.9064 16.6971 11.2104 15.2698 11.5147C14.7829 11.6185 14.3001 11.7416 13.8124 11.8404C12.7836 12.049 11.753 12.2494 10.7225 12.4496C9.86677 12.6159 9.00831 12.7679 8.15448 12.9434C8.02638 12.9697 7.89827 12.9961 7.77024 13.0228L7.77001 13.0229C7.5763 13.0632 7.38266 13.104 7.1891 13.1453L7.16601 13.1502C7.07459 13.1697 6.98324 13.1894 6.89188 13.2092L6.85999 13.2161C6.76786 13.2361 6.67578 13.2562 6.58373 13.2766L6.57234 13.2791C6.48213 13.299 6.39192 13.3191 6.30178 13.3393L6.27604 13.3451C6.18818 13.3648 6.10032 13.3848 6.01254 13.4048L5.96584 13.4155C5.8795 13.4353 5.79316 13.4553 5.70689 13.4754L5.66528 13.4852C5.57522 13.5063 5.48524 13.5275 5.39533 13.5489C5.22568 13.5895 5.05908 13.6449 4.89521 13.7068C4.73134 13.7687 4.57012 13.837 4.41127 13.9035C4.30936 13.9461 4.22552 13.9946 4.16075 14.0489C4.15493 14.0538 4.14921 14.0588 4.14359 14.0639C4.11198 14.0921 4.08407 14.1242 4.06051 14.1595C4.04593 14.1819 4.03394 14.205 4.0246 14.2288C4.01762 14.2466 4.01209 14.265 4.00804 14.2837C3.99856 14.329 3.99745 14.3757 4.00478 14.4214C4.01191 14.4685 4.01822 14.5158 4.02406 14.5631C4.03568 14.6578 4.04525 14.7529 4.05444 14.8481C4.05907 14.8958 4.06363 14.9434 4.06834 14.9909C4.07304 15.0384 4.07798 15.086 4.08322 15.1334C4.09909 15.2757 4.11853 15.4174 4.14784 15.5569C4.16075 15.6184 4.17389 15.6798 4.1871 15.7412L4.19697 15.7863C4.20738 15.8341 4.21778 15.8818 4.22833 15.9296L4.23722 15.9693C4.24861 16.0207 4.26015 16.072 4.27177 16.1233L4.27701 16.1465C4.43799 16.8573 4.61364 17.5652 4.76376 18.2783C5.23563 20.52 5.70074 22.7629 6.16654 25.0059L6.16684 25.0074C6.30702 25.6826 6.44728 26.3578 6.58783 27.0329C6.59786 27.081 6.6091 27.1255 6.62208 27.1666C6.62641 27.1802 6.63089 27.1936 6.63552 27.2065C6.64957 27.2453 6.66537 27.2808 6.68321 27.313C6.70106 27.3453 6.72103 27.3743 6.74343 27.4003C6.76193 27.4217 6.78239 27.4413 6.80456 27.4588C6.83561 27.4833 6.87039 27.5037 6.90935 27.5204C6.92606 27.5275 6.94352 27.5339 6.96182 27.5396C6.98012 27.5454 6.99926 27.5505 7.01923 27.5549C7.05458 27.5627 7.0904 27.5683 7.12645 27.5716C7.28721 27.5876 7.49353 27.5727 7.75999 27.5333C7.78626 27.5294 7.81254 27.5245 7.83874 27.5194C7.86493 27.5144 7.89113 27.5089 7.91733 27.5038L7.92082 27.5031C8.0203 27.4838 8.11985 27.4645 8.21933 27.4454L8.32336 27.4254L8.52034 27.3875L8.64761 27.363L8.77815 27.338C9.38275 27.222 9.98744 27.1067 10.5917 26.989H10.5918C11.0458 26.9009 11.4993 26.8107 11.9524 26.7185C14.9696 26.1035 17.9844 25.4768 21.0001 24.8549L20.9994 24.8513C22.0629 24.632 23.1286 24.4217 24.1895 24.1916C27.2329 23.5313 30.2753 22.8661 33.3165 22.1959C33.5639 22.1415 33.8108 22.0847 34.0571 22.0257C34.4674 21.9275 34.8764 21.8245 35.2842 21.7167C35.3074 21.7106 35.3305 21.7042 35.3535 21.6975L35.3559 21.6968L35.3863 21.6877L35.3932 21.6855L35.4201 21.677L35.4231 21.6761C35.433 21.6729 35.4427 21.6696 35.4524 21.6663L35.4574 21.6646L35.4834 21.6555L35.4861 21.6545C35.4957 21.6511 35.505 21.6476 35.5143 21.644L35.5171 21.6429C35.5258 21.6396 35.5344 21.6362 35.5429 21.6328L35.5449 21.632C35.554 21.6283 35.5632 21.6245 35.572 21.6207L35.5723 21.6205C35.5812 21.6167 35.5898 21.6129 35.5982 21.6092L35.5995 21.6085C35.6169 21.6006 35.6336 21.5926 35.6497 21.5844L35.6503 21.5841C35.6666 21.5758 35.6822 21.5673 35.6972 21.5587L35.6974 21.5585C35.9214 21.4291 36.0091 21.2579 35.9993 21.0209C35.9958 20.9424 35.9768 20.8657 35.9591 20.7893Z" fill="#16A249"></path><path d="M31.565 20.1994C31.6657 19.846 31.8384 19.5346 32.0875 19.2646C32.3344 18.9969 32.6271 18.7931 32.9698 18.6751C33.2011 18.5954 33.4424 18.5399 33.6828 18.4927C33.7312 18.4833 33.7799 18.476 33.8288 18.4708C33.6803 17.8455 33.5345 17.2196 33.3915 16.5931C33.0199 14.9581 32.6596 13.3207 32.2895 11.6854C32.1019 11.728 31.9119 11.7585 31.7181 11.7658C31.2669 11.7828 30.851 11.663 30.4576 11.4464C30.0439 11.2187 29.7021 10.9141 29.453 10.5131C29.32 10.299 29.2225 10.0792 29.1615 9.854C27.9279 10.116 26.6956 10.3843 25.4611 10.6426C23.5445 11.0435 21.6254 11.4329 19.7083 11.8312C18.4299 12.0969 17.1528 12.3681 15.8757 12.6397C15.4401 12.7324 15.0079 12.841 14.5716 12.9295C13.6512 13.1164 12.7294 13.2964 11.8077 13.4763C11.0422 13.6258 10.2746 13.7634 9.51074 13.9203C9.03406 14.0179 8.55806 14.1188 8.08275 14.2229C8.10052 14.352 8.10682 14.4841 8.10189 14.6189C8.09642 14.7691 8.07941 14.919 8.06764 15.0691C7.97568 15.4937 7.84811 15.9015 7.5859 16.2547C7.32589 16.6048 6.99033 16.8527 6.56888 16.9732C6.41906 17.016 6.26802 17.0546 6.11523 17.0834C6.21805 17.519 6.32292 17.9542 6.41526 18.3919C6.80079 20.2203 7.1804 22.0498 7.56053 23.8793C7.59228 23.8727 7.62409 23.8663 7.65583 23.8601C7.97948 23.7967 8.30228 23.836 8.62076 23.9105C8.73877 23.938 8.85533 23.9717 8.97265 24.0023C9.18072 24.0564 9.37618 24.1386 9.54726 24.2706C9.61181 24.3203 9.6743 24.375 9.72822 24.4358C9.87143 24.5975 10.0276 24.7517 10.1457 24.9307C10.3077 25.175 10.4151 25.4514 10.4606 25.7411C11.2122 25.5962 11.9636 25.4507 12.7134 25.2977C15.4125 24.7469 18.1096 24.1867 20.8076 23.6303L20.807 23.6274C21.7584 23.4312 22.7116 23.2424 23.661 23.0373C26.2826 22.4706 28.9034 21.9002 31.5234 21.326C31.442 20.9646 31.454 20.5891 31.565 20.1994Z" fill="#157F3C"></path><path d="M12.3111 19.7928C12.2649 20.0061 12.2009 20.211 12.0691 20.3884C11.9385 20.5643 11.7699 20.6888 11.5582 20.7493C11.4142 20.7905 11.268 20.824 11.1172 20.8297C10.8904 20.8382 10.6816 20.778 10.4839 20.6692C10.2761 20.5548 10.1044 20.4018 9.97926 20.2004C9.79693 19.9069 9.74689 19.5927 9.84242 19.2578C9.89131 19.0826 9.98131 18.9216 10.1049 18.7882C10.229 18.6537 10.376 18.5513 10.5482 18.492C10.6644 18.452 10.7855 18.4241 10.9064 18.4004C11.0689 18.3686 11.2311 18.3883 11.3911 18.4257C11.4505 18.4396 11.509 18.4565 11.5679 18.4718C11.6724 18.499 11.7707 18.5403 11.8566 18.6066C11.8891 18.6316 11.9204 18.6591 11.9475 18.6896C12.0194 18.7709 12.098 18.8483 12.1573 18.9382C12.282 19.1273 12.3367 19.3396 12.3284 19.5665C12.3256 19.6422 12.317 19.7175 12.3111 19.7928ZM30.1057 16.1232C30.0595 16.3365 29.9954 16.5414 29.8637 16.7188C29.7331 16.8947 29.5645 17.0192 29.3528 17.0797C29.2087 17.1209 29.0626 17.1543 28.9118 17.16C28.685 17.1685 28.4762 17.1084 28.2785 16.9996C28.0707 16.8851 27.899 16.7322 27.7738 16.5307C27.5915 16.2372 27.5415 15.9231 27.637 15.5881C27.6859 15.4129 27.7759 15.252 27.8995 15.1185C28.0236 14.9841 28.1706 14.8817 28.3428 14.8224C28.4589 14.7824 28.5801 14.7544 28.701 14.7308C28.8635 14.6989 29.0257 14.7187 29.1857 14.7561C29.245 14.77 29.3036 14.7869 29.3625 14.8022C29.467 14.8294 29.5653 14.8707 29.6512 14.937C29.6836 14.962 29.715 14.9895 29.7421 15.02C29.814 15.1012 29.8925 15.1787 29.9519 15.2686C30.0765 15.4577 30.1313 15.67 30.1229 15.8969C30.1201 15.9725 30.1116 16.0479 30.1057 16.1232Z" fill="#16A249"></path><path d="M24.9094 18.5564C24.7648 19.4185 24.4023 20.2478 23.8185 20.9346C22.402 22.6013 19.9026 23.1835 17.9053 22.2769C17.8478 22.2505 17.7908 22.2232 17.7341 22.1951C14.7596 20.7027 13.7941 16.4391 16.434 14.1548C18.1474 12.6722 20.9743 12.3952 22.8882 13.6471C24.5334 14.7232 25.2183 16.715 24.9094 18.5564Z" fill="#16A249"></path><path d="M20.9949 20.5692C21.0294 20.7366 21.0692 20.9242 21.1066 21.1124C21.1374 21.2668 21.1227 21.2965 20.9659 21.3287C20.7558 21.3718 20.5438 21.4061 20.3318 21.4389C20.2057 21.4584 20.1657 21.4277 20.1371 21.2981C20.0993 21.1269 20.0656 20.9547 20.0283 20.7735C19.9511 20.7707 19.8868 20.767 19.8225 20.7665C19.3143 20.7631 18.8963 20.5599 18.5509 20.1946C18.4003 20.0355 18.3204 19.8342 18.2247 19.6432C18.1762 19.5467 18.2049 19.4791 18.3017 19.4224C18.349 19.3945 18.4003 19.3741 18.4538 19.3619C18.658 19.3174 18.8635 19.279 19.0681 19.2362C19.1634 19.2163 19.221 19.255 19.2711 19.3355C19.3463 19.4563 19.4275 19.5745 19.5169 19.6852C19.681 19.8882 19.9093 19.9428 20.1551 19.9201C20.4293 19.8948 20.691 19.8006 20.8961 19.6232C21.3869 19.1989 21.3289 18.6368 20.8006 18.2857C20.5739 18.1351 20.302 18.09 20.0339 18.0493C19.5501 17.9758 19.0637 17.9085 18.6033 17.7337C18.4339 17.6691 18.2724 17.5856 18.1219 17.4846C17.7817 17.2566 17.6414 16.919 17.6598 16.5186C17.6892 15.8797 18 15.4182 18.5688 15.129C18.642 15.0918 18.7178 15.0598 18.8084 15.0179C18.7944 14.9351 18.7816 14.8501 18.7655 14.7658C18.7459 14.6631 18.7226 14.5611 18.7026 14.4585C18.6805 14.3455 18.6991 14.2952 18.8027 14.2694C19.0264 14.2136 19.2529 14.1688 19.4789 14.1222C19.5684 14.1038 19.6297 14.1497 19.6609 14.229C19.6951 14.3157 19.7243 14.4049 19.7477 14.4951C19.7737 14.5956 19.7908 14.6984 19.813 14.8061C19.8951 14.8125 19.9592 14.8183 20.0236 14.8224C20.786 14.8708 21.1864 15.3336 21.5222 15.961C21.5727 16.0553 21.5459 16.1303 21.4515 16.1833C21.3998 16.2124 21.3405 16.2322 21.2822 16.2441C21.1421 16.2726 20.9999 16.291 20.8597 16.3193C20.7439 16.3427 20.6643 16.3134 20.5944 16.2098C20.5279 16.1114 20.4371 16.0278 20.3497 15.9454C19.9414 15.5603 19.1901 15.7889 18.9451 16.2226C18.8237 16.4374 18.8701 16.7073 19.0636 16.8631C19.1927 16.9679 19.3489 17.0339 19.5141 17.0534C19.6993 17.0758 19.886 17.0848 20.0718 17.103C20.3232 17.1277 20.5764 17.1436 20.8252 17.1846C21.543 17.3029 22.159 17.8832 22.2771 18.5637C22.3292 18.8638 22.3047 19.1572 22.1779 19.4355C22.0482 19.7198 21.8676 19.9683 21.6106 20.1519C21.4192 20.2888 21.2211 20.4164 20.9949 20.5692Z" fill="white"></path></svg>