<svg xmlns="http://www.w3.org/2000/svg" width="40" height="40" viewBox="0 0 40 40" fill="none"><path d="M15.2004 23.5673L15.0903 23.629H11.7776C11.0616 23.629 10.4812 24.2253 10.4812 24.9608C10.4812 25.6964 11.0616 26.2927 11.7776 26.2927H10.9132L6.0001 23.9805C5.29094 23.6467 4.45325 23.9669 4.1282 24.6954C4.04351 24.8849 4 25.0914 4 25.2996V25.3963C4 25.946 4.30239 26.4485 4.78078 26.6941L9.81849 29.2823C10.5387 29.6516 11.3324 29.8439 12.1375 29.8435H21.2834V23.6282C19.4034 22.525 17.1013 22.5018 15.2004 23.5673Z" fill="#FFB782"></path><path d="M21.5332 23.7847H27.1503V30H21.5332V23.7847Z" fill="#2463EB"></path><path d="M14.707 26.675H11.2504C11.0119 26.675 10.8184 26.4761 10.8184 26.231C10.8184 25.986 11.0119 25.7871 11.2504 25.7871H14.707C14.9456 25.7871 15.1391 25.986 15.1391 26.231C15.1391 26.4761 14.9456 26.675 14.707 26.675Z" fill="#F2A46F"></path><path d="M24.6853 18.1042C24.6253 18.126 24.5479 18.1508 24.4532 18.1786C24.3585 18.2065 24.2487 18.2319 24.124 18.2549C23.9993 18.2779 23.8602 18.2973 23.7067 18.313C23.5532 18.3288 23.3865 18.3366 23.2066 18.3366C22.7484 18.3366 22.3527 18.2676 22.0193 18.1296C21.6859 17.9916 21.4113 17.8051 21.1954 17.5702C20.9795 17.3353 20.8194 17.0623 20.7151 16.7511C20.6108 16.4399 20.5586 16.1099 20.5586 15.7612C20.5586 15.3495 20.6246 14.9718 20.7565 14.6279C20.8884 14.284 21.0773 13.9874 21.3231 13.7379C21.569 13.4885 21.8664 13.2948 22.2154 13.1568C22.5644 13.0187 22.9559 12.9497 23.3901 12.9497C23.6899 12.9497 23.9483 12.9685 24.1654 13.006C24.3824 13.0435 24.5557 13.0793 24.6853 13.1132V14.5625C24.6325 14.5311 24.5683 14.4989 24.4928 14.4663C24.4172 14.4336 24.3321 14.4039 24.2373 14.3773C24.1426 14.3506 24.0389 14.3288 23.9261 14.3119C23.8134 14.2949 23.6935 14.2864 23.5663 14.2864C23.3865 14.2864 23.2138 14.3125 23.0483 14.3645C22.8828 14.4166 22.7377 14.4983 22.6129 14.6097C22.4882 14.7211 22.3887 14.8628 22.3143 15.0347C22.24 15.2067 22.2028 15.4113 22.2028 15.6486C22.2028 15.8496 22.2328 16.0331 22.2927 16.1989C22.3527 16.3648 22.4402 16.5065 22.5554 16.6239C22.6705 16.7414 22.8114 16.8328 22.9781 16.8982C23.1448 16.9636 23.3337 16.9963 23.5448 16.9963C23.6671 16.9963 23.784 16.9872 23.8955 16.969C24.0071 16.9509 24.1108 16.9272 24.2068 16.8982C24.3027 16.8691 24.3908 16.8376 24.4712 16.8037C24.5515 16.7698 24.6229 16.7371 24.6853 16.7057V18.1042Z" fill="#4D4D4D"></path><path d="M30.4022 15.6268C30.4022 16.0409 30.3351 16.4145 30.2008 16.7474C30.0664 17.0804 29.8812 17.365 29.6449 17.6011C29.4086 17.8372 29.1316 18.0188 28.8138 18.1459C28.496 18.2731 28.1536 18.3366 27.7866 18.3366C27.4317 18.3366 27.0977 18.2761 26.7847 18.155C26.4717 18.0339 26.1982 17.8602 25.9644 17.6338C25.7305 17.4073 25.5458 17.1319 25.4103 16.8074C25.2748 16.4829 25.207 16.1172 25.207 15.7104C25.207 15.3035 25.2718 14.9306 25.4013 14.5916C25.5308 14.2526 25.7119 13.9614 25.9446 13.718C26.1772 13.4746 26.4561 13.2857 26.7811 13.1513C27.1061 13.0169 27.464 12.9497 27.855 12.9497C28.2244 12.9497 28.565 13.0121 28.8768 13.1368C29.1886 13.2615 29.4572 13.4395 29.6827 13.6708C29.9081 13.902 30.0844 14.1829 30.2116 14.5135C30.3387 14.844 30.4022 15.2152 30.4022 15.6268ZM28.7545 15.6704C28.7544 15.4476 28.7323 15.2503 28.6879 15.0783C28.6435 14.9064 28.5812 14.7617 28.5008 14.6443C28.4205 14.5268 28.3245 14.4378 28.213 14.3773C28.1015 14.3167 27.9773 14.2865 27.8406 14.2865C27.6655 14.2865 27.5156 14.3228 27.3909 14.3954C27.2662 14.4681 27.1642 14.5662 27.0851 14.6897C27.0059 14.8132 26.9484 14.9573 26.9124 15.1219C26.8764 15.2866 26.8584 15.4622 26.8584 15.6486C26.8584 15.8908 26.8848 16.0972 26.9376 16.268C26.9903 16.4387 27.0611 16.5779 27.1498 16.6857C27.2386 16.7935 27.3405 16.8722 27.4557 16.9218C27.5708 16.9714 27.6907 16.9963 27.8154 16.9963C27.9354 16.9963 28.0517 16.9702 28.1644 16.9182C28.2771 16.8661 28.3773 16.7862 28.4648 16.6784C28.5524 16.5707 28.6225 16.4332 28.6753 16.2661C28.7281 16.0991 28.7544 15.9005 28.7545 15.6704Z" fill="#4D4D4D"></path><path d="M36.0009 15.5762C36.0009 15.983 35.9368 16.3511 35.8084 16.6805C35.6801 17.0098 35.499 17.2901 35.2652 17.5214C35.0313 17.7526 34.7495 17.9312 34.4197 18.0572C34.0899 18.1831 33.7235 18.2461 33.3206 18.2461H31.1367V13.0371H33.2738C33.6216 13.0371 33.9304 13.0668 34.2002 13.1261C34.4701 13.1854 34.7063 13.2696 34.909 13.3786C35.1117 13.4875 35.282 13.6183 35.4199 13.7709C35.5578 13.9234 35.6699 14.0942 35.7563 14.283C35.8426 14.4719 35.905 14.6754 35.9434 14.8933C35.9817 15.1112 36.0009 15.3389 36.0009 15.5762ZM34.3495 15.5907C34.3495 15.4212 34.3244 15.2566 34.274 15.0967C34.2236 14.9369 34.1469 14.7952 34.0437 14.6717C33.9406 14.5482 33.8099 14.4495 33.6516 14.3757C33.4933 14.3018 33.3062 14.2649 33.0903 14.2649H32.691V17.0183H33.1263C33.3158 17.0183 33.4861 16.9838 33.6372 16.9148C33.7883 16.8458 33.9166 16.7489 34.0221 16.6242C34.1277 16.4995 34.2086 16.3493 34.265 16.1737C34.3214 15.9982 34.3495 15.8038 34.3495 15.5907Z" fill="#4D4D4D"></path><path d="M4 13.2666H17.6365V20.5129H4V13.2666Z" fill="#157F3C"></path><path d="M4 11.6328H17.6365V18.8791H4V11.6328Z" fill="#21C45D"></path><path d="M4 10H17.6365V17.2463H4V10Z" fill="#16A249"></path><path d="M15.6652 15.9806H6.33488C6.33488 15.5802 6.01368 15.2559 5.61719 15.2559V12.3574C6.01368 12.3574 6.33488 12.0331 6.33488 11.6328H15.6652C15.6652 12.0331 15.9864 12.3574 16.3829 12.3574V15.2559C15.9864 15.2559 15.6652 15.5806 15.6652 15.9806Z" fill="#F3F5FC"></path><path d="M12.442 13.8066C12.442 12.6061 11.6387 11.6328 10.6478 11.6328C9.6568 11.6328 8.85352 12.6061 8.85352 13.8066C8.85352 15.0073 9.6568 15.9806 10.6478 15.9806C11.6387 15.9806 12.442 15.0073 12.442 13.8066Z" fill="#16A249"></path></svg>