<svg width="18" height="18" viewBox="0 0 18 18" fill="none" xmlns="http://www.w3.org/2000/svg"><g clip-path="url(#clip-hrv-coin)"><path d="M8.18185 17.9998C3.66321 17.9998 0.00012207 13.9704 0.00012207 8.99988C0.00012207 4.02939 3.66321 0 8.18185 0H9.8182C14.3368 0 17.9999 4.02939 17.9999 8.99988C17.9999 13.9704 14.3368 17.9998 9.8182 17.9998H8.18185Z" fill="#F59F0A"></path><path d="M8.18194 18C12.7005 18 16.3635 13.9706 16.3635 9C16.3635 4.02944 12.7005 0 8.18194 0C3.66338 0 0.000366211 4.02944 0.000366211 9C0.000366211 13.9706 3.66338 18 8.18194 18Z" fill="#F59F0A"></path><path d="M8.18185 1.63635C11.791 1.63635 14.7272 4.93963 14.7272 8.99988C14.7272 13.0601 11.791 16.3634 8.18185 16.3634C4.57272 16.3634 1.63648 13.0601 1.63648 8.99988C1.63648 4.93963 4.57272 1.63635 8.18185 1.63635ZM8.18185 0C3.66321 0 0.00012207 4.02939 0.00012207 8.99988C0.00012207 13.9704 3.66317 17.9998 8.18181 17.9998C12.7004 17.9998 16.3635 13.9704 16.3635 8.99988C16.3635 4.02939 12.7005 0 8.18185 0Z" fill="#FCD44F"></path><path d="M5.54405 13.0502C5.06293 13.0502 4.72184 12.9138 4.52077 12.6409C4.32689 12.3608 4.22995 11.9408 4.22995 11.3806C4.22995 11.0216 4.2874 10.483 4.40229 9.76496C4.52436 9.03969 4.69311 8.08105 4.90854 6.88902L4.33766 5.7365C4.67516 5.52107 5.03421 5.33796 5.41479 5.18716C5.79538 5.02918 6.17596 4.9502 6.55655 4.9502C6.89405 4.9502 7.11665 5.05073 7.22436 5.25179C7.33208 5.45285 7.38593 5.68982 7.38593 5.96269C7.38593 6.08477 7.3608 6.28583 7.31053 6.56589C7.26745 6.83876 7.21 7.15472 7.13819 7.51376C7.07357 7.8728 7.00535 8.23902 6.93354 8.61243H9.34631C9.38939 8.3611 9.43607 8.09182 9.48633 7.80458C9.54378 7.51735 9.60123 7.21216 9.65867 6.88902L9.0878 5.7365C9.4253 5.52107 9.78434 5.33796 10.1649 5.18716C10.5455 5.02918 10.9261 4.9502 11.3067 4.9502C11.6442 4.9502 11.8668 5.05073 11.9745 5.25179C12.0822 5.45285 12.1361 5.68982 12.1361 5.96269C12.1361 6.07759 12.1145 6.26429 12.0714 6.5228C12.0355 6.77413 11.9853 7.06855 11.9206 7.40605C11.856 7.73637 11.7878 8.08464 11.716 8.45086C11.6514 8.8099 11.5867 9.16176 11.5221 9.50644C11.4575 9.84394 11.4036 10.1455 11.3605 10.4112C11.3246 10.6697 11.3067 10.8672 11.3067 11.0037C11.3067 11.3699 11.3318 11.6787 11.3821 11.93C11.4395 12.1813 11.5221 12.3931 11.6298 12.5655C11.199 12.8886 10.7538 13.0502 10.2942 13.0502C9.81306 13.0502 9.47197 12.9138 9.27091 12.6409C9.07702 12.3608 8.98008 11.9408 8.98008 11.3806C8.98008 11.2155 8.99085 11.0108 9.0124 10.7667C9.04112 10.5154 9.08062 10.2245 9.13088 9.89421H6.69657C6.65349 10.1384 6.61758 10.361 6.58886 10.562C6.56732 10.7559 6.55655 10.9031 6.55655 11.0037C6.55655 11.3699 6.58168 11.6787 6.63194 11.93C6.68939 12.1813 6.77197 12.3931 6.87968 12.5655C6.44883 12.8886 6.00362 13.0502 5.54405 13.0502Z" fill="white"></path></g><defs><clipPath id="clip-hrv-coin"><rect width="18" height="18" fill="white"></rect></clipPath></defs></svg>