<svg width="16" height="16" viewBox="0 0 20 20" fill="none" xmlns="http://www.w3.org/2000/svg"><rect width="20" height="20" rx="4" fill="#9CA3B0"></rect><g filter="url(#hrv-cust-df-icon-segment-type-static--small-filter0_d_7330_37628)"><path d="M14.125 8.85156C14.8369 8.85156 15.4141 8.27443 15.4141 7.5625C15.4141 6.85057 14.8369 6.27344 14.125 6.27344C13.4131 6.27344 12.8359 6.85057 12.8359 7.5625C12.8359 8.27443 13.4131 8.85156 14.125 8.85156Z" fill="#E5E7EB"></path><path d="M16 11.2302V13.7655C16 14.1576 15.6798 14.4766 15.2861 14.4766H12.8139C12.6198 14.4766 12.4623 14.3191 12.4623 14.125C12.4623 13.7832 12.2734 12.0515 12.2734 11.2302C12.2734 10.3581 12.9873 9.64844 13.8648 9.64844H14.4086C15.2861 9.64844 16 10.3581 16 11.2302Z" fill="#E5E7EB"></path><path d="M5.875 8.85156C6.58693 8.85156 7.16406 8.27443 7.16406 7.5625C7.16406 6.85057 6.58693 6.27344 5.875 6.27344C5.16307 6.27344 4.58594 6.85057 4.58594 7.5625C4.58594 8.27443 5.16307 8.85156 5.875 8.85156Z" fill="#E5E7EB"></path><path d="M7.72656 11.2302C7.72656 12.0778 7.53766 13.7677 7.53766 14.125C7.53766 14.3191 7.38016 14.4766 7.18609 14.4766H4.6893C4.30914 14.4766 4 14.1686 4 13.7898V11.2302C4 10.3581 4.71391 9.64844 5.59141 9.64844H6.13516C7.01266 9.64844 7.72656 10.3581 7.72656 11.2302Z" fill="#E5E7EB"></path><path d="M10 8.85156C11.1261 8.85156 12.0391 7.93864 12.0391 6.8125C12.0391 5.68636 11.1261 4.77344 10 4.77344C8.87386 4.77344 7.96094 5.68636 7.96094 6.8125C7.96094 7.93864 8.87386 8.85156 10 8.85156Z" fill="white"></path><path d="M13.1641 12.4848V14.4058C13.1641 14.8584 12.7959 15.2266 12.3433 15.2266H7.65672C7.20414 15.2266 6.83594 14.8584 6.83594 14.4058V12.4848C6.83594 10.9209 8.10836 9.64844 9.67234 9.64844H10.3277C11.8916 9.64844 13.1641 10.9209 13.1641 12.4848Z" fill="white"></path></g><defs><filter id="hrv-cust-df-icon-segment-type-static--small-filter0_d_7330_37628" x="3" y="3.5" width="14" height="14" filterUnits="userSpaceOnUse" color-interpolation-filters="sRGB"><feFlood flood-opacity="0" result="BackgroundImageFix"></feFlood><feColorMatrix in="SourceAlpha" type="matrix" values="0 0 0 0 0 0 0 0 0 0 0 0 0 0 0 0 0 0 127 0" result="hardAlpha"></feColorMatrix><feOffset dy="0.5"></feOffset><feGaussianBlur stdDeviation="0.5"></feGaussianBlur><feComposite in2="hardAlpha" operator="out"></feComposite><feColorMatrix type="matrix" values="0 0 0 0 0 0 0 0 0 0 0 0 0 0 0 0 0 0 0.16 0"></feColorMatrix><feBlend mode="normal" in2="BackgroundImageFix" result="effect1_dropShadow_7330_37628"></feBlend><feBlend mode="normal" in="SourceGraphic" in2="effect1_dropShadow_7330_37628" result="shape"></feBlend></filter></defs></svg>