<svg width="16" height="16" viewBox="0 0 20 20" fill="none" xmlns="http://www.w3.org/2000/svg"><rect width="20" height="20" rx="4" fill="#FBBD23"></rect><g filter="url(#hrv-cust-df-icon-segment-type-automatic--smallfilter0_d_7330_37645)"><path d="M11.7429 5.26802C11.7007 5.13442 11.5883 5.04297 11.4547 5.02192L10.6672 4.88594L10.3156 4.17578C10.2523 4.0562 10.1257 4 9.99919 4C9.87267 4 9.74606 4.0562 9.68278 4.17578L9.33122 4.88594L8.54367 5.02183C8.4101 5.04297 8.29767 5.13433 8.25548 5.26802C8.22033 5.39453 8.25548 5.53516 8.3539 5.62652L8.9164 6.16797L8.7828 6.92739C8.76166 7.05393 8.81093 7.1875 8.92343 7.27192C9.0289 7.34927 9.17658 7.35623 9.28901 7.30002L9.99919 6.93435L10.7093 7.30002C10.8288 7.36328 10.9695 7.34917 11.075 7.2719C11.1874 7.1875 11.2367 7.05393 11.2155 6.9273L11.082 6.16797L11.6445 5.62652C11.7429 5.53516 11.7782 5.39453 11.7429 5.26802H11.7429Z" fill="white"></path><path d="M13.1406 8.67604C13.0879 8.63728 13.0471 8.58457 13.0228 8.52387C12.9985 8.46316 12.9916 8.39686 13.0029 8.33245L13.1365 7.573L12.57 7.03394C12.5222 6.98838 12.4882 6.93029 12.4718 6.8663C12.4555 6.80231 12.4576 6.73502 12.4777 6.67214C12.4977 6.60917 12.5351 6.55313 12.5856 6.51049C12.6361 6.46784 12.6976 6.44031 12.763 6.43108L13.553 6.31882L13.9049 5.62296C14.0244 5.3861 14.413 5.3861 14.5325 5.62296L14.8843 6.31882L15.6978 6.43108C15.8314 6.45002 15.9422 6.5437 15.9831 6.67214C16.0032 6.73503 16.0053 6.80232 15.9889 6.86631C15.9726 6.93031 15.9386 6.98841 15.8908 7.03396L15.3008 7.57303L15.4344 8.33245C15.4457 8.39686 15.4388 8.46314 15.4144 8.52383C15.3901 8.58453 15.3493 8.63724 15.2967 8.67604C15.1889 8.75543 15.0461 8.76768 14.9277 8.70588L14.2187 8.34196L13.51 8.70588C13.4518 8.7358 13.3863 8.74887 13.3211 8.74359C13.2558 8.73832 13.1933 8.71493 13.1406 8.67604Z" fill="white"></path><path d="M4.70312 8.67604C4.65044 8.63728 4.60964 8.58457 4.58531 8.52387C4.56098 8.46316 4.5541 8.39686 4.56542 8.33245L4.69902 7.573L4.10903 7.03394C4.06122 6.98838 4.02721 6.93029 4.0109 6.8663C3.99458 6.80231 3.99662 6.73502 4.01678 6.67214C4.0576 6.5437 4.1919 6.44995 4.32549 6.43108L5.1155 6.31882L5.46742 5.62296C5.5869 5.3861 5.97554 5.3861 6.09503 5.62296L6.44685 6.31882L7.23685 6.43108C7.37045 6.45002 7.48131 6.5437 7.52213 6.67214C7.54229 6.73503 7.54433 6.80232 7.52801 6.86631C7.51169 6.93031 7.47767 6.98841 7.42986 7.03396L6.86333 7.57303L6.99692 8.33245C7.00818 8.39686 7.00126 8.46314 6.97693 8.52383C6.9526 8.58453 6.91183 8.63724 6.85921 8.67604C6.75144 8.75543 6.60927 8.76768 6.49016 8.70588L5.78115 8.34196L5.07254 8.70588C5.0143 8.7358 4.94885 8.74887 4.88358 8.74359C4.81831 8.73832 4.75581 8.71493 4.70312 8.67604Z" fill="white"></path><path d="M13.8672 12.6641C13.3469 12.6641 12.6227 12.9337 12.25 13.25L13.1641 15.5H15.6484C15.8454 15.5 16 15.3454 16 15.1484V14.7969C16 13.6367 15.0273 12.6641 13.8672 12.6641ZM13.8672 9.85156C13.0938 9.85156 12.4609 10.4844 12.4609 11.2578C12.4609 12.0312 13.0938 12.6641 13.8672 12.6641C14.6406 12.6641 15.2734 12.0312 15.2734 11.2578C15.2734 10.4844 14.6406 9.85156 13.8672 9.85156Z" fill="#FEF3C8"></path><path d="M6.13281 12.6641C4.97266 12.6641 4 13.6367 4 14.7969V15.1484C4 15.3454 4.17808 15.5 4.375 15.5H6.83594L7.75 13.25C7.37732 12.9337 6.65313 12.6641 6.13281 12.6641ZM6.13281 9.85156C5.35938 9.85156 4.72656 10.4844 4.72656 11.2578C4.72656 12.0312 5.35938 12.6641 6.13281 12.6641C6.90625 12.6641 7.53906 12.0312 7.53906 11.2578C7.53906 10.4844 6.90625 9.85156 6.13281 9.85156Z" fill="#FEF3C8"></path><path d="M11.7578 10.5078C11.7578 11.4781 10.9703 12.2656 10 12.2656C9.02973 12.2656 8.24219 11.4781 8.24219 10.5078C8.24219 9.53755 9.02973 8.75 10 8.75C10.9703 8.75 11.7578 9.53755 11.7578 10.5078Z" fill="white"></path><path d="M13.1641 15.6484C13.1641 15.8426 13.0067 16 12.8125 16H7.1875C6.99334 16 6.83594 15.8426 6.83594 15.6484C6.83594 14.9172 7.08203 14.0164 7.51094 13.482C8.08757 12.7367 8.9875 12.2656 10 12.2656C11.0477 12.2656 11.9829 12.793 12.4891 13.482C12.918 14.0164 13.1641 14.9172 13.1641 15.6484Z" fill="white"></path></g><defs><filter id="hrv-cust-df-icon-segment-type-automatic--smallfilter0_d_7330_37645" x="3" y="3.5" width="14" height="14" filterUnits="userSpaceOnUse" color-interpolation-filters="sRGB"><feFlood flood-opacity="0" result="BackgroundImageFix"></feFlood><feColorMatrix in="SourceAlpha" type="matrix" values="0 0 0 0 0 0 0 0 0 0 0 0 0 0 0 0 0 0 127 0" result="hardAlpha"></feColorMatrix><feOffset dy="0.5"></feOffset><feGaussianBlur stdDeviation="0.5"></feGaussianBlur><feComposite in2="hardAlpha" operator="out"></feComposite><feColorMatrix type="matrix" values="0 0 0 0 0 0 0 0 0 0 0 0 0 0 0 0 0 0 0.16 0"></feColorMatrix><feBlend mode="normal" in2="BackgroundImageFix" result="effect1_dropShadow_7330_37645"></feBlend><feBlend mode="normal" in="SourceGraphic" in2="effect1_dropShadow_7330_37645" result="shape"></feBlend></filter></defs></svg>