<svg width="20" height="20" viewBox="0 0 20 20" fill="none" xmlns="http://www.w3.org/2000/svg"><path d="M7.91699 5.41797V7.91797H5.41699V5.41797H7.91699ZM9.16699 4.16797H4.16699V9.16797H9.16699V4.16797ZM7.91699 12.0846V14.5846H5.41699V12.0846H7.91699ZM9.16699 10.8346H4.16699V15.8346H9.16699V10.8346ZM14.5837 5.41797V7.91797H12.0837V5.41797H14.5837ZM15.8337 4.16797H10.8337V9.16797H15.8337V4.16797ZM10.8337 10.8346H12.0837V12.0846H10.8337V10.8346ZM12.0837 12.0846H13.3337V13.3346H12.0837V12.0846ZM13.3337 10.8346H14.5837V12.0846H13.3337V10.8346ZM10.8337 13.3346H12.0837V14.5846H10.8337V13.3346ZM12.0837 14.5846H13.3337V15.8346H12.0837V14.5846ZM13.3337 13.3346H14.5837V14.5846H13.3337V13.3346ZM14.5837 12.0846H15.8337V13.3346H14.5837V12.0846ZM14.5837 14.5846H15.8337V15.8346H14.5837V14.5846ZM18.3337 5.83464H16.667V3.33464H14.167V1.66797H18.3337V5.83464ZM18.3337 18.3346V14.168H16.667V16.668H14.167V18.3346H18.3337ZM1.66699 18.3346H5.83366V16.668H3.33366V14.168H1.66699V18.3346ZM1.66699 1.66797V5.83464H3.33366V3.33464H5.83366V1.66797H1.66699Z" fill="#4B5563"></path></svg>