<svg width="67" height="16" viewBox="0 0 67 16" fill="none" xmlns="http://www.w3.org/2000/svg"><path d="M6.8913 10.6868C7.06279 10.6101 7.94806 10.1937 8.2197 10.059V9.20739H6.89179V10.6872L6.8913 10.6868Z" fill="#9CA3B0"></path><path d="M2.37068 11.9119C2.46286 11.9281 2.55635 11.937 2.65014 11.9383C2.67359 11.9383 2.69606 11.9383 2.72 11.9383C2.77961 11.9383 2.84214 11.9383 2.90517 11.9324C3.31174 11.9026 3.71388 11.8333 4.10508 11.7256L3.29162 6.11983L1.56065 6.30247L2.37068 11.9119Z" fill="#9CA3B0"></path><path d="M4.35716 11.653C4.73628 11.5425 5.13886 11.4032 5.56293 11.242V6.73213L5.5727 6.72346H6.89182V7.96497H8.2207V6.73213L8.23096 6.72255H9.55008V9.37724C9.55008 9.37724 11.3866 8.36723 11.6328 8.22477L10.9977 3.58613L9.36101 3.76284C9.42012 3.88658 9.58672 4.14273 9.60529 4.17378C9.6177 4.1678 9.63082 4.16321 9.64437 4.16008C9.65427 4.15731 9.66441 4.15533 9.67466 4.15415C9.71444 4.14973 9.75476 4.15527 9.7915 4.17019C9.82824 4.18511 9.86008 4.20888 9.88377 4.23908C9.90681 4.26827 9.9213 4.30258 9.92579 4.33862C9.93213 4.38911 9.91871 4.44005 9.888 4.48202C9.85728 4.52398 9.81135 4.55414 9.7587 4.56692C9.68834 4.4587 9.54275 4.24227 9.53982 4.23862C9.3571 3.97014 9.18122 3.72661 9.01217 3.50805C8.86691 3.31902 8.72604 3.14855 8.58957 2.99666C8.53436 2.93319 8.47818 2.87383 8.42346 2.81401C8.35441 2.74278 8.28699 2.67612 8.22119 2.61402C8.06948 2.47034 7.90288 2.3411 7.72384 2.22819C7.44633 2.05742 7.19082 1.98345 6.9524 2.00309C6.93237 2.00309 6.91185 2.00765 6.89182 2.01085C6.44332 2.07797 6.11891 2.47887 5.84385 2.99757C5.74614 3.18386 5.65282 3.38614 5.56293 3.59115C5.50137 3.73498 5.4403 3.8811 5.38021 4.0263C5.35138 4.09707 5.32207 4.16693 5.29275 4.23771C5.23022 4.38747 5.16573 4.53541 5.10075 4.67879C5.03577 4.82216 4.96297 4.96919 4.89116 5.09932C4.86283 5.09184 4.83641 5.07909 4.81349 5.06182C4.79057 5.04456 4.77162 5.02315 4.75778 4.99887C4.74116 4.96842 4.73317 4.9345 4.73457 4.90034C4.73597 4.86619 4.74672 4.83294 4.76578 4.80377C4.78484 4.7746 4.81158 4.75048 4.84345 4.73372C4.87532 4.71695 4.91126 4.7081 4.94783 4.70801C4.96434 4.7082 4.98075 4.71035 4.99668 4.7144C5.04163 4.58244 5.0944 4.42948 5.15596 4.23771C5.15596 4.2304 5.16084 4.22355 5.16231 4.21625L3.33948 4.41533L4.35716 11.653ZM6.89182 2.18253C6.91722 2.17796 6.94067 2.17386 6.96803 2.17157C7.15857 2.15605 7.36784 2.21556 7.59583 2.3501C7.65348 2.3845 7.7126 2.42362 7.77318 2.46745C7.69948 2.43924 7.62392 2.41545 7.54698 2.39622C7.36903 2.35107 7.18369 2.33699 7.00028 2.35467C6.9651 2.35787 6.92944 2.3638 6.89377 2.36974C6.67378 2.40981 6.46644 2.49615 6.28746 2.62224C6.46286 2.38983 6.66073 2.22819 6.89182 2.18253ZM5.43004 4.37423C5.44909 4.32857 5.46766 4.28565 5.48622 4.24136C5.50479 4.19707 5.52775 4.14136 5.54876 4.09159C5.55316 4.07972 5.55853 4.06785 5.56293 4.05689C5.65527 3.83407 5.74809 3.61033 5.84629 3.39847C5.92083 3.25547 6.01369 3.12146 6.12282 2.9994C6.3177 2.77152 6.58829 2.61085 6.89182 2.54279C6.93343 2.53418 6.97551 2.52762 7.01786 2.52316C7.1432 2.51064 7.26984 2.51571 7.39357 2.53823C7.67107 2.58708 7.95004 2.72087 8.2207 2.92634C8.23634 2.93912 8.25197 2.95054 8.26956 2.96287L8.31158 2.99803C8.39962 3.0721 8.48344 3.15044 8.5627 3.23272C8.66578 3.35418 8.77278 3.48751 8.88271 3.63134C8.92521 3.68704 8.96869 3.74366 9.01169 3.80302L5.61667 4.1683L5.39731 4.44866C5.40805 4.42309 5.4188 4.39797 5.42906 4.3724" fill="#9CA3B0"></path><path d="M11.8634 8.09189C11.9362 8.04942 14.4142 6.54583 14.5437 6.46364L14.3111 4.80617L14.2622 4.81165L11.4457 5.1162L11.8634 8.09189Z" fill="#9CA3B0"></path><path d="M2.90564 13.4506C3.18531 13.4617 3.46546 13.4457 3.74157 13.4027C3.89987 13.3803 4.06451 13.3492 4.23453 13.3113C4.68535 13.2105 5.12915 13.0839 5.56342 12.9324H5.56733L5.57759 12.9283C6.00117 12.7835 6.44088 12.6146 6.89231 12.426C7.2343 12.2826 7.58362 12.1292 7.93441 11.9694C8.03212 11.9237 8.12544 11.8808 8.2212 11.8361C8.31696 11.7913 8.42346 11.7402 8.52459 11.6913C8.86691 11.5269 9.20891 11.3574 9.55057 11.1827C9.98149 10.9626 10.408 10.737 10.8243 10.5114L10.8795 10.4813L10.9376 10.4503C11.3773 10.2105 11.8024 9.97174 12.2079 9.73978C12.5264 9.55714 12.8327 9.37907 13.1239 9.20784L13.5368 8.9631C13.8089 8.80055 14.2974 8.5033 14.2974 8.5033C14.2974 8.5033 14.6448 8.29144 14.786 8.20286L14.767 8.06861V8.05537L14.6448 7.18006C14.4245 7.31704 14.167 7.47868 13.8797 7.65447C13.7698 7.72205 13.6564 7.79146 13.5377 7.86314L13.3706 7.96405C13.0145 8.17911 12.6241 8.41107 12.2088 8.65261C11.8986 8.83297 11.5737 9.01789 11.241 9.20602L10.88 9.40738C10.7171 9.4987 10.5518 9.58926 10.3841 9.67906C10.1098 9.82791 9.83215 9.9757 9.55106 10.1224C9.34163 10.2323 9.13122 10.341 8.91984 10.4484C8.68728 10.5647 8.45489 10.6795 8.22266 10.7927C7.98099 10.909 7.7398 11.0227 7.4991 11.1338C7.29651 11.2269 7.09474 11.317 6.89377 11.4041C6.66415 11.504 6.43615 11.5991 6.20979 11.6895C5.99189 11.7776 5.77497 11.8603 5.56293 11.9388C5.42467 11.9886 5.28738 12.0374 5.15254 12.0826C4.83497 12.1901 4.52881 12.2814 4.23404 12.3566C3.93839 12.4348 3.63784 12.4958 3.33411 12.5392C3.19194 12.5595 3.04878 12.573 2.90515 12.5799C2.67543 12.5941 2.4447 12.5817 2.21824 12.5429C2.16032 12.5322 2.1032 12.518 2.04724 12.5004C1.86754 12.4493 1.70543 12.3548 1.57724 12.2265C1.48421 12.1306 1.41188 12.0188 1.36423 11.8972C1.36423 11.8972 1.31537 11.7603 1.29925 11.689C1.23232 11.3895 1.25333 11.0434 1.32026 10.6955C1.33638 10.6128 1.35495 10.5297 1.37596 10.448C1.43123 10.23 1.49841 10.0148 1.57724 9.80325C1.62903 9.65988 1.68375 9.52518 1.73603 9.40327C1.68375 9.50007 1.6305 9.60372 1.57724 9.71102C1.458 9.95133 1.35233 10.1973 1.26066 10.448C1.20887 10.5895 1.16294 10.7343 1.12386 10.8795C1.05008 11.1446 1.00861 11.4166 1.00025 11.6904C0.997734 11.8514 1.01412 12.0122 1.04911 12.1698L1.05692 12.2032C1.12007 12.4812 1.27004 12.7354 1.48784 12.9337C1.50494 12.9483 1.52204 12.9634 1.5406 12.9794C1.55917 12.9954 1.56601 13.0004 1.5792 13.01C1.79123 13.173 2.07265 13.3022 2.43614 13.3844C2.49037 13.3972 2.54606 13.4091 2.6042 13.4191C2.70429 13.4363 2.80547 13.4475 2.90711 13.4524" fill="#9CA3B0"></path><path d="M14.9795 9.20784L14.9673 9.122L14.8857 8.53618C14.8803 8.53983 14.8642 8.54851 14.8642 8.54851C14.5373 8.75032 14.1714 8.97223 13.7771 9.20693L13.5358 9.35122L13.1523 9.57586C12.8489 9.75303 12.5328 9.93476 12.2069 10.1188C12.0115 10.2284 11.8141 10.3387 11.6148 10.4498C11.3731 10.5828 11.1275 10.716 10.878 10.8493C10.5658 11.0169 10.2482 11.1827 9.92922 11.3466C9.80268 11.4105 9.67663 11.4749 9.54912 11.5383C9.44701 11.589 9.34441 11.6411 9.24181 11.6909C8.90145 11.8589 8.56108 12.0205 8.22072 12.1758C7.89875 12.3237 7.57826 12.4643 7.26167 12.5977C7.13806 12.6493 7.01739 12.7 6.89183 12.7484C6.73402 12.8127 6.57622 12.8744 6.42134 12.9333C6.12821 13.0433 5.8424 13.1447 5.56294 13.2351C5.40513 13.2871 5.25026 13.3342 5.09734 13.378C4.79834 13.4642 4.51058 13.5354 4.23405 13.5917C3.96405 13.6468 3.69055 13.6857 3.41522 13.7081C3.29894 13.7168 3.18609 13.7223 3.07763 13.7223C3.019 13.7223 2.96184 13.7223 2.90516 13.7186C2.76042 13.7126 2.61629 13.6973 2.47376 13.673C2.47084 13.6727 2.46789 13.6727 2.46497 13.673C2.60456 13.75 2.75182 13.8143 2.90467 13.8647L2.91493 13.8684C2.99973 13.8951 3.08601 13.9175 3.17338 13.9355C3.5224 13.9995 3.8795 14.016 4.23356 13.9844C4.31222 13.9789 4.39186 13.9725 4.47247 13.9634C4.84002 13.9196 5.20412 13.8534 5.56245 13.7652C5.76928 13.715 5.98099 13.6582 6.19758 13.5949C6.42558 13.5279 6.65732 13.454 6.89281 13.373C7.2773 13.2419 7.66913 13.094 8.06535 12.9351C8.11812 12.9141 8.17039 12.8922 8.22267 12.8707C8.27495 12.8493 8.31745 12.8324 8.36387 12.8127C8.7596 12.6479 9.15631 12.4721 9.55107 12.289C9.9683 12.0963 10.3816 11.8963 10.7871 11.6927L10.88 11.647L11.0133 11.5794C11.4242 11.3703 11.8248 11.1594 12.2088 10.9516C12.5235 10.7818 12.8264 10.6146 13.1146 10.4525C13.2599 10.3707 13.4009 10.2903 13.5377 10.2115C13.7898 10.0672 14.0263 9.92791 14.2486 9.79686C14.4709 9.66582 14.6688 9.5471 14.851 9.43614L14.8671 9.42747L14.8735 9.42336L15 9.34619L14.9795 9.20784Z" fill="#9CA3B0"></path><path d="M21.1584 12V3.27273H22.2152V7.15909H26.8686V3.27273H27.9254V12H26.8686V8.09659H22.2152V12H21.1584ZM31.831 12.1534C31.4162 12.1534 31.0398 12.0753 30.7017 11.919C30.3636 11.7599 30.0952 11.5312 29.8963 11.233C29.6974 10.9318 29.598 10.5682 29.598 10.142C29.598 9.76705 29.6719 9.46307 29.8196 9.23011C29.9673 8.99432 30.1648 8.80966 30.4119 8.67614C30.6591 8.54261 30.9318 8.44318 31.2301 8.37784C31.5313 8.30966 31.8338 8.25568 32.1378 8.21591C32.5355 8.16477 32.858 8.12642 33.1051 8.10085C33.3551 8.07244 33.5369 8.02557 33.6506 7.96023C33.767 7.89489 33.8253 7.78125 33.8253 7.61932V7.58523C33.8253 7.16477 33.7102 6.83807 33.4801 6.60511C33.2528 6.37216 32.9077 6.25568 32.4446 6.25568C31.9645 6.25568 31.5881 6.3608 31.3153 6.57102C31.0426 6.78125 30.8509 7.00568 30.7401 7.24432L29.7855 6.90341C29.956 6.50568 30.1832 6.19602 30.4673 5.97443C30.7543 5.75 31.0668 5.59375 31.4048 5.50568C31.7457 5.41477 32.081 5.36932 32.4105 5.36932C32.6207 5.36932 32.8622 5.39489 33.1349 5.44602C33.4105 5.49432 33.6761 5.59517 33.9318 5.74858C34.1903 5.90199 34.4048 6.13352 34.5753 6.44318C34.7457 6.75284 34.831 7.16761 34.831 7.6875V12H33.8253V11.1136H33.7741C33.706 11.2557 33.5923 11.4077 33.4332 11.5696C33.2741 11.7315 33.0625 11.8693 32.7983 11.983C32.5341 12.0966 32.2116 12.1534 31.831 12.1534ZM31.9844 11.25C32.3821 11.25 32.7173 11.1719 32.9901 11.0156C33.2656 10.8594 33.473 10.6577 33.6122 10.4105C33.7543 10.1634 33.8253 9.90341 33.8253 9.63068V8.71023C33.7827 8.76136 33.6889 8.80824 33.544 8.85085C33.402 8.89062 33.2372 8.92614 33.0497 8.95739C32.8651 8.9858 32.6847 9.01136 32.5085 9.03409C32.3352 9.05398 32.1946 9.07102 32.0866 9.08523C31.8253 9.11932 31.581 9.17472 31.3537 9.25142C31.1293 9.32528 30.9474 9.4375 30.8082 9.58807C30.6719 9.7358 30.6037 9.9375 30.6037 10.1932C30.6037 10.5426 30.733 10.8068 30.9915 10.9858C31.2528 11.1619 31.5838 11.25 31.9844 11.25ZM36.6665 12V5.45455H37.6381V6.44318H37.7063C37.8256 6.11932 38.0415 5.85653 38.354 5.65483C38.6665 5.45312 39.0188 5.35227 39.4109 5.35227C39.4847 5.35227 39.5771 5.35369 39.6879 5.35653C39.7987 5.35937 39.8825 5.36364 39.9393 5.36932V6.39205C39.9052 6.38352 39.8271 6.37074 39.7049 6.35369C39.5856 6.33381 39.4592 6.32386 39.3256 6.32386C39.0075 6.32386 38.7234 6.39062 38.4734 6.52415C38.2262 6.65483 38.0302 6.83665 37.8853 7.0696C37.7433 7.29972 37.6722 7.5625 37.6722 7.85795V12H36.6665ZM43.0575 12.1534C42.6428 12.1534 42.2663 12.0753 41.9283 11.919C41.5902 11.7599 41.3217 11.5312 41.1229 11.233C40.924 10.9318 40.8246 10.5682 40.8246 10.142C40.8246 9.76705 40.8984 9.46307 41.0462 9.23011C41.1939 8.99432 41.3913 8.80966 41.6385 8.67614C41.8857 8.54261 42.1584 8.44318 42.4567 8.37784C42.7578 8.30966 43.0604 8.25568 43.3643 8.21591C43.7621 8.16477 44.0845 8.12642 44.3317 8.10085C44.5817 8.07244 44.7635 8.02557 44.8771 7.96023C44.9936 7.89489 45.0518 7.78125 45.0518 7.61932V7.58523C45.0518 7.16477 44.9368 6.83807 44.7067 6.60511C44.4794 6.37216 44.1342 6.25568 43.6712 6.25568C43.1911 6.25568 42.8146 6.3608 42.5419 6.57102C42.2692 6.78125 42.0774 7.00568 41.9666 7.24432L41.0121 6.90341C41.1825 6.50568 41.4098 6.19602 41.6939 5.97443C41.9808 5.75 42.2933 5.59375 42.6314 5.50568C42.9723 5.41477 43.3075 5.36932 43.6371 5.36932C43.8473 5.36932 44.0888 5.39489 44.3615 5.44602C44.6371 5.49432 44.9027 5.59517 45.1584 5.74858C45.4169 5.90199 45.6314 6.13352 45.8018 6.44318C45.9723 6.75284 46.0575 7.16761 46.0575 7.6875V12H45.0518V11.1136H45.0007C44.9325 11.2557 44.8189 11.4077 44.6598 11.5696C44.5007 11.7315 44.2891 11.8693 44.0249 11.983C43.7607 12.0966 43.4382 12.1534 43.0575 12.1534ZM43.2109 11.25C43.6087 11.25 43.9439 11.1719 44.2166 11.0156C44.4922 10.8594 44.6996 10.6577 44.8388 10.4105C44.9808 10.1634 45.0518 9.90341 45.0518 9.63068V8.71023C45.0092 8.76136 44.9155 8.80824 44.7706 8.85085C44.6286 8.89062 44.4638 8.92614 44.2763 8.95739C44.0916 8.9858 43.9112 9.01136 43.7351 9.03409C43.5618 9.05398 43.4212 9.07102 43.3132 9.08523C43.0518 9.11932 42.8075 9.17472 42.5803 9.25142C42.3558 9.32528 42.174 9.4375 42.0348 9.58807C41.8984 9.7358 41.8303 9.9375 41.8303 10.1932C41.8303 10.5426 41.9595 10.8068 42.218 10.9858C42.4794 11.1619 42.8104 11.25 43.2109 11.25ZM53.011 5.45455L50.5906 12H49.5678L47.1474 5.45455H48.2383L50.0451 10.6705H50.1133L51.9201 5.45455H53.011ZM56.0653 12.1534C55.6506 12.1534 55.2741 12.0753 54.9361 11.919C54.598 11.7599 54.3295 11.5312 54.1307 11.233C53.9318 10.9318 53.8324 10.5682 53.8324 10.142C53.8324 9.76705 53.9063 9.46307 54.054 9.23011C54.2017 8.99432 54.3991 8.80966 54.6463 8.67614C54.8935 8.54261 55.1662 8.44318 55.4645 8.37784C55.7656 8.30966 56.0682 8.25568 56.3722 8.21591C56.7699 8.16477 57.0923 8.12642 57.3395 8.10085C57.5895 8.07244 57.7713 8.02557 57.8849 7.96023C58.0014 7.89489 58.0597 7.78125 58.0597 7.61932V7.58523C58.0597 7.16477 57.9446 6.83807 57.7145 6.60511C57.4872 6.37216 57.142 6.25568 56.679 6.25568C56.1989 6.25568 55.8224 6.3608 55.5497 6.57102C55.277 6.78125 55.0852 7.00568 54.9744 7.24432L54.0199 6.90341C54.1903 6.50568 54.4176 6.19602 54.7017 5.97443C54.9886 5.75 55.3011 5.59375 55.6392 5.50568C55.9801 5.41477 56.3153 5.36932 56.6449 5.36932C56.8551 5.36932 57.0966 5.39489 57.3693 5.44602C57.6449 5.49432 57.9105 5.59517 58.1662 5.74858C58.4247 5.90199 58.6392 6.13352 58.8097 6.44318C58.9801 6.75284 59.0653 7.16761 59.0653 7.6875V12H58.0597V11.1136H58.0085C57.9403 11.2557 57.8267 11.4077 57.6676 11.5696C57.5085 11.7315 57.2969 11.8693 57.0327 11.983C56.7685 12.0966 56.446 12.1534 56.0653 12.1534ZM56.2188 11.25C56.6165 11.25 56.9517 11.1719 57.2244 11.0156C57.5 10.8594 57.7074 10.6577 57.8466 10.4105C57.9886 10.1634 58.0597 9.90341 58.0597 9.63068V8.71023C58.017 8.76136 57.9233 8.80824 57.7784 8.85085C57.6364 8.89062 57.4716 8.92614 57.2841 8.95739C57.0994 8.9858 56.919 9.01136 56.7429 9.03409C56.5696 9.05398 56.429 9.07102 56.321 9.08523C56.0597 9.11932 55.8153 9.17472 55.5881 9.25142C55.3636 9.32528 55.1818 9.4375 55.0426 9.58807C54.9063 9.7358 54.8381 9.9375 54.8381 10.1932C54.8381 10.5426 54.9673 10.8068 55.2259 10.9858C55.4872 11.1619 55.8182 11.25 56.2188 11.25ZM61.9066 8.0625V12H60.9009V5.45455H61.8725V6.47727H61.9577C62.1112 6.14489 62.3441 5.87784 62.6566 5.67614C62.9691 5.47159 63.3725 5.36932 63.8668 5.36932C64.31 5.36932 64.6978 5.46023 65.0302 5.64205C65.3626 5.82102 65.6211 6.09375 65.8058 6.46023C65.9904 6.82386 66.0827 7.28409 66.0827 7.84091V12H65.0771V7.90909C65.0771 7.39489 64.9435 6.99432 64.6765 6.70739C64.4094 6.41761 64.043 6.27273 63.5771 6.27273C63.256 6.27273 62.9691 6.34233 62.7163 6.48153C62.4663 6.62074 62.2688 6.82386 62.1239 7.09091C61.979 7.35795 61.9066 7.68182 61.9066 8.0625Z" fill="#9CA3B0"></path></svg>