<svg xmlns="http://www.w3.org/2000/svg" width="32" height="32" viewBox="0 0 32 32" fill="none"><rect x="0.4" y="0.4" width="31.1996" height="31.1999" rx="6" fill="white"></rect><rect x="0.4" y="0.4" width="31.1996" height="31.1999" rx="6" stroke="#EAEAEA" stroke-width="0.8"></rect><path d="M3.19922 13.7369C3.19922 13.2194 3.61877 12.7998 4.13632 12.7998C4.18087 12.7998 4.22566 12.8018 4.26883 12.8129C4.46844 12.8638 4.64443 13.0122 4.70875 13.2103C4.75324 13.3313 4.90919 13.3869 4.99793 13.2933C5.06653 13.221 5.14149 13.1548 5.22373 13.0977C5.50889 12.8943 5.8621 12.8187 6.20614 12.7998H6.48158C6.80401 12.8147 7.13832 12.8819 7.40297 13.0777C7.7192 13.3051 8.20802 13.2844 8.53216 13.0684C8.6011 13.0224 8.67429 12.9826 8.75156 12.9499C8.96165 12.8544 9.192 12.8187 9.42018 12.7998H9.66916C10.0907 12.8244 10.5128 12.9602 10.843 13.2289C11.2862 13.5748 11.5373 14.1322 11.5462 14.6898C11.5464 15.7505 11.5463 16.8113 11.5464 17.872C11.5464 18.3656 11.1463 18.7678 10.6527 18.7656C10.3308 18.7783 10.0386 18.4947 10.0375 18.1739C10.0348 17.1291 10.0375 16.0846 10.0361 15.0401C10.0375 14.7717 9.92489 14.5011 9.72263 14.3228C9.53522 14.1554 9.28084 14.0633 9.02943 14.0795C8.7737 14.1009 8.52256 14.2194 8.36135 14.4222C8.22794 14.578 8.15341 14.7806 8.14477 14.9847C8.14196 15.9207 8.14496 16.8567 8.14404 17.7929C8.14351 18.3301 7.70516 18.7754 7.16803 18.7629C6.86261 18.7532 6.60013 18.4766 6.6004 18.1726C6.59662 17.1197 6.6004 16.0668 6.59851 15.0139C6.59986 14.8119 6.54315 14.605 6.41893 14.4438C6.26258 14.2243 6.00388 14.0833 5.73546 14.0655C5.46919 14.0442 5.19807 14.1495 5.01066 14.3388C4.84135 14.5089 4.74521 14.7476 4.74224 14.9871C4.73938 15.94 4.74239 16.8929 4.74146 17.8458C4.74096 18.3546 4.32778 18.7678 3.81897 18.7656C3.69556 18.7661 3.57296 18.7305 3.47007 18.6627C3.42507 18.6354 3.38557 18.6014 3.35154 18.5626C3.18506 18.3729 3.19922 18.0942 3.19922 17.8418L3.19922 13.7369Z" fill="#0594DA"></path><path d="M14.5787 12.7998H14.9062C15.5233 12.8241 16.1592 12.9748 16.6539 13.3615C17.1168 13.7158 17.4014 14.261 17.5224 14.8238C17.6439 15.3949 17.648 15.9893 17.5564 16.5653C17.4641 17.104 17.2434 17.6365 16.85 18.0257C16.4276 18.4477 15.8406 18.6667 15.2551 18.7318C14.691 18.7931 14.1077 18.7645 13.5663 18.5846C13.1123 18.4332 12.6948 18.1529 12.414 17.7618C12.0654 17.2895 11.9182 16.6998 11.8793 16.1219C11.8501 15.5988 11.8782 15.0646 12.0357 14.5618C12.1872 14.0663 12.4839 13.6043 12.9133 13.3059C13.3934 12.9572 13.9948 12.8268 14.5787 12.7998ZM14.3642 13.9756C14.1347 14.0139 13.9089 14.1017 13.7313 14.2548C13.4582 14.4876 13.3411 14.8473 13.2887 15.191C13.2409 15.5613 13.239 15.9377 13.2811 16.3087C13.3267 16.6733 13.4412 17.0578 13.7291 17.306C14.0372 17.5755 14.4704 17.6287 14.8649 17.612C15.2481 17.6003 15.6604 17.4767 15.8983 17.1569C16.1878 16.781 16.23 16.2839 16.2378 15.8259C16.237 15.4892 16.2221 15.1459 16.1163 14.8232C16.0282 14.5475 15.8568 14.2888 15.6013 14.143C15.2292 13.9305 14.7788 13.9199 14.3642 13.9756Z" fill="#0594DA"></path><path d="M20.7362 12.7998H21.0113C21.5498 12.8249 22.0858 12.9394 22.5795 13.1576C22.6389 13.1833 22.6664 13.251 22.6699 13.3121C22.7034 13.6007 22.7488 13.8883 22.7758 14.1778C22.7991 14.331 22.5409 14.2573 22.3927 14.2121C22.0068 14.0943 21.6142 13.9946 21.2114 13.9604C20.8426 13.9324 20.4618 13.9469 20.1113 14.0744C19.828 14.1784 19.5888 14.4006 19.4789 14.6831C19.309 15.1141 19.3241 15.5866 19.332 16.0414C19.3549 16.4629 19.4429 16.9198 19.7535 17.2288C20.0414 17.5196 20.4669 17.6052 20.8615 17.6157C21.4248 17.6136 21.9865 17.5331 22.5317 17.3921C22.5935 17.3735 22.6564 17.4348 22.661 17.495C22.6967 17.7934 22.7418 18.0907 22.772 18.3899C22.8034 18.5336 22.5744 18.557 22.4306 18.5879C22.0467 18.6703 21.6571 18.7263 21.2649 18.7488C20.6873 18.7804 20.0978 18.7472 19.5423 18.5749C19.0913 18.4348 18.6671 18.1666 18.4036 17.7678C18.0665 17.2698 17.9723 16.6552 17.9493 16.0662C17.9337 15.4273 17.9531 14.7652 18.2024 14.1665C18.3668 13.7628 18.6655 13.4142 19.0468 13.2005C19.5583 12.9086 20.1564 12.8249 20.7362 12.7998Z" fill="#0594DA"></path><path d="M25.8124 12.7998H26.0876C26.4661 12.821 26.8586 12.9066 27.1877 13.1006C27.3055 13.1701 27.4772 13.0916 27.4774 12.9548C27.4775 12.8691 27.547 12.7998 27.6327 12.7998H28.2635C28.5406 12.8346 28.7742 13.0701 28.799 13.3496V18.0105C28.799 18.4268 28.4595 18.7754 28.0435 18.7629C27.9811 18.7597 27.9199 18.7459 27.8623 18.7232C27.6169 18.6266 27.1875 18.4863 26.943 18.5855C26.4707 18.7804 25.946 18.788 25.4459 18.7289C25.1494 18.6932 24.8559 18.6222 24.5826 18.5007C24.1527 18.3189 23.779 18.0022 23.5384 17.6009C23.2421 17.1189 23.1284 16.5477 23.1052 15.9885C23.0844 15.3771 23.1481 14.746 23.4139 14.1876C23.6132 13.7603 23.9467 13.3961 24.3606 13.169C24.8019 12.9194 25.3106 12.8228 25.8124 12.7998ZM25.5961 13.9761C25.2396 14.0296 24.8918 14.2283 24.7222 14.5553C24.51 14.9415 24.483 15.3957 24.484 15.827C24.4889 16.2485 24.5294 16.6938 24.7549 17.0613C24.9207 17.3362 25.2167 17.5126 25.5278 17.5731C25.8993 17.6395 26.2936 17.6368 26.6519 17.5077C26.9665 17.3924 27.2142 17.1264 27.3227 16.8113C27.437 16.5064 27.4664 16.177 27.4702 15.8537C27.4734 15.4978 27.4569 15.1338 27.3387 14.7943C27.2485 14.5229 27.071 14.2745 26.8183 14.1335C26.4486 13.9297 26.0049 13.9207 25.5961 13.9761Z" fill="#0594DA"></path></svg>