<svg xmlns="http://www.w3.org/2000/svg" width="32" height="32" viewBox="0 0 32 32" fill="none" style="border-radius: 4px;"><path fill-rule="evenodd" clip-rule="evenodd" d="M27.973 0H2.027A2.033 2.033 0 0 0 0 2.027v25.946C0 29.088.912 30 2.027 30h25.946A2.033 2.033 0 0 0 30 27.973V2.027A2.033 2.033 0 0 0 27.973 0Z" fill="#A50064"></path><path d="M20.755 14.088a4.304 4.304 0 0 0 4.307-4.308 4.304 4.304 0 0 0-4.307-4.307 4.304 4.304 0 0 0-4.308 4.307 4.304 4.304 0 0 0 4.308 4.308Zm0-6.142a1.834 1.834 0 1 1 0 3.668 1.834 1.834 0 0 1 0-3.668Zm0 8.007a4.304 4.304 0 0 0-4.308 4.307 4.304 4.304 0 0 0 4.308 4.307 4.304 4.304 0 0 0 4.307-4.307 4.304 4.304 0 0 0-4.307-4.307Zm0 6.142a1.834 1.834 0 1 1-.001-3.668 1.834 1.834 0 0 1 0 3.668Zm-8.777-6.142a3.2 3.2 0 0 0-1.936.648 3.223 3.223 0 0 0-1.936-.648 3.235 3.235 0 0 0-3.233 3.233v5.392h2.473v-5.423c0-.405.324-.73.73-.73.405 0 .73.325.73.73v5.412h2.473v-5.412c0-.405.324-.73.73-.73.405 0 .729.325.729.73v5.412H15.2v-5.391a3.225 3.225 0 0 0-3.223-3.223Zm0-10.48a3.2 3.2 0 0 0-1.936.648 3.238 3.238 0 0 0-5.179 2.584v5.383h2.473V8.675c0-.405.325-.73.73-.73.405 0 .73.325.73.73v5.412h2.473V8.675c0-.405.324-.73.73-.73.405 0 .73.325.73.73v5.412H15.2v-5.38a3.227 3.227 0 0 0-3.223-3.233Z" fill="#fff"></path><rect x="14.5" y="14.5" width="17" height="17" rx="8.5" fill="#fff"></rect><rect x="14.5" y="14.5" width="17" height="17" rx="8.5" stroke="#D1D5DB"></rect><path d="M17.75 22.417h4.667V17.75H17.75v4.667Zm1.167-3.5h2.333v2.333h-2.333v-2.333ZM17.75 28.25h4.667v-4.667H17.75v4.667Zm1.167-3.5h2.333v2.333h-2.333V24.75Zm4.666-7v4.667h4.667V17.75h-4.667Zm3.5 3.5H24.75v-2.333h2.333v2.333Zm1.167 5.833h-1.167v1.167h1.167v-1.167Zm-3.5-3.5h-1.167v1.167h1.167v-1.167Zm1.167 1.167H24.75v1.167h1.167V24.75Zm-1.167 1.167h-1.167v1.166h1.167v-1.166Zm1.167 1.166H24.75v1.167h1.167v-1.167Z" fill="#111827"></path><path d="M27.083 25.917h-1.166v1.166h1.166v-1.166Zm0-2.334h-1.166v1.167h1.166v-1.167Zm1.167 1.167h-1.167v1.167h1.167V24.75Z" fill="#111827"></path></svg>