<svg xmlns="http://www.w3.org/2000/svg" width="32" height="32" viewBox="0 0 32 32" fill="none" style="border-radius: 4px;"><path fill-rule="evenodd" clip-rule="evenodd" d="M29.838 0H2.162A2.168 2.168 0 0 0 0 2.162v27.676C0 31.027.973 32 2.162 32h27.676A2.168 2.168 0 0 0 32 29.838V2.162A2.168 2.168 0 0 0 29.838 0Z" fill="#A50064"></path><path d="M22.142 15.027a4.59 4.59 0 0 0 4.594-4.595 4.59 4.59 0 0 0-4.595-4.594 4.59 4.59 0 0 0-4.594 4.594 4.59 4.59 0 0 0 4.595 4.595Zm0-6.551a1.956 1.956 0 1 1 0 3.912 1.956 1.956 0 0 1 0-3.912Zm0 8.541a4.59 4.59 0 0 0-4.595 4.594 4.59 4.59 0 0 0 4.595 4.595 4.59 4.59 0 0 0 4.594-4.595 4.59 4.59 0 0 0-4.595-4.594Zm0 6.551a1.956 1.956 0 1 1-.001-3.913 1.956 1.956 0 0 1 0 3.913Zm-9.362-6.551c-.779 0-1.492.26-2.065.692a3.438 3.438 0 0 0-2.065-.692 3.451 3.451 0 0 0-3.45 3.448v5.752h2.64v-5.784c0-.433.346-.779.778-.779.433 0 .779.346.779.779v5.773h2.638v-5.773c0-.433.346-.779.778-.779.432 0 .778.346.778.779v5.773h2.627v-5.752a3.44 3.44 0 0 0-3.437-3.437Zm-.001-11.179c-.779 0-1.492.26-2.065.692A3.453 3.453 0 0 0 5.19 9.287v5.74h2.637V9.254c0-.432.346-.778.779-.778.432 0 .778.346.778.778v5.773h2.638V9.254c0-.432.346-.778.778-.778.433 0 .779.346.779.778v5.773h2.637v-5.74a3.442 3.442 0 0 0-3.437-3.45Z" fill="#fff"></path></svg>