<svg xmlns="http://www.w3.org/2000/svg" width="20" height="20" viewBox="0 0 20 20" fill="none"><path d="M10.0003 1.66797C5.40033 1.66797 1.66699 5.4013 1.66699 10.0013C1.66699 14.6013 5.40033 18.3346 10.0003 18.3346C14.6003 18.3346 18.3337 14.6013 18.3337 10.0013C18.3337 5.4013 14.6003 1.66797 10.0003 1.66797ZM10.0003 16.668C6.32533 16.668 3.33366 13.6763 3.33366 10.0013C3.33366 6.3263 6.32533 3.33464 10.0003 3.33464C13.6753 3.33464 16.667 6.3263 16.667 10.0013C16.667 13.6763 13.6753 16.668 10.0003 16.668ZM10.2587 9.28464C8.78366 8.90964 8.30866 8.5013 8.30866 7.89297C8.30866 7.19297 8.96699 6.7013 10.0587 6.7013C11.2087 6.7013 11.642 7.2513 11.6753 8.06797H13.1003C13.0587 6.9513 12.3753 5.9263 11.0253 5.59297V4.16797H9.08366V5.5763C7.82533 5.84297 6.81699 6.65964 6.81699 7.91797C6.81699 9.40964 8.05866 10.1596 9.86699 10.593C11.492 10.9763 11.817 11.5513 11.817 12.1513C11.817 12.593 11.492 13.3096 10.067 13.3096C8.73366 13.3096 8.20866 12.7096 8.13366 11.943H6.70033C6.78366 13.3596 7.83366 14.1596 9.08366 14.418V15.8346H11.0337V14.443C12.3003 14.2013 13.3003 13.4763 13.3087 12.1346C13.3003 10.3013 11.7253 9.66797 10.2587 9.28464Z" fill="#4B5563"></path></svg>