<svg xmlns="http://www.w3.org/2000/svg" width="32" height="20" viewBox="0 0 32 20" fill="none"><path d="M30.3327 8.3335V5.00016C30.3327 4.07516 29.5827 3.3335 28.666 3.3335H15.3327C14.416 3.3335 13.6743 4.07516 13.6743 5.00016V8.3335C14.591 8.3335 15.3327 9.0835 15.3327 10.0002C15.3327 10.9168 14.591 11.6668 13.666 11.6668V15.0002C13.666 15.9168 14.416 16.6668 15.3327 16.6668H28.666C29.5827 16.6668 30.3327 15.9168 30.3327 15.0002V11.6668C29.416 11.6668 28.666 10.9168 28.666 10.0002C28.666 9.0835 29.416 8.3335 30.3327 8.3335ZM28.666 7.11683C27.6743 7.69183 26.9993 8.77516 26.9993 10.0002C26.9993 11.2252 27.6743 12.3085 28.666 12.8835V15.0002H15.3327V12.8835C16.3243 12.3085 16.9993 11.2252 16.9993 10.0002C16.9993 8.76683 16.3327 7.69183 15.341 7.11683L15.3327 5.00016H28.666V7.11683ZM21.166 12.5002H22.8327V14.1668H21.166V12.5002ZM21.166 9.16683H22.8327V10.8335H21.166V9.16683ZM21.166 5.8335H22.8327V7.50016H21.166V5.8335Z" fill="url(#paint0_linear_16083_28814)"></path><g clip-path="url(#clip0_16083_28814)"><path d="M8.91601 7.74984L9.43685 6.604L10.5827 6.08317L9.43685 5.56234L8.91601 4.4165L8.39518 5.56234L7.24935 6.08317L8.39518 6.604L8.91601 7.74984Z" fill="url(#paint1_linear_16083_28814)"></path><path d="M8.91601 10.2498L8.39518 11.3957L7.24935 11.9165L8.39518 12.4373L8.91601 13.5832L9.43685 12.4373L10.5827 11.9165L9.43685 11.3957L8.91601 10.2498Z" fill="url(#paint2_linear_16083_28814)"></path><path d="M5.79102 7.95817L4.74935 5.6665L3.70768 7.95817L1.41602 8.99984L3.70768 10.0415L4.74935 12.3332L5.79102 10.0415L8.08268 8.99984L5.79102 7.95817ZM5.16185 9.41234L4.74935 10.3207L4.33685 9.41234L3.42852 8.99984L4.33685 8.58734L4.74935 7.679L5.16185 8.58734L6.07018 8.99984L5.16185 9.41234Z" fill="url(#paint3_linear_16083_28814)"></path></g><defs><linearGradient id="paint0_linear_16083_28814" x1="64.7985" y1="33.2004" x2="8.24457" y2="39.298" gradientUnits="userSpaceOnUse"><stop offset="0.478165" stop-color="#00E6D8"></stop><stop offset="0.717405" stop-color="#089DEC"></stop><stop offset="1" stop-color="#0E60FE"></stop></linearGradient><linearGradient id="paint1_linear_16083_28814" x1="10.5827" y1="13.5832" x2="0.80991" y2="12.8836" gradientUnits="userSpaceOnUse"><stop stop-color="#0E60FE"></stop><stop offset="1" stop-color="#00E6D8"></stop></linearGradient><linearGradient id="paint2_linear_16083_28814" x1="10.5827" y1="13.5832" x2="0.80991" y2="12.8836" gradientUnits="userSpaceOnUse"><stop stop-color="#0E60FE"></stop><stop offset="1" stop-color="#00E6D8"></stop></linearGradient><linearGradient id="paint3_linear_16083_28814" x1="10.5827" y1="13.5832" x2="0.80991" y2="12.8836" gradientUnits="userSpaceOnUse"><stop stop-color="#0E60FE"></stop><stop offset="1" stop-color="#00E6D8"></stop></linearGradient><clipPath id="clip0_16083_28814"><rect width="10" height="10" fill="white" transform="translate(1 4)"></rect></clipPath></defs></svg>