<svg xmlns="http://www.w3.org/2000/svg" width="14" height="14" viewBox="0 0 14 14" fill="none"><path d="M12.334 3.33317H10.8807C10.954 3.1265 11.0007 2.89984 11.0007 2.6665C11.0007 1.55984 10.1073 0.666504 9.00065 0.666504C8.30065 0.666504 7.69398 1.0265 7.33398 1.5665L7.00065 2.01317L6.66732 1.55984C6.30732 1.0265 5.70065 0.666504 5.00065 0.666504C3.89398 0.666504 3.00065 1.55984 3.00065 2.6665C3.00065 2.89984 3.04732 3.1265 3.12065 3.33317H1.66732C0.927318 3.33317 0.340651 3.9265 0.340651 4.6665L0.333984 11.9998C0.333984 12.7398 0.927318 13.3332 1.66732 13.3332H12.334C13.074 13.3332 13.6673 12.7398 13.6673 11.9998V4.6665C13.6673 3.9265 13.074 3.33317 12.334 3.33317ZM9.00065 1.99984C9.36732 1.99984 9.66732 2.29984 9.66732 2.6665C9.66732 3.03317 9.36732 3.33317 9.00065 3.33317C8.63398 3.33317 8.33398 3.03317 8.33398 2.6665C8.33398 2.29984 8.63398 1.99984 9.00065 1.99984ZM5.00065 1.99984C5.36732 1.99984 5.66732 2.29984 5.66732 2.6665C5.66732 3.03317 5.36732 3.33317 5.00065 3.33317C4.63398 3.33317 4.33398 3.03317 4.33398 2.6665C4.33398 2.29984 4.63398 1.99984 5.00065 1.99984ZM12.334 11.9998H1.66732V10.6665H12.334V11.9998ZM12.334 8.6665H1.66732V4.6665H5.05398L3.66732 6.55317L4.74732 7.33317L7.00065 4.2665L9.25398 7.33317L10.334 6.55317L8.94732 4.6665H12.334V8.6665Z" fill="#E9590C"></path></svg>