
<svg width="20" height="20" viewBox="0 0 20 20" fill="none" xmlns="http://www.w3.org/2000/svg"><path d="M3.35009 1.98253C3.37909 1.98252 3.40808 1.98251 3.43796 1.9825C3.53286 1.98255 3.62774 1.98316 3.72264 1.98377C3.78881 1.98392 3.85498 1.98403 3.92115 1.98411C4.0946 1.98441 4.26805 1.98517 4.4415 1.98604C4.64999 1.98698 4.85848 1.98734 5.06697 1.98779C5.38308 1.98855 5.69917 1.99005 6.01528 1.9914C6.01528 2.44257 6.01528 2.89375 6.01528 3.35859C5.13871 3.35859 4.26215 3.35859 3.35903 3.35859C3.35903 6.86484 3.35903 10.3711 3.35903 13.9836C5.98871 13.9836 8.6184 13.9836 11.3278 13.9836C11.3278 13.5453 11.3278 13.107 11.3278 12.6555C11.7789 12.6555 12.2301 12.6555 12.695 12.6555C12.6985 13.1917 12.7014 13.7278 12.7031 14.264C12.7039 14.5131 12.705 14.7621 12.7068 15.0111C12.7085 15.2517 12.7094 15.4923 12.7098 15.7329C12.7101 15.8244 12.7106 15.9159 12.7115 16.0074C12.7221 17.2009 12.7221 17.2009 12.3727 17.5578C12.0886 17.8452 11.7969 18.0146 11.3867 18.0177C11.3542 18.0175 11.3217 18.0174 11.2882 18.0172C11.2532 18.0174 11.2181 18.0175 11.182 18.0177C11.0648 18.0181 10.9476 18.0179 10.8304 18.0178C10.7462 18.0179 10.6621 18.0181 10.578 18.0184C10.3496 18.0189 10.1212 18.0189 9.89276 18.0188C9.70201 18.0188 9.51127 18.019 9.32052 18.0191C8.87043 18.0196 8.42035 18.0196 7.97026 18.0194C7.50616 18.0191 7.04206 18.0196 6.57795 18.0204C6.17933 18.0211 5.7807 18.0214 5.38207 18.0212C5.14407 18.0212 4.90607 18.0213 4.66806 18.0218C4.44417 18.0223 4.22028 18.0222 3.99639 18.0217C3.91433 18.0216 3.83228 18.0217 3.75022 18.022C3.63797 18.0225 3.52573 18.0221 3.41348 18.0216C3.38122 18.0219 3.34897 18.0222 3.31574 18.0225C2.92585 18.0189 2.62233 17.8882 2.3434 17.6164C2.01003 17.2208 1.98019 16.897 1.98165 16.3939C1.98154 16.3365 1.98138 16.2792 1.9812 16.2219C1.9808 16.0646 1.98089 15.9073 1.98105 15.7501C1.98115 15.5804 1.9808 15.4106 1.9805 15.2409C1.98001 14.9085 1.97994 14.5761 1.98003 14.2437C1.9801 13.9735 1.98003 13.7034 1.97986 13.4332C1.97983 13.3755 1.97983 13.3755 1.97979 13.3166C1.97975 13.2385 1.9797 13.1604 1.97965 13.0823C1.97923 12.3496 1.97931 11.617 1.97955 10.8844C1.97975 10.2142 1.97931 9.54407 1.97857 8.87393C1.97781 8.18572 1.97749 7.4975 1.97763 6.80929C1.97771 6.42295 1.97761 6.03662 1.97706 5.65028C1.97659 5.32139 1.97654 4.9925 1.97701 4.66361C1.97724 4.49584 1.97729 4.32808 1.97682 4.16032C1.97639 4.00664 1.97651 3.85296 1.97706 3.69928C1.97717 3.64379 1.97707 3.5883 1.97676 3.53281C1.97422 3.04833 2.03692 2.69755 2.38246 2.34297C2.6825 2.09013 2.95414 1.97838 3.35009 1.98253ZM6.41078 15.5754C6.34439 15.7082 6.34253 15.8324 6.36684 15.9758C6.44705 16.1458 6.52974 16.2334 6.70464 16.3039C6.91351 16.3572 7.13176 16.344 7.34584 16.342C7.39481 16.3424 7.44378 16.3429 7.49423 16.3434C7.54159 16.3432 7.58895 16.3431 7.63774 16.3429C7.70202 16.3427 7.70202 16.3427 7.7676 16.3425C7.95323 16.3196 8.08166 16.252 8.21498 16.1223C8.29687 15.9888 8.31722 15.8979 8.31996 15.7414C8.26024 15.5779 8.19674 15.479 8.04653 15.3898C7.84418 15.3224 7.62784 15.3404 7.416 15.3392C7.35967 15.3388 7.30334 15.338 7.24701 15.3368C7.16535 15.3352 7.08374 15.3345 7.00206 15.3341C6.9533 15.3336 6.90454 15.333 6.85431 15.3324C6.66389 15.3581 6.54885 15.4465 6.41078 15.5754Z" fill="#4B5563"></path><path d="M9.14062 7.8125C10.1461 7.8125 11.1516 7.8125 12.1875 7.8125C12.1875 8.81797 12.1875 9.82344 12.1875 10.8594C11.182 10.8594 10.1766 10.8594 9.14062 10.8594C9.14062 9.85391 9.14062 8.84844 9.14062 7.8125ZM10.1953 8.86719C10.1953 9.17656 10.1953 9.48594 10.1953 9.80469C10.5047 9.80469 10.8141 9.80469 11.1328 9.80469C11.1328 9.49531 11.1328 9.18594 11.1328 8.86719C10.8234 8.86719 10.5141 8.86719 10.1953 8.86719Z" fill="#4B5563"></path><path d="M9.14062 3.82812C10.1461 3.82812 11.1516 3.82812 12.1875 3.82812C12.1875 4.8207 12.1875 5.81328 12.1875 6.83594C11.182 6.83594 10.1766 6.83594 9.14062 6.83594C9.14062 5.84336 9.14062 4.85078 9.14062 3.82812ZM10.1953 4.84375C10.1953 5.16602 10.1953 5.48828 10.1953 5.82031C10.5047 5.82031 10.8141 5.82031 11.1328 5.82031C11.1328 5.49805 11.1328 5.17578 11.1328 4.84375C10.8234 4.84375 10.5141 4.84375 10.1953 4.84375Z" fill="#4B5563"></path><path d="M13.1641 3.82812C14.1566 3.82812 15.1492 3.82812 16.1719 3.82812C16.1719 4.8207 16.1719 5.81328 16.1719 6.83594C15.1793 6.83594 14.1867 6.83594 13.1641 6.83594C13.1641 5.84336 13.1641 4.85078 13.1641 3.82812ZM14.1797 4.84375C14.1797 5.16602 14.1797 5.48828 14.1797 5.82031C14.502 5.82031 14.8242 5.82031 15.1562 5.82031C15.1562 5.49805 15.1562 5.17578 15.1562 4.84375C14.834 4.84375 14.5117 4.84375 14.1797 4.84375Z" fill="#4B5563"></path><path d="M7.30469 10C7.65273 10 8.00078 10 8.35938 10C8.35938 10.5414 8.35938 11.0828 8.35938 11.6406C8.90078 11.6406 9.44219 11.6406 10 11.6406C10 11.9887 10 12.3367 10 12.6953C9.11055 12.6953 8.22109 12.6953 7.30469 12.6953C7.30469 11.8059 7.30469 10.9164 7.30469 10Z" fill="#4B5563"></path><path d="M16.9922 10C17.3273 10 17.6625 10 18.0078 10C18.0078 10.8895 18.0078 11.7789 18.0078 12.6953C17.1184 12.6953 16.2289 12.6953 15.3125 12.6953C15.3125 12.3473 15.3125 11.9992 15.3125 11.6406C15.8668 11.6406 16.4211 11.6406 16.9922 11.6406C16.9922 11.0992 16.9922 10.5578 16.9922 10Z" fill="#4B5563"></path><path d="M7.30469 1.99219C8.19414 1.99219 9.08359 1.99219 10 1.99219C10 2.32734 10 2.6625 10 3.00781C9.45859 3.00781 8.91719 3.00781 8.35938 3.00781C8.35938 3.56211 8.35938 4.11641 8.35938 4.6875C8.01133 4.6875 7.66328 4.6875 7.30469 4.6875C7.30469 3.79805 7.30469 2.90859 7.30469 1.99219Z" fill="#4B5563"></path><path d="M15.3125 1.99219C16.202 1.99219 17.0914 1.99219 18.0078 1.99219C18.0078 2.88164 18.0078 3.77109 18.0078 4.6875C17.6727 4.6875 17.3375 4.6875 16.9922 4.6875C16.9922 4.1332 16.9922 3.57891 16.9922 3.00781C16.4379 3.00781 15.8836 3.00781 15.3125 3.00781C15.3125 2.67266 15.3125 2.3375 15.3125 1.99219Z" fill="#4B5563"></path><path d="M13.1641 7.8125C13.4992 7.8125 13.8344 7.8125 14.1797 7.8125C14.1797 8.14766 14.1797 8.48281 14.1797 8.82812C14.502 8.82812 14.8242 8.82812 15.1562 8.82812C15.1562 8.49297 15.1562 8.15781 15.1562 7.8125C15.4914 7.8125 15.8266 7.8125 16.1719 7.8125C16.1719 8.16055 16.1719 8.50859 16.1719 8.86719C15.8496 8.86719 15.5273 8.86719 15.1953 8.86719C15.1953 9.18945 15.1953 9.51172 15.1953 9.84375C14.8602 9.84375 14.525 9.84375 14.1797 9.84375C14.1797 10.1789 14.1797 10.5141 14.1797 10.8594C13.8445 10.8594 13.5094 10.8594 13.1641 10.8594C13.1641 10.5113 13.1641 10.1633 13.1641 9.80469C13.4863 9.80469 13.8086 9.80469 14.1406 9.80469C14.1406 9.49531 14.1406 9.18594 14.1406 8.86719C13.8184 8.86719 13.4961 8.86719 13.1641 8.86719C13.1641 8.51914 13.1641 8.17109 13.1641 7.8125Z" fill="#4B5563"></path></svg>