<svg width="100%" viewBox="0 0 720 330" fill="none" xmlns="http://www.w3.org/2000/svg" style="mix-blend-mode: color-burn;"><path opacity="0.23" d="M293.632 70.6562L325.246 25.3859L280.066 0.0246695L255.376 0.0246674L293.632 70.6562Z" fill="#BCBEC0"></path><path opacity="0.13" d="M117.328 293.855L90.9041 202.744L31.1321 272.868L117.328 293.855Z" fill="#BCBEC0"></path><path opacity="0.16" d="M152.641 211.725L187.891 293.855L221.785 211.725L152.641 211.725Z" fill="#BCBEC0"></path><path opacity="0.11" d="M117.346 293.855L187.834 293.855L187.84 293.855L152.59 211.718L117.346 293.855Z" fill="#BCBEC0"></path><path opacity="0.12" d="M152.68 211.718L90.9877 202.669L90.9817 202.669L117.43 293.855L117.436 293.855L152.68 211.718Z" fill="#BCBEC0"></path><path opacity="0.19" d="M258.348 166.307L258.342 166.307L199.83 158.104L209.616 182.043L221.748 211.709L258.348 166.307Z" fill="#BCBEC0"></path><path opacity="0.14" d="M209.653 182.045L199.867 158.106L152.641 211.711L221.785 211.711L209.653 182.045Z" fill="#BCBEC0"></path><path opacity="0.13" d="M199.885 158.106L128.149 134.493L152.665 211.711L199.891 158.106L199.885 158.106Z" fill="#BCBEC0"></path><path opacity="0.13" d="M128.164 134.493L90.9877 202.662L152.68 211.711L128.164 134.493Z" fill="#BCBEC0"></path><path opacity="0.16" d="M232.661 82.3059L258.467 166.311L293.711 70.6561L232.661 82.3059Z" fill="#BCBEC0"></path><path opacity="0.14" d="M258.346 166.311L258.352 166.311L232.546 82.3059L199.834 158.107L258.346 166.311Z" fill="#BCBEC0"></path><path opacity="0.17" d="M199.921 158.1L232.633 82.298L164.053 89.6425L199.921 158.1Z" fill="#BCBEC0"></path><path opacity="0.11" d="M128.151 134.489L199.887 158.102L164.019 89.6507L128.151 134.489Z" fill="#BCBEC0"></path><path opacity="0.11" d="M232.657 82.2965L232.657 82.3027L293.707 70.653L255.451 0.0214047L242.329 0.0214036L232.657 82.2965Z" fill="#BCBEC0"></path><path opacity="0.18" d="M232.605 82.3027L242.277 0.0276794L225.369 0.027678L187.917 38.7807L204.561 54.9926L232.605 82.3027Z" fill="#BCBEC0"></path><path opacity="0.15" d="M232.637 82.302L204.593 54.9856L187.949 38.7737L164.057 89.6465L232.637 82.302Z" fill="#BCBEC0"></path><path opacity="0.13" d="M187.95 38.791L225.402 0.0379715L199.794 0.0379693L199.68 0.413953L187.95 38.791Z" fill="#BCBEC0"></path><path opacity="0.13" d="M199.574 0.394798L199.688 0.0188141L172.795 0.0188117L187.844 38.7656L199.574 0.394798Z" fill="#BCBEC0"></path><path opacity="0.06" d="M36.3633 147.618L-0.00270534 123.642L-0.00270844 158.992L36.3633 147.618Z" fill="#BCBEC0"></path><path opacity="0.06" d="M31.1367 208.832L0.0507592 184.718L0.0507565 216.195L31.1367 208.832Z" fill="#BCBEC0"></path><path opacity="0.1" d="M-0.00270633 184.71L31.0833 208.824L36.3633 147.593L-0.00270408 158.967L-0.00270633 184.71Z" fill="#BCBEC0"></path><path opacity="0.08" d="M31.1839 208.824L90.998 202.72L91.0039 202.714L91.0039 202.72L36.464 147.593L31.1839 208.824Z" fill="#BCBEC0"></path><path opacity="0.05" d="M0.0546663 216.205L0.0546627 257.164L31.1406 208.842L0.0546663 216.205Z" fill="#BCBEC0"></path><path opacity="0.07" d="M31.1367 272.85L31.1367 208.848L0.0507589 257.17L0.0507565 284.781L31.1367 272.85Z" fill="#BCBEC0"></path><path opacity="0.09" d="M31.1899 208.834L31.1899 272.835L31.1899 272.841L31.2318 272.848L91.0039 202.724L31.1899 208.827L31.1899 208.834Z" fill="#BCBEC0"></path><path opacity="0.08" d="M36.452 147.534L90.9919 202.662L128.168 134.493L36.452 147.534Z" fill="#BCBEC0"></path><path opacity="0.08" d="M163.93 89.6518L74.1997 82.3073L128.062 134.496L163.93 89.6581L163.93 89.6518Z" fill="#BCBEC0"></path><path opacity="0.09" d="M128.168 134.49L74.306 82.3015L36.452 147.531L128.168 134.49Z" fill="#BCBEC0"></path><path opacity="0.07" d="M74.326 82.3015L0.112065 96.4265L0.112063 123.561L36.4781 147.531L74.332 82.3015L74.326 82.3015Z" fill="#BCBEC0"></path><path opacity="0.09" d="M163.938 89.6484L187.836 38.7756L117.342 38.7756L163.938 89.6484Z" fill="#BCBEC0"></path><path opacity="0.06" d="M163.93 89.6465L117.334 38.7737L74.1997 82.302L163.93 89.6465Z" fill="#BCBEC0"></path><path opacity="0.07" d="M74.1962 82.3047L117.324 38.7827L31.0622 17.075L74.1962 82.3047Z" fill="#BCBEC0"></path><path opacity="0.06" d="M74.332 82.3081L31.198 17.0784L0.112064 59.2217L0.112061 96.4394L74.326 82.3144L74.332 82.3081Z" fill="#BCBEC0"></path><path opacity="0.08" d="M0.0567634 29.4058L0.0567608 59.2227L31.1367 17.0793L0.0567634 29.4058Z" fill="#BCBEC0"></path><path opacity="0.07" d="M117.342 38.791L187.836 38.791L172.788 0.0379702L128.394 0.0379663L117.342 38.7848L117.342 38.791Z" fill="#BCBEC0"></path><path opacity="0.08" d="M128.375 0.0188141L99.845 0.0188116L117.329 38.7656L128.375 0.0188141Z" fill="#BCBEC0"></path><path opacity="0.07" d="M31.0661 17.0833L117.328 38.791L99.8501 0.03797L41.0081 0.0379648L31.0661 17.0833Z" fill="#BCBEC0"></path><path opacity="0.07" d="M40.9805 0.0288773L17.0465 0.0288752L31.0385 17.0742L40.9805 0.0288773Z" fill="#BCBEC0"></path><path opacity="0.08" d="M0.0567608 29.4023L31.1367 17.0758L17.1508 0.0304782L0.0567634 0.0304767L0.0567608 29.4023Z" fill="#BCBEC0"></path><path opacity="0.27" d="M293.668 230.075L333.082 287.221L333.082 233.221L293.668 230.075Z" fill="#BCBEC0"></path><path opacity="0.26" d="M333.082 287.221L293.668 230.075L263.146 287.221L333.076 287.221L333.082 287.221Z" fill="#BCBEC0"></path><path opacity="0.24" d="M221.863 211.705L263.185 287.219L293.707 230.073L221.863 211.705Z" fill="#BCBEC0"></path><path opacity="0.27" d="M263.17 287.232L263.176 287.232L221.854 211.718L187.96 293.849L187.96 293.855L263.17 287.232Z" fill="#BCBEC0"></path><path opacity="0.26" d="M333.045 233.217L399.375 137.425L399.369 137.425L328.881 166.301" fill="#BCBEC0"></path><path opacity="0.21" d="M328.918 166.301L293.668 230.071L333.082 233.217L328.918 166.301Z" fill="#BCBEC0"></path><path opacity="0.25" d="M258.369 166.301L293.613 230.07L328.863 166.301L258.369 166.301Z" fill="#BCBEC0"></path><path opacity="0.23" d="M221.863 211.703L221.869 211.703L221.863 211.703L293.707 230.07L258.463 166.301L221.863 211.703Z" fill="#BCBEC0"></path><path opacity="0.22" d="M356.869 70.6642L356.869 70.6704L399.385 137.436L456.031 82.3139L356.869 70.6642Z" fill="#BCBEC0"></path><path opacity="0.23" d="M328.885 166.311L399.373 137.434L399.379 137.428L356.863 70.6624L328.885 166.311Z" fill="#BCBEC0"></path><path opacity="0.25" d="M293.571 70.6624L328.821 166.311L356.793 70.6561L293.571 70.6561L293.571 70.6624Z" fill="#BCBEC0"></path><path opacity="0.2" d="M258.369 166.311L328.863 166.311L293.613 70.6624L258.369 166.311Z" fill="#BCBEC0"></path><path opacity="0.21" d="M456.043 82.3027L462.667 43.6499L469.891 1.45646L399.397 38.7745L399.397 38.7807L456.043 82.3027Z" fill="#BCBEC0"></path><path opacity="0.29" d="M356.869 70.653L456.031 82.3027L399.385 38.7744L356.869 70.653Z" fill="#BCBEC0"></path><path opacity="0.24" d="M399.375 38.7797L325.245 25.3878L356.859 70.6582L399.375 38.7797Z" fill="#BCBEC0"></path><path opacity="0.27" d="M293.567 70.6582L356.789 70.6582L325.181 25.3878L293.567 70.6582Z" fill="#BCBEC0"></path><path opacity="0.27" d="M469.891 1.44564L467.995 0.0168608L420.817 0.0168567L399.397 38.7637L469.891 1.44564Z" fill="#BCBEC0"></path><path opacity="0.27" d="M420.875 0.0188141L378.035 0.0188103L399.455 38.7656L420.875 0.0188141Z" fill="#BCBEC0"></path><path opacity="0.24" d="M325.245 25.3991L399.375 38.791L399.375 38.7848L377.955 0.0379696L344.817 0.0379667L325.245 25.3991Z" fill="#BCBEC0"></path><path opacity="0.28" d="M344.938 0.0274887L315.622 0.0274861L325.366 25.3887L344.938 0.0274887Z" fill="#BCBEC0"></path><path opacity="0.25" d="M325.254 25.3887L315.51 0.0274879L280.074 0.0274848L325.254 25.3887Z" fill="#BCBEC0"></path><path opacity="0.92" d="M681.227 287.188L631.925 248.323L618.329 322.363L681.227 287.188Z" fill="#BCBEC0"></path><path opacity="0.84" d="M631.982 248.326L681.284 287.191L681.332 287.166L681.368 287.166L716.582 230.083L631.982 248.326Z" fill="#BCBEC0"></path><path opacity="0.94" d="M720 290.812L720 236.393L716.52 230.095L681.312 287.178L720 290.812Z" fill="#BCBEC0"></path><path opacity="0.41" d="M624.375 0.0371056L609.117 0.0371042L618.369 6.94922L624.375 0.0371056Z" fill="#BCBEC0"></path><path opacity="0.33" d="M434.538 208.845L455.946 293.765L455.994 293.777L521.922 251.371L521.922 251.358L434.538 208.845Z" fill="#BCBEC0"></path><path opacity="0.33" d="M456.003 293.746L456.021 293.753L434.613 208.833L403.533 267.126L456.015 293.803L456.027 293.79L456.003 293.746Z" fill="#BCBEC0"></path><path opacity="0.44" d="M332.957 233.226L332.957 233.233L403.451 267.129L434.531 208.836L332.957 233.226Z" fill="#BCBEC0"></path><path opacity="0.36" d="M333.1 287.221L403.588 267.123L403.594 267.123L333.1 233.227L333.1 287.221Z" fill="#BCBEC0"></path><path opacity="0.41" d="M544.418 183.739L469.91 166.299L522.056 251.312L544.412 183.745L544.418 183.739Z" fill="#BCBEC0"></path><path opacity="0.44" d="M469.772 166.299L448.334 192.162L434.522 208.825L521.906 251.338L521.918 251.313L469.772 166.299Z" fill="#BCBEC0"></path><path opacity="0.48" d="M469.891 166.301L399.397 137.424L434.641 208.826L448.453 192.163L469.891 166.301Z" fill="#BCBEC0"></path><path opacity="0.36" d="M332.957 233.217L434.531 208.827L399.287 137.425L332.957 233.217Z" fill="#BCBEC0"></path><path opacity="0.47" d="M544.425 183.699L590.625 89.6553L528.183 76.7962L544.425 183.699Z" fill="#BCBEC0"></path><path opacity="0.41" d="M528.18 76.7905L469.89 166.31L544.398 183.75L544.422 183.7L528.18 76.7905Z" fill="#BCBEC0"></path><path opacity="0.42" d="M528.148 76.7893L456.01 82.3039L469.858 166.309L528.148 76.7893Z" fill="#BCBEC0"></path><path opacity="0.44" d="M456.039 82.3039L399.393 137.432L469.887 166.309L456.039 82.3039Z" fill="#BCBEC0"></path><path opacity="0.33" d="M540.402 38.7733L590.646 89.6211L618.348 6.97002L540.402 38.7733Z" fill="#BCBEC0"></path><path opacity="0.34" d="M528.177 76.7873L590.619 89.6465L590.625 89.6214L540.381 38.7737L528.177 76.7873Z" fill="#BCBEC0"></path><path opacity="0.44" d="M528.198 76.7949L540.402 38.7813L540.402 38.7751L469.914 1.45703L528.198 76.7949Z" fill="#BCBEC0"></path><path opacity="0.29" d="M528.148 76.7881L469.864 1.45018L462.634 43.6437L456.01 82.3027L528.148 76.7881Z" fill="#BCBEC0"></path><path opacity="0.34" d="M540.384 38.7828L540.384 38.7891L618.33 6.98573L618.336 6.97322L618.336 6.96695L618.348 6.9544L609.102 0.0360176L561.804 0.0360134L540.384 38.7828Z" fill="#BCBEC0"></path><path opacity="0.5" d="M561.695 0.016861L518.855 0.0168572L540.275 38.7637L561.695 0.016861Z" fill="#BCBEC0"></path><path opacity="0.47" d="M469.908 1.43936L469.914 1.43936L469.914 1.44563L540.402 38.7637L518.982 0.0168591L471.81 0.016855L469.908 1.43936Z" fill="#BCBEC0"></path><path opacity="0.36" d="M618.269 6.9689L618.263 6.98768L681.227 38.791L681.227 38.7848L659.807 0.0379696L624.287 0.0379665L618.263 6.9689L618.269 6.9689Z" fill="#BCBEC0"></path><path opacity="0.46" d="M702.723 0.016861L659.889 0.0168572L681.303 38.7637L702.723 0.016861Z" fill="#BCBEC0"></path><path opacity="0.37" d="M719.996 0.0360184L702.686 0.0360169L681.266 38.7891L719.996 33.1115L719.996 0.0360184Z" fill="#BCBEC0"></path><path opacity="0.45" d="M646.07 102.551L618.332 7.02798L590.636 89.6665L590.63 89.6728L646.07 102.551Z" fill="#BCBEC0"></path><path opacity="0.49" d="M645.983 102.551L681.227 38.7874L618.263 6.98411L618.245 7.02798L645.983 102.551Z" fill="#BCBEC0"></path><path opacity="0.44" d="M646.026 102.54L720 108.111L720 82.2801L681.27 38.7769L646.026 102.54Z" fill="#BCBEC0"></path><path opacity="0.41" d="M720 82.2754L720 33.1008L681.27 38.7784L720 82.2754Z" fill="#BCBEC0"></path><path opacity="0.49" d="M612.912 130.263L612.918 130.263L590.484 89.6804L544.296 183.699L612.912 130.27L612.912 130.263Z" fill="#BCBEC0"></path><path opacity="0.41" d="M590.618 89.6905L613.052 130.273L646.07 102.543L590.63 89.6654L590.618 89.6905Z" fill="#BCBEC0"></path><path opacity="0.65" d="M613.085 130.27L704.129 175.096L646.103 102.534L613.085 130.27Z" fill="#BCBEC0"></path><path opacity="0.51" d="M704.052 175.096L720 149.503L720 108.105L646.026 102.534L704.052 175.096Z" fill="#BCBEC0"></path><path opacity="0.66" d="M720 172.157L720 149.509L704.058 175.096L720 172.157Z" fill="#BCBEC0"></path><path opacity="0.58" d="M544.397 183.804L522.041 251.365L590.621 244.021L544.397 183.804Z" fill="#BCBEC0"></path><path opacity="0.51" d="M544.3 183.719L544.276 183.763L544.276 183.769L544.27 183.801L590.488 244.023L612.922 130.29L612.916 130.29L544.3 183.719Z" fill="#BCBEC0"></path><path opacity="0.69" d="M613.096 130.279L590.662 244.013L632.008 248.324L613.096 130.279Z" fill="#BCBEC0"></path><path opacity="0.65" d="M704.129 175.103L613.085 130.277L631.997 248.322L704.129 175.103Z" fill="#BCBEC0"></path><path opacity="0.73" d="M631.986 248.322L716.586 230.08L704.118 175.103L631.986 248.322Z" fill="#BCBEC0"></path><path opacity="0.51" d="M704.058 175.097L716.52 230.068L720 223.77L720 172.158L704.058 175.097Z" fill="#BCBEC0"></path><path opacity="0.71" d="M716.52 230.068L720 230.068L720 223.77L716.52 230.062L716.52 230.068Z" fill="#BCBEC0"></path><path opacity="0.69" d="M521.882 251.392L455.978 293.786L521.918 315.205L521.882 251.392Z" fill="#BCBEC0"></path><path opacity="0.75" d="M522.045 251.354L522.045 251.36L522.009 251.385L522.045 315.199L522.105 315.205L590.625 244.009L522.045 251.354Z" fill="#BCBEC0"></path><path opacity="0.69" d="M522.114 315.2L618.348 322.363L590.634 244.005L522.114 315.2Z" fill="#BCBEC0"></path><path opacity="0.55" d="M618.412 322.353L632.008 248.312L590.662 244.001L618.376 322.359L618.394 322.365L618.412 322.353Z" fill="#BCBEC0"></path><path opacity="0.54" d="M720 236.389L720 230.091L716.52 230.091L720 236.389Z" fill="#BCBEC0"></path></svg>