 <svg id="barcode" width="222px" height="70px" x="0px" y="0px" viewBox="0 0 222 70"
                xmlns="http://www.w3.org/2000/svg" version="1.1">
                <rect x="0" y="0" width="222" height="70" fill="#ffffff"></rect>
                <g transform="translate(10, 10)" fill="#000000">
                    <rect x="0" y="0" width="4" height="50"></rect>
                    <rect x="6" y="0" width="2" height="50"></rect>
                    <rect x="12" y="0" width="2" height="50"></rect>
                    <rect x="22" y="0" width="2" height="50"></rect>
                    <rect x="26" y="0" width="4" height="50"></rect>
                    <rect x="36" y="0" width="2" height="50"></rect>
                    <rect x="44" y="0" width="4" height="50"></rect>
                    <rect x="54" y="0" width="2" height="50"></rect>
                    <rect x="58" y="0" width="2" height="50"></rect>
                    <rect x="66" y="0" width="2" height="50"></rect>
                    <rect x="72" y="0" width="6" height="50"></rect>
                    <rect x="80" y="0" width="4" height="50"></rect>
                    <rect x="88" y="0" width="2" height="50"></rect>
                    <rect x="92" y="0" width="6" height="50"></rect>
                    <rect x="100" y="0" width="8" height="50"></rect>
                    <rect x="110" y="0" width="4" height="50"></rect>
                    <rect x="116" y="0" width="4" height="50"></rect>
                    <rect x="124" y="0" width="4" height="50"></rect>
                    <rect x="132" y="0" width="4" height="50"></rect>
                    <rect x="140" y="0" width="4" height="50"></rect>
                    <rect x="146" y="0" width="4" height="50"></rect>
                    <rect x="154" y="0" width="4" height="50"></rect>
                    <rect x="160" y="0" width="6" height="50"></rect>
                    <rect x="172" y="0" width="2" height="50"></rect>
                    <rect x="176" y="0" width="4" height="50"></rect>
                    <rect x="186" y="0" width="6" height="50"></rect>
                    <rect x="194" y="0" width="2" height="50"></rect>
                    <rect x="198" y="0" width="4" height="50"></rect>
                </g>
            </svg>