<svg xmlns="http://www.w3.org/2000/svg" width="40" height="40" viewBox="0 0 40 40" fill="none"><path d="M22.9067 6.78639L16.166 6.80957L16.3703 19.15L23.111 19.1269L22.9067 6.78639Z" fill="#FF5F00"></path><path d="M16.6113 13.0051C16.5696 10.4952 17.6939 8.26498 19.4551 6.81837C18.1258 5.77523 16.4592 5.14796 14.6526 5.15415C10.3728 5.1688 6.96855 8.6946 7.04073 13.0379C7.11291 17.3812 10.6339 20.8833 14.9138 20.8686C16.7204 20.8624 18.3659 20.2238 19.6604 19.1717C17.8517 17.7591 16.653 15.5151 16.6113 13.0051Z" fill="#EB001B"></path><path d="M32.2394 12.8993C32.3116 17.2426 28.9073 20.7684 24.6275 20.7831C22.8209 20.7893 21.1543 20.162 19.825 19.1189C21.6077 17.6722 22.7105 15.4421 22.6688 12.9321C22.6271 10.4222 21.4287 8.19992 19.6197 6.76554C20.9142 5.71341 22.5597 5.0748 24.3663 5.06861C28.6462 5.05395 32.1676 8.57785 32.2394 12.8993Z" fill="#F79E1B"></path><path d="M15.9885 25.7902L12.1879 34.8579H9.70836L7.8381 27.6215C7.72456 27.1758 7.62583 27.0125 7.2805 26.8247C6.71701 26.5188 5.78596 26.232 4.9668 26.0539L5.02244 25.7902H9.01378C9.52254 25.7902 9.9799 26.1289 10.0954 26.7148L11.0832 31.9618L13.5243 25.7902H15.9885ZM25.704 31.8974C25.7139 29.5041 22.3947 29.3723 22.4175 28.3032C22.4246 27.9778 22.7344 27.6319 23.4125 27.5436C23.7486 27.4996 24.6746 27.466 25.725 27.9494L26.137 26.0265C25.5726 25.8217 24.8464 25.6245 23.9429 25.6245C21.6243 25.6245 19.9926 26.857 19.9789 28.6219C19.9639 29.9273 21.1435 30.6558 22.0322 31.0895C22.9465 31.5337 23.2533 31.8192 23.2498 32.2165C23.2433 32.8248 22.5206 33.0933 21.8452 33.1039C20.6662 33.122 19.9821 32.7849 19.4367 32.5313L19.0116 34.5178C19.5596 34.7693 20.5713 34.9886 21.6201 34.9997C24.0844 34.9997 25.6964 33.7824 25.704 31.8974ZM31.8264 34.858H33.9958L32.1021 25.7902H30.0997C29.6495 25.7902 29.2697 26.0524 29.1016 26.4555L25.5816 34.8579H28.0447L28.5338 33.5033H31.5433L31.8265 34.8579L31.8264 34.858ZM29.2091 31.645L30.4437 28.2405L31.1543 31.645H29.2092H29.2091ZM19.3401 25.7902L17.4004 34.8579H15.0548L16.9953 25.7902H19.3401Z" fill="#1434CB"></path></svg>