<svg xmlns="http://www.w3.org/2000/svg" width="32" height="32" viewBox="0 0 32 32" fill="none"><rect x="0.4" y="0.4" width="31.1996" height="31.1999" rx="6" fill="white"></rect><rect x="0.4" y="0.4" width="31.1996" height="31.1999" rx="6" stroke="#EAEAEA" stroke-width="0.8"></rect><path fill-rule="evenodd" clip-rule="evenodd" d="M17.7986 12.6543L15.973 14.4798L15.8824 14.5692L14.87 15.5829L13.9469 16.506L13.8575 16.5966L13.0021 17.4507L12.9127 17.5414C12.6566 17.7975 12.3727 18.0077 12.0718 18.1744C11.9196 18.2578 11.7637 18.3303 11.6043 18.3919C11.2491 18.5296 10.8757 18.6094 10.5 18.6336C10.2692 18.6493 10.0361 18.6432 9.8065 18.6142C9.30994 18.555 8.82425 18.3968 8.37964 18.1394C8.18996 18.0295 7.99423 17.9147 7.83234 17.754C7.83234 17.754 7.83153 17.754 7.82992 17.754L4.32862 14.2527C4.27063 14.1887 4.21868 14.1198 4.17519 14.0449C4.06403 13.8564 4 13.639 4 13.4058C4 13.3695 4.00121 13.3321 4.00483 13.297C4.00967 13.2427 4.01812 13.1907 4.029 13.14L4.05074 13.0566C4.09786 12.9008 4.17519 12.7534 4.28151 12.6205C4.30929 12.5866 4.3395 12.554 4.37091 12.5202L4.43011 12.4622L7.97007 8.92102H7.97128L10.1158 6.7753C10.5942 6.29686 11.3566 6.27511 11.858 6.71368L17.7986 12.6543Z" fill="#005AAA"></path><path fill-rule="evenodd" clip-rule="evenodd" d="M7.79458 17.7203C7.80546 17.7311 7.81633 17.742 7.82841 17.7529C7.99031 17.9136 8.18603 18.0296 8.37813 18.1395C8.82274 18.3969 9.30843 18.5551 9.80499 18.6143C10.0345 18.6421 10.2677 18.6482 10.4985 18.6337C10.8742 18.6107 11.2476 18.5298 11.6028 18.3932C11.7622 18.3316 11.9181 18.2591 12.0703 18.1758C12.3712 18.009 12.6551 17.7988 12.9112 17.5427L13.0006 17.4533L13.856 16.5979L14.2885 16.1641L15.301 15.1517L15.8809 14.5706L15.9715 14.4812L19.6492 10.8047L21.1655 9.16155L21.2561 9.07215C21.7188 8.60941 22.4703 8.60941 22.933 9.07215L23.7631 9.90216L23.7896 9.92995C23.4224 9.91304 23.0514 10.0447 22.7736 10.3166L19.9633 13.0809L19.9343 13.1147L15.0436 17.9269L15.0364 17.9208L13.235 19.6908L13.1142 19.8177C12.9728 19.9554 12.6756 20.2176 12.2793 20.4048C12.0993 20.4894 11.9169 20.551 11.7357 20.5897C11.6281 20.6114 11.5182 20.6247 11.4107 20.6296H11.3285C11.0422 20.6296 10.7619 20.5655 10.4924 20.4423L9.64551 19.5978L9.29997 19.251L7.71484 17.6478L7.78733 17.7215L7.79458 17.7203ZM28.2635 16.0759L24.1908 20.2103L20.008 24.4571C19.8751 24.5912 19.735 24.7108 19.5876 24.8195C19.5828 24.8244 19.5767 24.8292 19.5707 24.834C19.5501 24.8485 19.5308 24.863 19.5091 24.8775C19.5066 24.8799 19.5042 24.8811 19.5018 24.8836C18.8712 25.3354 18.0967 25.6 17.2631 25.6C16.2325 25.6 15.2974 25.1965 14.6051 24.538L14.5096 24.4534L13.7896 23.7346L11.7683 21.7121L10.9999 20.9437C11.1098 20.9618 11.221 20.9691 11.3321 20.9691H11.4252C11.5544 20.963 11.6825 20.9473 11.8094 20.9219C12.016 20.8797 12.225 20.8084 12.4304 20.7117C12.8726 20.5027 13.2024 20.2127 13.3582 20.0593C13.4199 19.9989 13.4658 19.9482 13.4851 19.9264L15.04 18.3993L15.0461 18.4065L20.391 13.1473L20.42 13.1135L23.0164 10.5582C23.3656 10.2163 23.9117 10.1716 24.3092 10.4446L24.9241 11.0596H24.9253L28.2635 14.3978C28.2925 14.428 28.3215 14.4582 28.3469 14.4896C28.725 14.956 28.696 15.6446 28.2635 16.0759Z" fill="#ED1C24"></path><path d="M17.2471 13.204L16.904 13.5459L16.3023 12.9406C16.2081 12.8452 16.2093 12.6917 16.3023 12.5987C16.3977 12.5045 16.55 12.5045 16.6454 12.5987L17.2459 13.2028L17.2471 13.204ZM16.2334 14.2177L15.8903 14.5584L14.0007 12.6543C13.2988 11.9487 12.2742 11.6998 11.3258 12.0067C11.199 12.0478 11.0624 11.9789 11.0213 11.8521C10.9803 11.724 11.0503 11.5875 11.1772 11.5464C12.2996 11.1827 13.5138 11.4763 14.3438 12.3136L16.2322 14.2177H16.2334ZM14.2073 16.2438L13.8642 16.5869L11.9661 14.6744C11.8719 14.5801 11.8731 14.4267 11.9661 14.3312C12.0616 14.237 12.215 14.2382 12.3093 14.3325L14.2061 16.2438H14.2073ZM15.2198 15.2313L14.8766 15.5732L12.9834 13.6643C12.5219 13.198 11.7656 13.1956 11.3004 13.6571C10.8353 14.1198 10.8317 14.8749 11.2944 15.3401L12.5147 16.5712C12.6089 16.6654 12.6089 16.8189 12.5147 16.9143C12.4204 17.0086 12.267 17.0074 12.1715 16.9131L10.9501 15.682C10.3001 15.0259 10.3037 13.964 10.9597 13.3127C11.6158 12.6628 12.679 12.6676 13.3278 13.3224L15.2198 15.2301V15.2313ZM12.0797 18.1672C12.0797 18.1672 12.0725 18.1708 12.0688 18.1732C11.9202 18.2542 11.7692 18.3255 11.6134 18.3859L9.93399 16.692C8.88288 15.6324 8.73306 13.9724 9.57637 12.7437C9.65249 12.6338 9.80351 12.606 9.91345 12.6809C10.0246 12.757 10.0512 12.908 9.97628 13.018C9.26466 14.0546 9.39152 15.4548 10.2783 16.3489L12.0809 18.166L12.0797 18.1672ZM15.3611 11.6491C15.2669 11.7421 15.1122 11.7397 15.0168 11.6455C13.4413 10.0579 10.8679 10.0483 9.28037 11.6225C7.69403 13.198 7.68316 15.7714 9.25862 17.3589L10.4922 18.6034C10.5006 18.6118 10.5091 18.6215 10.5139 18.6311C10.5079 18.6311 10.5018 18.6311 10.4958 18.6311C10.2711 18.6468 10.0439 18.6408 9.82163 18.6142L8.9155 17.6996C7.15156 15.9236 7.16243 13.0421 8.93966 11.2782C10.7169 9.51424 13.5972 9.52632 15.3611 11.3036L15.3647 11.3072C15.459 11.4014 15.4566 11.5536 15.3611 11.6491Z" fill="#009EDB"></path></svg>