<svg xmlns="http://www.w3.org/2000/svg" width="32" height="32" viewBox="0 0 32 32" fill="none"><path d="M7.15706 0.4H24.8429C28.5748 0.4 31.6 3.42524 31.6 7.15706V24.8429C31.6 28.5748 28.5748 31.6 24.8429 31.6H7.15706C3.42524 31.6 0.4 28.5748 0.4 24.8429V7.15706C0.4 3.42524 3.42524 0.4 7.15706 0.4Z" fill="white" stroke="#EAEAEA" stroke-width="0.8"></path><path d="M10.4104 8.36347C10.5928 8.11935 10.6215 7.79912 10.4851 7.52627C10.3487 7.25343 10.0744 7.08398 9.76997 7.08398H4.36914V8.64205H8.25211L4.54721 13.5819C4.36483 13.826 4.33611 14.1463 4.47253 14.4191C4.60895 14.692 4.88323 14.8614 5.18766 14.8614H10.5885V13.3033H6.70553L10.4104 8.36347Z" fill="#0033C9"></path><path d="M24.522 8.6377C22.806 8.6377 21.4102 10.0335 21.4102 11.7495C21.4102 13.4656 22.806 14.8614 24.522 14.8614C26.238 14.8614 27.6338 13.4656 27.6338 11.7495C27.6338 10.0335 26.238 8.6377 24.522 8.6377ZM24.522 13.3033C23.6661 13.3033 22.9697 12.6068 22.9697 11.751C22.9697 10.8951 23.6661 10.1972 24.522 10.1972C25.3778 10.1972 26.0743 10.8937 26.0743 11.751C26.0743 12.6083 25.3778 13.3033 24.522 13.3033Z" fill="#0033C9"></path><path d="M7.47902 17.1977C5.76299 17.1977 4.36719 18.5935 4.36719 20.3096V25.7506H5.92526V23.0006C6.38334 23.2663 6.91179 23.4199 7.47902 23.4199C9.19505 23.4199 10.5908 22.0241 10.5908 20.3081C10.5908 18.5921 9.19505 17.1963 7.47902 17.1963V17.1977ZM7.47902 21.8619C6.62316 21.8619 5.92526 21.1654 5.92526 20.3096C5.92526 19.4537 6.62172 18.7558 7.47902 18.7558C8.33631 18.7558 9.03134 19.4523 9.03134 20.3096C9.03134 21.1668 8.33488 21.8619 7.47902 21.8619Z" fill="#00CF6A"></path><path d="M22.8925 17.1992L21.2354 21.0664L19.6615 17.1992H17.9785L20.3723 23.0797L19.2278 25.7506H20.9223L24.5885 17.1992H22.8925Z" fill="#00CF6A"></path><path d="M17.3878 13.3018V8.6377H15.8269V9.20635C15.3458 8.85453 14.7628 8.64631 14.1324 8.64631C12.4968 8.64631 11.1699 10.0378 11.1699 11.7538C11.1699 13.4699 12.4968 14.8614 14.1324 14.8614C14.8978 14.8614 15.5928 14.554 16.1198 14.0543C16.4386 14.5411 16.9872 14.8628 17.6119 14.8628H18.1633V13.3047H17.3878V13.3018ZM14.2789 13.3033C13.423 13.3033 12.7294 12.6097 12.7294 11.7538C12.7294 10.898 13.423 10.2044 14.2789 10.2044C15.1347 10.2044 15.8283 10.898 15.8283 11.7538C15.8283 12.6097 15.1347 13.3033 14.2789 13.3033Z" fill="#0033C9"></path><path d="M17.3878 21.8634V17.1992H15.8269V17.7679C15.3458 17.4161 14.7628 17.2078 14.1324 17.2078C12.4968 17.2078 11.1699 18.5993 11.1699 20.3154C11.1699 22.0314 12.4968 23.4229 14.1324 23.4229C14.8978 23.4229 15.5928 23.1156 16.1198 22.6158C16.4386 23.1026 16.9872 23.4243 17.6119 23.4243H18.1633V21.8662H17.3878V21.8634ZM14.2789 21.8634C13.423 21.8634 12.7294 21.1698 12.7294 20.3139C12.7294 19.4581 13.423 18.7645 14.2789 18.7645C15.1347 18.7645 15.8283 19.4581 15.8283 20.3139C15.8283 21.1698 15.1347 21.8634 14.2789 21.8634Z" fill="#00CF6A"></path><path d="M20.3148 13.3019V7.08398H18.7539V13.075C18.7539 14.0615 19.5538 14.8614 20.5403 14.8614H21.0975V13.3019H20.3163H20.3148Z" fill="#0033C9"></path></svg>